<svg xmlns="http://www.w3.org/2000/svg" viewBox="0 0 24 24"><defs><style>.cls-1{fill:#231f20;}</style></defs><g id="Layer_27" data-name="Layer 27"><path class="cls-1" d="M6,2A1,1,0,0,1,7,1H17a3.12,3.12,0,0,1,3,3.21V14a1,1,0,0,1-2,0V4.21A1.13,1.13,0,0,0,17,3H7A1,1,0,0,1,6,2ZM22.71,22.71a1,1,0,0,1-1.42,0l-1.56-1.57a3.14,3.14,0,0,1-1.5,1.57,2.76,2.76,0,0,1-3-.35l-2.68-2.09a.83.83,0,0,0-1.08,0L8.78,22.37A2.84,2.84,0,0,1,7,23a2.75,2.75,0,0,1-1.24-.29A3.18,3.18,0,0,1,4,19.79V5.41L1.29,2.71A1,1,0,0,1,2.71,1.29l3,3h0l14,14h0l3,3A1,1,0,0,1,22.71,22.71ZM18,19.41,6,7.41V19.79a1.2,1.2,0,0,0,.64,1.12.82.82,0,0,0,.9-.11l2.68-2.11a2.84,2.84,0,0,1,3.56,0l2.68,2.09a.8.8,0,0,0,.9.12A1.2,1.2,0,0,0,18,19.79Z"/></g></svg>