<svg xmlns="http://www.w3.org/2000/svg" viewBox="0 0 24 24"><defs><style>.cls-1{fill:#231f20;}</style></defs><g id="Layer_7" data-name="Layer 7"><path class="cls-1" d="M9.26,4.49A1,1,0,0,1,10,3.26a8.92,8.92,0,0,1,1-.2V2a1,1,0,0,1,2,0V3.07A8,8,0,0,1,20,11v2a1,1,0,0,1-2,0V11a6,6,0,0,0-6-6,5.79,5.79,0,0,0-1.51.2A1,1,0,0,1,9.26,4.49ZM22.71,22.71a1,1,0,0,1-1.42,0l-1-1A3,3,0,0,1,19,22H13.72a2,2,0,0,1-3.44,0H5a3,3,0,0,1-3-3,3,3,0,0,1,2-2.83V11A8,8,0,0,1,5.27,6.69l-4-4A1,1,0,0,1,2.71,1.29l20,20A1,1,0,0,1,22.71,22.71ZM18.59,20,6.73,8.15A6,6,0,0,0,6,11v6a1,1,0,0,1-1,1,1,1,0,0,0-1,1,.93.93,0,0,0,.29.69A1,1,0,0,0,5,20Z"/></g></svg>