<svg xmlns="http://www.w3.org/2000/svg" viewBox="0 0 24 24"><defs><style>.cls-1{fill:#231f20;}</style></defs><g id="Layer_31" data-name="Layer 31"><path class="cls-1" d="M17,1H7A3.12,3.12,0,0,0,4,4.21V19.79a3.21,3.21,0,0,0,1.76,2.92,2.8,2.8,0,0,0,3-.34l2.68-2.11a.85.85,0,0,1,1.08,0l2.68,2.11a2.82,2.82,0,0,0,3,.34A3.21,3.21,0,0,0,20,19.79V4.21A3.12,3.12,0,0,0,17,1Zm1,18.79a1.21,1.21,0,0,1-.63,1.12.81.81,0,0,1-.91-.11l-2.68-2.11a2.83,2.83,0,0,0-3.56,0L7.54,20.8a.81.81,0,0,1-.91.11A1.21,1.21,0,0,1,6,19.79V4.21A1.12,1.12,0,0,1,7,3H17a1.12,1.12,0,0,1,1,1.21ZM15.27,6.35a1,1,0,0,1,0,1.42l-2.62,2.62a1,1,0,0,1-.71.29,1,1,0,0,1-.71-.29L9.92,9.08a1,1,0,0,1,1.42-1.42l.6.61,1.91-1.92A1,1,0,0,1,15.27,6.35Z"/></g></svg>