<svg xmlns="http://www.w3.org/2000/svg" viewBox="0 0 24 24"><defs><style>.cls-1{fill:#231f20;}</style></defs><g id="Layer_5" data-name="Layer 5"><path class="cls-1" d="M23,22a1,1,0,0,1-1,1H2a1,1,0,0,1,0-2H22A1,1,0,0,1,23,22ZM3,18V13.76a1,1,0,0,1,.29-.71l2.35-2.34s0,0,0,0h0l7-7v0h0l1.81-1.81a3,3,0,0,1,4.24,0l1.41,1.41a3,3,0,0,1,0,4.24L9,18.71a1,1,0,0,1-.71.29H4A1,1,0,0,1,3,18Zm4.78-6.61,2.83,2.83,5.58-5.58L13.36,5.81ZM15.9,3.27,14.78,4.39l2.83,2.83L18.73,6.1a1,1,0,0,0,0-1.41L17.31,3.27A1,1,0,0,0,15.9,3.27ZM5,17H7.83l1.36-1.36L6.36,12.81,5,14.17Z"/></g></svg>