<svg xmlns="http://www.w3.org/2000/svg" viewBox="0 0 24 24"><defs><style>.cls-1{fill:#231f20;}</style></defs><g id="Layer_13" data-name="Layer 13"><path class="cls-1" d="M21.89,10.15C20.09,7.85,16.41,4,12,4S3.91,7.85,2.11,10.15a3,3,0,0,0,0,3.7C3.91,16.15,7.59,20,12,20s8.09-3.85,9.89-6.15a3,3,0,0,0,0-3.7Zm-1.57,2.47C19.05,14.24,15.7,18,12,18s-7-3.76-8.32-5.38a1,1,0,0,1,0-1.24C5,9.76,8.3,6,12,6s7.05,3.76,8.32,5.38A1,1,0,0,1,20.32,12.62ZM12,8a4,4,0,1,0,4,4A4,4,0,0,0,12,8Zm0,6a2,2,0,0,1-2-2v-.09a1.39,1.39,0,0,0,.5.09A1.5,1.5,0,0,0,12,10.5a1.39,1.39,0,0,0-.09-.5H12a2,2,0,0,1,0,4Z"/></g></svg>