<svg xmlns="http://www.w3.org/2000/svg" viewBox="0 0 24 24"><defs><style>.cls-1{fill:#231f20;}</style></defs><g id="Layer_24" data-name="Layer 24"><path class="cls-1" d="M23,11v7.2A2.91,2.91,0,0,1,20,21H4a2.91,2.91,0,0,1-3-2.8V11a1,1,0,0,1,2,0v7.2A.93.93,0,0,0,4,19H20a.93.93,0,0,0,1-.8V11a1,1,0,0,1,2,0ZM9.59,7.83,11,6.41V15a1,1,0,0,0,2,0V6.41l1.41,1.42a1,1,0,0,0,1.42,0,1,1,0,0,0,.29-.71,1,1,0,0,0-.29-.71L12.71,3.29A1,1,0,0,0,12.07,3h-.19a1,1,0,0,0-.54.24l-.05,0L8.17,6.41A1,1,0,1,0,9.59,7.83Z"/></g></svg>