<svg xmlns="http://www.w3.org/2000/svg" viewBox="0 0 24 24"><defs><style>.cls-1{fill:#231f20;}</style></defs><g id="Layer_14" data-name="Layer 14"><path class="cls-1" d="M8.21,6a1,1,0,0,1,.55-1.31A8.74,8.74,0,0,1,12,4c4.42,0,8.09,3.86,9.89,6.15a3,3,0,0,1,0,3.71c-.06.09-.17.21-.28.34l-.11.13a1,1,0,0,1-.77.37.94.94,0,0,1-.63-.23,1,1,0,0,1-.14-1.4l.11-.15a2.6,2.6,0,0,0,.23-.28,1,1,0,0,0,0-1.24C19.05,9.77,15.71,6,12,6a6.59,6.59,0,0,0-2.48.53A1,1,0,0,1,8.21,6ZM22.82,19.57A1,1,0,0,1,22,20a1,1,0,0,1-.57-.18L18.2,17.56A10.21,10.21,0,0,1,12,20c-4.42,0-8.09-3.86-9.89-6.15a3,3,0,0,1,0-3.71A20.62,20.62,0,0,1,4.24,7.79l-2.81-2A1,1,0,0,1,2.57,4.18L15,12.9h0l7.53,5.27A1,1,0,0,1,22.82,19.57ZM10,12a2,2,0,0,0,2.84,1.81L10.18,12l-.17,0S10,12,10,12Zm6.47,4.35L14.6,15A4,4,0,0,1,8,12a4.18,4.18,0,0,1,.26-1.4L5.92,9a20.52,20.52,0,0,0-2.23,2.42,1,1,0,0,0,0,1.22C5,14.23,8.29,18,12,18A7.83,7.83,0,0,0,16.47,16.35Z"/></g></svg>