<svg xmlns="http://www.w3.org/2000/svg" viewBox="0 0 24 24"><defs><style>.cls-1{fill:#231f20;}</style></defs><g id="Layer_76" data-name="Layer 76"><path class="cls-1" d="M19.13,4.71l-2.8-2.82A3,3,0,0,0,14.2,1H7A3,3,0,0,0,4,4V20a3,3,0,0,0,3,3H17a3,3,0,0,0,3-3V6.82A3,3,0,0,0,19.13,4.71ZM17.59,6H16a1,1,0,0,1-1-1V3.38ZM17,21H7a1,1,0,0,1-1-1V4A1,1,0,0,1,7,3h6V5a3,3,0,0,0,3,3h2V20A1,1,0,0,1,17,21Zm-1-8.31a1,1,0,0,1-.36,1.12l-1.32.95.5,1.55a1,1,0,0,1-.36,1.12,1.06,1.06,0,0,1-.59.19,1.09,1.09,0,0,1-.59-.19l-1.31-1-1.31,1a1,1,0,0,1-1.18,0,1,1,0,0,1-.36-1.12l.5-1.55-1.32-.95A1,1,0,0,1,8,12.69a1,1,0,0,1,1-.69h1.63l.5-1.54a1,1,0,0,1,1.9,0l.5,1.54h1.63A1,1,0,0,1,16,12.69Z"/></g></svg>