<svg xmlns="http://www.w3.org/2000/svg" viewBox="0 0 24 24"><defs><style>.cls-1{fill:#231f20;}</style></defs><g id="Layer_113" data-name="Layer 113"><path class="cls-1" d="M23,7v6.81a1,1,0,1,1-2,0V7a1,1,0,0,0-1-1H13.07a3,3,0,0,1-2.49-1.34L9.76,3.45A1,1,0,0,0,8.93,3H4A1,1,0,0,0,3,4V17a1,1,0,0,0,1,1h9a1,1,0,0,1,0,2H4a3,3,0,0,1-3-3V4A3,3,0,0,1,4,1H8.93a3,3,0,0,1,2.49,1.34l.82,1.21a1,1,0,0,0,.83.45H20A3,3,0,0,1,23,7ZM21,19H20V16a1,1,0,0,0-2,0v3H17a1,1,0,0,0-.72,1.7l1.94,2a1,1,0,0,0,.7.3h0a1,1,0,0,0,.69-.28l2.07-2A1,1,0,0,0,21,19Z"/></g></svg>