<svg xmlns="http://www.w3.org/2000/svg" viewBox="0 0 24 24"><defs><style>.cls-1{fill:#231f20;}</style></defs><g id="Layer_67" data-name="Layer 67"><path class="cls-1" d="M7,3h6V5a3,3,0,0,0,3,3h2v6a1,1,0,0,0,2,0V6.82a3,3,0,0,0-.87-2.1l-2.8-2.84A3,3,0,0,0,14.2,1H7A1,1,0,0,0,7,3ZM17.59,6H16a1,1,0,0,1-1-1V3.38Zm5.12,15.29-3-3h0l-14-14h0l-3-3A1,1,0,0,0,1.29,2.71L4,5.41V20a3,3,0,0,0,3,3H17a3,3,0,0,0,2.76-1.83l1.53,1.54a1,1,0,0,0,1.42,0A1,1,0,0,0,22.71,21.29ZM18,20a1,1,0,0,1-1,1H7a1,1,0,0,1-1-1V7.41l12,12Z"/></g></svg>