<svg xmlns="http://www.w3.org/2000/svg" viewBox="0 0 24 24"><defs><style>.cls-1{fill:#231f20;}</style></defs><g id="Layer_117" data-name="Layer 117"><path class="cls-1" d="M14,19a1,1,0,0,1-1,1H4a3,3,0,0,1-3-3V4A3,3,0,0,1,4,1H8.93a3,3,0,0,1,2.49,1.34l.82,1.21a1,1,0,0,0,.83.45H20a3,3,0,0,1,3,3v6.81a1,1,0,1,1-2,0V7a1,1,0,0,0-1-1H13.07a3,3,0,0,1-2.49-1.34L9.76,3.45A1,1,0,0,0,8.93,3H4A1,1,0,0,0,3,4V17a1,1,0,0,0,1,1h9A1,1,0,0,1,14,19Zm9-1.31a1,1,0,0,0-1-.69H20.45L20,15.46a1,1,0,0,0-1.9,0L17.55,17H15.92a1,1,0,0,0-.95.69,1,1,0,0,0,.36,1.12l1.32,1-.5,1.55a1,1,0,0,0,.36,1.12,1,1,0,0,0,1.18,0l1.31-1,1.31,1a1.09,1.09,0,0,0,.59.19,1.06,1.06,0,0,0,.59-.19,1,1,0,0,0,.36-1.12l-.5-1.55,1.32-1A1,1,0,0,0,23,17.69Z"/></g></svg>