<svg xmlns="http://www.w3.org/2000/svg" viewBox="0 0 24 24"><defs><style>.cls-1{fill:#231f20;}</style></defs><g id="Layer_84" data-name="Layer 84"><path class="cls-1" d="M15,8h2v5a1,1,0,0,0,2,0V6.82a3,3,0,0,0-.87-2.1l-2.8-2.84A3,3,0,0,0,13.2,1H6A3,3,0,0,0,3,4V20a3,3,0,0,0,3,3h7a1,1,0,0,0,0-2H6a1,1,0,0,1-1-1V4A1,1,0,0,1,6,3h6V5A3,3,0,0,0,15,8Zm1.59-2H15a1,1,0,0,1-1-1V3.38Zm4.33,13.39A1,1,0,0,1,20,20H19v2a1,1,0,0,1-2,0V20H16a1,1,0,0,1-.7-1.72l2.07-2a1,1,0,0,1,.69-.28h0a1,1,0,0,1,.7.3l1.94,2A1,1,0,0,1,20.92,19.39Z"/></g></svg>