<svg xmlns="http://www.w3.org/2000/svg" viewBox="0 0 24 24"><defs><style>.cls-1{fill:#231f20;}</style></defs><g id="Layer_92" data-name="Layer 92"><path class="cls-1" d="M12,21H5a1,1,0,0,1-1-1V4A1,1,0,0,1,5,3h6V5a3,3,0,0,0,3,3h2v5a1,1,0,0,0,2,0V6.82a3,3,0,0,0-.87-2.1l-2.8-2.84A3,3,0,0,0,12.2,1H5A3,3,0,0,0,2,4V20a3,3,0,0,0,3,3h7a1,1,0,0,0,0-2ZM15.59,6H14a1,1,0,0,1-1-1V3.38Zm6.24,12.44C21.66,18.19,20.13,16,18,16s-3.66,2.19-3.83,2.44a1,1,0,0,0,0,1.12c.17.25,1.7,2.44,3.83,2.44s3.66-2.19,3.83-2.44A1,1,0,0,0,21.83,18.44ZM18,20a2.72,2.72,0,0,1-1.71-1A2.77,2.77,0,0,1,18,18a2.75,2.75,0,0,1,1.71,1A2.77,2.77,0,0,1,18,20Z"/></g></svg>