<svg xmlns="http://www.w3.org/2000/svg" viewBox="0 0 24 24"><defs><style>.cls-1{fill:#231f20;}</style></defs><g id="Layer_115" data-name="Layer 115"><path class="cls-1" d="M23,7.5v6a1,1,0,0,1-2,0v-6a1,1,0,0,0-1-1H13.07a3,3,0,0,1-2.48-1.32L9.75,3.94a1,1,0,0,0-.82-.44H4a1,1,0,0,0-1,1v13a1,1,0,0,0,1,1h9a1,1,0,0,1,0,2H4a3,3,0,0,1-3-3V4.5a3,3,0,0,1,3-3H8.93a3,3,0,0,1,2.48,1.32l.84,1.24a1,1,0,0,0,.82.44H20A3,3,0,0,1,23,7.5Zm-1,11H19v-1a1,1,0,0,0-1.7-.72l-2,1.94a1,1,0,0,0-.3.7,1,1,0,0,0,.28.71l2,2.07A1,1,0,0,0,19,21.5v-1h3a1,1,0,0,0,0-2Z"/></g></svg>