<svg xmlns="http://www.w3.org/2000/svg" viewBox="0 0 24 24"><defs><style>.cls-1{fill:#231f20;}</style></defs><g id="Layer_93" data-name="Layer 93"><path class="cls-1" d="M22.3,16.94l-4.24,4.24a1.06,1.06,0,0,1-.39.24l-2.13.71a.84.84,0,0,1-.31.05,1,1,0,0,1-.71-.29,1,1,0,0,1-.24-1L15,18.74a1.06,1.06,0,0,1,.24-.39l4.24-4.24a1,1,0,0,1,1.41,0l1.42,1.42A1,1,0,0,1,22.3,16.94ZM10.41,5V3h-6a1,1,0,0,0-1,1V20a1,1,0,0,0,1,1h7a1,1,0,0,1,0,2h-7a3,3,0,0,1-3-3V4a3,3,0,0,1,3-3h7.2a3,3,0,0,1,2.13.88l2.8,2.84a3,3,0,0,1,.87,2.1V13a1,1,0,0,1-2,0V8h-2A3,3,0,0,1,10.41,5Zm2-1.62V5a1,1,0,0,0,1,1H15Z"/></g></svg>