<svg xmlns="http://www.w3.org/2000/svg" viewBox="0 0 24 24"><defs><style>.cls-1{fill:#231f20;}</style></defs><g id="Layer_77" data-name="Layer 77"><path class="cls-1" d="M19.13,4.71l-2.8-2.82A3,3,0,0,0,14.2,1H7A3,3,0,0,0,4,4V20a3,3,0,0,0,3,3H17a3,3,0,0,0,3-3V6.82A3,3,0,0,0,19.13,4.71ZM17.59,6H16a1,1,0,0,1-1-1V3.39ZM17,21H7a1,1,0,0,1-1-1V4A1,1,0,0,1,7,3h6V5a3,3,0,0,0,3,3h2V20A1,1,0,0,1,17,21Zm-3.3-6.71a3,3,0,1,0-1.41,1.41l2,2a1,1,0,0,0,1.42,0,1,1,0,0,0,0-1.42ZM10,13a1,1,0,1,1,1.71.71h0A1,1,0,0,1,10,13Z"/></g></svg>