<svg xmlns="http://www.w3.org/2000/svg" viewBox="0 0 24 24"><defs><style>.cls-1{fill:#231f20;}</style></defs><g id="Layer_120" data-name="Layer 120"><path class="cls-1" d="M23,7v6.81a1,1,0,1,1-2,0V7a1,1,0,0,0-1-1H13.07a3,3,0,0,1-2.49-1.34L9.76,3.45A1,1,0,0,0,8.93,3H4A1,1,0,0,0,3,4V17a1,1,0,0,0,1,1h9a1,1,0,0,1,0,2H4a3,3,0,0,1-3-3V4A3,3,0,0,1,4,1H8.93a3,3,0,0,1,2.49,1.34l.82,1.21a1,1,0,0,0,.83.45H20A3,3,0,0,1,23,7Zm-.17,11.44a1,1,0,0,1,0,1.12C22.66,19.81,21.13,22,19,22s-3.66-2.19-3.83-2.44a1,1,0,0,1,0-1.12C15.34,18.19,16.87,16,19,16S22.66,18.19,22.83,18.44ZM20.71,19A2.75,2.75,0,0,0,19,18a2.77,2.77,0,0,0-1.71,1A2.72,2.72,0,0,0,19,20,2.77,2.77,0,0,0,20.71,19Z"/></g></svg>