<svg xmlns="http://www.w3.org/2000/svg" viewBox="0 0 24 24"><defs><style>.cls-1{fill:#231f20;}</style></defs><g id="Layer_100" data-name="Layer 100"><path class="cls-1" d="M14.93,14.12a1,1,0,0,1-.23,1.1l-2.07,2a1,1,0,0,1-.69.28h0a1,1,0,0,1-.7-.3l-1.94-2A1,1,0,0,1,10,13.5h1v-3a1,1,0,0,1,2,0v3h1A1,1,0,0,1,14.93,14.12ZM23,8.5v10a3,3,0,0,1-3,3H4a3,3,0,0,1-3-3V5.5a3,3,0,0,1,3-3H8.93a3,3,0,0,1,2.5,1.34l.81,1.21a1,1,0,0,0,.83.45H20A3,3,0,0,1,23,8.5Zm-2,0a1,1,0,0,0-1-1H13.07a3,3,0,0,1-2.5-1.34L9.76,5a1,1,0,0,0-.83-.45H4a1,1,0,0,0-1,1v13a1,1,0,0,0,1,1H20a1,1,0,0,0,1-1Z"/></g></svg>