<svg xmlns="http://www.w3.org/2000/svg" viewBox="0 0 24 24"><defs><style>.cls-1{fill:#231f20;}</style></defs><g id="Layer_103" data-name="Layer 103"><path class="cls-1" d="M15.72,13.37a1,1,0,0,1,.28.71,1,1,0,0,1-.3.7l-2,1.94A1,1,0,0,1,13,17a1.09,1.09,0,0,1-.39-.08A1,1,0,0,1,12,16V15H9a1,1,0,0,1,0-2h3V12a1,1,0,0,1,1.72-.7ZM23,9V19a3,3,0,0,1-3,3H4a3,3,0,0,1-3-3V6A3,3,0,0,1,4,3H8.93a3,3,0,0,1,2.5,1.34l.81,1.21a1,1,0,0,0,.83.45H20A3,3,0,0,1,23,9ZM21,9a1,1,0,0,0-1-1H13.07a3,3,0,0,1-2.5-1.34L9.76,5.45A1,1,0,0,0,8.93,5H4A1,1,0,0,0,3,6V19a1,1,0,0,0,1,1H20a1,1,0,0,0,1-1Z"/></g></svg>