<svg xmlns="http://www.w3.org/2000/svg" viewBox="0 0 24 24"><defs><style>.cls-1{fill:#231f20;}</style></defs><g id="Layer_101" data-name="Layer 101"><path class="cls-1" d="M20,6H13.07a1,1,0,0,1-.83-.45l-.81-1.21A3,3,0,0,0,8.93,3H4A3,3,0,0,0,1,6V19a3,3,0,0,0,3,3H20a3,3,0,0,0,3-3V9A3,3,0,0,0,20,6Zm1,13a1,1,0,0,1-1,1H4a1,1,0,0,1-1-1V6A1,1,0,0,1,4,5H8.93a1,1,0,0,1,.83.45l.81,1.21A3,3,0,0,0,13.07,8H20a1,1,0,0,1,1,1Zm-6.16-7.09a1,1,0,0,1,0,1.41L12,16.11a1,1,0,0,1-.7.29,1,1,0,0,1-.71-.3L9.17,14.72a1,1,0,0,1,0-1.41,1,1,0,0,1,1.42,0l.68.68,2.15-2.1A1,1,0,0,1,14.84,11.91Z"/></g></svg>