<svg xmlns="http://www.w3.org/2000/svg" viewBox="0 0 24 24"><defs><style>.cls-1{fill:#231f20;}</style></defs><g id="Layer_79" data-name="Layer 79"><path class="cls-1" d="M19.13,4.71l-2.8-2.82A3,3,0,0,0,14.2,1H7A3,3,0,0,0,4,4V20a3,3,0,0,0,3,3H17a3,3,0,0,0,3-3V6.82A3,3,0,0,0,19.13,4.71ZM17.59,6H16a1,1,0,0,1-1-1V3.39ZM17,21H7a1,1,0,0,1-1-1V4A1,1,0,0,1,7,3h6V5a3,3,0,0,0,3,3h2V20A1,1,0,0,1,17,21ZM12,11c-2.13,0-3.66,2.19-3.83,2.44a1,1,0,0,0,0,1.12C8.34,14.81,9.87,17,12,17s3.66-2.19,3.83-2.44a1,1,0,0,0,0-1.12C15.66,13.19,14.13,11,12,11Zm0,4a2.72,2.72,0,0,1-1.71-1A2.75,2.75,0,0,1,12,13a2.75,2.75,0,0,1,1.71,1A2.75,2.75,0,0,1,12,15Z"/></g></svg>