<svg xmlns="http://www.w3.org/2000/svg" viewBox="0 0 24 24"><defs><style>.cls-1{fill:#231f20;}</style></defs><g id="Layer_104" data-name="Layer 104"><path class="cls-1" d="M20,6H13.07a1,1,0,0,1-.83-.45l-.81-1.21A3,3,0,0,0,8.93,3H4A3,3,0,0,0,1,6V19a3,3,0,0,0,3,3H20a3,3,0,0,0,3-3V9A3,3,0,0,0,20,6Zm1,13a1,1,0,0,1-1,1H4a1,1,0,0,1-1-1V6A1,1,0,0,1,4,5H8.93a1,1,0,0,1,.83.45l.81,1.21A3,3,0,0,0,13.07,8H20a1,1,0,0,1,1,1Zm-5-6.31a1,1,0,0,1-.36,1.12l-1.32.95.5,1.55a1,1,0,0,1-.36,1.12,1.06,1.06,0,0,1-.59.19,1.09,1.09,0,0,1-.59-.19l-1.31-1-1.31,1a1,1,0,0,1-1.18,0,1,1,0,0,1-.36-1.12l.5-1.55-1.32-.95A1,1,0,0,1,8,12.69a1,1,0,0,1,1-.69h1.63l.5-1.54a1,1,0,0,1,1.9,0l.5,1.54h1.63A1,1,0,0,1,16,12.69Z"/></g></svg>