<svg xmlns="http://www.w3.org/2000/svg" viewBox="0 0 24 24"><defs><style>.cls-1{fill:#231f20;}</style></defs><g id="Layer_111" data-name="Layer 111"><path class="cls-1" d="M23,7v6.81a1,1,0,1,1-2,0V7a1,1,0,0,0-1-1H13.07a3,3,0,0,1-2.49-1.34L9.76,3.45A1,1,0,0,0,8.93,3H4A1,1,0,0,0,3,4V17a1,1,0,0,0,1,1h9a1,1,0,0,1,0,2H4a3,3,0,0,1-3-3V4A3,3,0,0,1,4,1H8.93a3,3,0,0,1,2.49,1.34l.82,1.21a1,1,0,0,0,.83.45H20A3,3,0,0,1,23,7Zm-1.17,9.17a1,1,0,0,0-1.42,0L19,17.59l-1.41-1.42a1,1,0,0,0-1.42,1.42L17.59,19l-1.42,1.41a1,1,0,0,0,0,1.42,1,1,0,0,0,.71.29,1,1,0,0,0,.71-.29L19,20.41l1.41,1.42a1,1,0,0,0,.71.29,1,1,0,0,0,.71-.29,1,1,0,0,0,0-1.42L20.41,19l1.42-1.41A1,1,0,0,0,21.83,16.17Z"/></g></svg>