<svg xmlns="http://www.w3.org/2000/svg" viewBox="0 0 24 24"><defs><style>.cls-1{fill:#231f20;}</style></defs><g id="Layer_98" data-name="Layer 98"><path class="cls-1" d="M20,5.5H13.07a1,1,0,0,1-.83-.45l-.81-1.21A3,3,0,0,0,8.93,2.5H4a3,3,0,0,0-3,3v13a3,3,0,0,0,3,3H20a3,3,0,0,0,3-3V8.5A3,3,0,0,0,20,5.5Zm1,13a1,1,0,0,1-1,1H4a1,1,0,0,1-1-1V5.5a1,1,0,0,1,1-1H8.93A1,1,0,0,1,9.76,5l.81,1.21a3,3,0,0,0,2.5,1.34H20a1,1,0,0,1,1,1Zm-6.17-6.41L13.41,13.5l1.42,1.41a1,1,0,0,1,0,1.42,1,1,0,0,1-.71.29,1,1,0,0,1-.71-.29L12,14.91l-1.41,1.42a1,1,0,0,1-.71.29,1,1,0,0,1-.71-.29,1,1,0,0,1,0-1.42l1.42-1.41L9.17,12.09a1,1,0,1,1,1.42-1.42L12,12.09l1.41-1.42a1,1,0,1,1,1.42,1.42Z"/></g></svg>