<svg xmlns="http://www.w3.org/2000/svg" viewBox="0 0 24 24"><defs><style>.cls-1{fill:#231f20;}</style></defs><g id="Layer_95" data-name="Layer 95"><path class="cls-1" d="M8,4A1,1,0,0,1,9.09,3a2.92,2.92,0,0,1,2.33,1.33l.82,1.21a1,1,0,0,0,.83.45H20a3,3,0,0,1,3,3v7.88a1,1,0,0,1-2,0V9a1,1,0,0,0-1-1H13.07a3,3,0,0,1-2.49-1.34L9.76,5.45A.94.94,0,0,0,9,5,1,1,0,0,1,8,4ZM22.71,22.57a1,1,0,0,1-.71.29,1,1,0,0,1-.71-.29L19.71,21H4a3,3,0,0,1-3-3V6A3,3,0,0,1,2.2,3.61l-.91-.9A1,1,0,0,1,2.71,1.29l20,19.86A1,1,0,0,1,22.71,22.57ZM17.7,19,3.67,5.07A1,1,0,0,0,3,6V18a1,1,0,0,0,1,1Z"/></g></svg>