<svg xmlns="http://www.w3.org/2000/svg" viewBox="0 0 24 24"><defs><style>.cls-1{fill:#231f20;}</style></defs><g id="Layer_90" data-name="Layer 90"><path class="cls-1" d="M14,21H7a1,1,0,0,1-1-1V4A1,1,0,0,1,7,3h6V5a3,3,0,0,0,3,3h2v5a1,1,0,0,0,2,0V6.82a3,3,0,0,0-.87-2.1l-2.8-2.84A3,3,0,0,0,14.2,1H7A3,3,0,0,0,4,4V20a3,3,0,0,0,3,3h7a1,1,0,0,0,0-2ZM17.59,6H16a1,1,0,0,1-1-1V3.38Zm4.12,15.29-2-2h0A3,3,0,0,0,20,18a3,3,0,1,0-3,3,3,3,0,0,0,1.29-.3h0l2,2a1,1,0,0,0,1.42,0A1,1,0,0,0,21.71,21.29ZM17,19a1,1,0,1,1,1-1A1,1,0,0,1,17,19Z"/></g></svg>