<svg xmlns="http://www.w3.org/2000/svg" viewBox="0 0 24 24"><defs><style>.cls-1{fill:#231f20;}</style></defs><g id="Layer_91" data-name="Layer 91"><path class="cls-1" d="M12,21H5a1,1,0,0,1-1-1V4A1,1,0,0,1,5,3h6V5a3,3,0,0,0,3,3h2v5a1,1,0,0,0,2,0V6.82a3,3,0,0,0-.87-2.1l-2.8-2.84A3,3,0,0,0,12.2,1H5A3,3,0,0,0,2,4V20a3,3,0,0,0,3,3h7a1,1,0,0,0,0-2ZM15.59,6H14a1,1,0,0,1-1-1V3.38ZM21,19V18a3,3,0,0,0-6,0v1a1,1,0,0,0-1,1v2a1,1,0,0,0,1,1h6a1,1,0,0,0,1-1V20A1,1,0,0,0,21,19Zm-4-1a1,1,0,0,1,2,0v1H17Z"/></g></svg>