<svg xmlns="http://www.w3.org/2000/svg" viewBox="0 0 24 24"><defs><style>.cls-1{fill:#231f20;}</style></defs><g id="Layer_80" data-name="Layer 80"><path class="cls-1" d="M19.13,4.71l-2.8-2.82A3,3,0,0,0,14.2,1H7A3,3,0,0,0,4,4V20a3,3,0,0,0,3,3H17a3,3,0,0,0,3-3V6.82A3,3,0,0,0,19.13,4.71ZM17.59,6H16a1,1,0,0,1-1-1V3.39ZM17,21H7a1,1,0,0,1-1-1V4A1,1,0,0,1,7,3h6V5a3,3,0,0,0,3,3h2V20A1,1,0,0,1,17,21Zm-.76-8.83a1,1,0,0,1,0,1.42L12,17.83a1,1,0,0,1-.39.24l-2.12.71a1.19,1.19,0,0,1-.32,0,1,1,0,0,1-.95-1.32l.71-2.12A1,1,0,0,1,9.17,15l4.24-4.24a1,1,0,0,1,1.42,0Z"/></g></svg>