<svg xmlns="http://www.w3.org/2000/svg" viewBox="0 0 24 24"><defs><style>.cls-1{fill:#231f20;}</style></defs><g id="Layer_83" data-name="Layer 83"><path class="cls-1" d="M13,21H6a1,1,0,0,1-1-1V4A1,1,0,0,1,6,3h6V5a3,3,0,0,0,3,3h2v5a1,1,0,0,0,2,0V6.82a3,3,0,0,0-.87-2.1l-2.8-2.84A3,3,0,0,0,13.2,1H6A3,3,0,0,0,3,4V20a3,3,0,0,0,3,3h7a1,1,0,0,0,0-2ZM16.59,6H15a1,1,0,0,1-1-1V3.38Zm4.18,14.41a1,1,0,0,1,0,1.42,1,1,0,0,1-1.42,0l-1.41-1.42-1.41,1.42a1,1,0,0,1-.71.29,1,1,0,0,1-.71-.29,1,1,0,0,1,0-1.42L16.53,19l-1.42-1.41a1,1,0,0,1,1.42-1.42l1.41,1.42,1.41-1.42a1,1,0,0,1,1.42,1.42L19.35,19Z"/></g></svg>