<svg xmlns="http://www.w3.org/2000/svg" viewBox="0 0 24 24"><defs><style>.cls-1{fill:#231f20;}</style></defs><g id="Layer_89" data-name="Layer 89"><path class="cls-1" d="M12,21H5a1,1,0,0,1-1-1V4A1,1,0,0,1,5,3h6V5a3,3,0,0,0,3,3h2v5a1,1,0,0,0,2,0V6.82a3,3,0,0,0-.87-2.1l-2.8-2.84A3,3,0,0,0,12.2,1H5A3,3,0,0,0,2,4V20a3,3,0,0,0,3,3h7a1,1,0,0,0,0-2ZM13,3.38,15.59,6H14a1,1,0,0,1-1-1Zm7.67,15.43-1.32,1,.5,1.55a1,1,0,0,1-.36,1.12,1.06,1.06,0,0,1-.59.19,1.09,1.09,0,0,1-.59-.19l-1.31-1-1.31,1a1,1,0,0,1-1.18,0,1,1,0,0,1-.36-1.12l.5-1.55-1.32-1A1,1,0,0,1,13,17.69a1,1,0,0,1,.95-.69h1.63l.5-1.54a1,1,0,0,1,1.9,0l.5,1.54h1.63a1,1,0,0,1,1,.69A1,1,0,0,1,20.67,18.81Z"/></g></svg>