<svg xmlns="http://www.w3.org/2000/svg" viewBox="0 0 24 24"><defs><style>.cls-1{fill:#231f20;}</style></defs><g id="Layer_96" data-name="Layer 96"><path class="cls-1" d="M20,6H13.07a1,1,0,0,1-.83-.45l-.81-1.21A3,3,0,0,0,8.93,3H4A3,3,0,0,0,1,6V19a3,3,0,0,0,3,3H20a3,3,0,0,0,3-3V9A3,3,0,0,0,20,6Zm1,13a1,1,0,0,1-1,1H4a1,1,0,0,1-1-1V6A1,1,0,0,1,4,5H8.93a1,1,0,0,1,.83.45l.81,1.21A3,3,0,0,0,13.07,8H20a1,1,0,0,1,1,1Zm-5-5a1,1,0,0,1-1,1H13v2a1,1,0,0,1-2,0V15H9a1,1,0,0,1,0-2h2V11a1,1,0,0,1,2,0v2h2A1,1,0,0,1,16,14Z"/></g></svg>