<svg xmlns="http://www.w3.org/2000/svg" viewBox="0 0 24 24"><defs><style>.cls-1{fill:#231f20;}</style></defs><g id="Layer_114" data-name="Layer 114"><path class="cls-1" d="M21.84,15.91a1,1,0,0,1,0,1.41L19,20.11a1,1,0,0,1-.7.29,1,1,0,0,1-.71-.3l-1.38-1.38a1,1,0,0,1,0-1.41,1,1,0,0,1,1.42,0l.68.68,2.15-2.1A1,1,0,0,1,21.84,15.91ZM20,4H13.07a1,1,0,0,1-.83-.45l-.82-1.21A3,3,0,0,0,8.93,1H4A3,3,0,0,0,1,4V17a3,3,0,0,0,3,3h9a1,1,0,0,0,0-2H4a1,1,0,0,1-1-1V4A1,1,0,0,1,4,3H8.93a1,1,0,0,1,.83.45l.82,1.21A3,3,0,0,0,13.07,6H20a1,1,0,0,1,1,1v6.81a1,1,0,1,0,2,0V7A3,3,0,0,0,20,4Z"/></g></svg>