<svg xmlns="http://www.w3.org/2000/svg" viewBox="0 0 24 24"><defs><style>.cls-1{fill:#231f20;}</style></defs><g id="Layer_107" data-name="Layer 107"><path class="cls-1" d="M20,6H13.07a1,1,0,0,1-.83-.45l-.81-1.21A3,3,0,0,0,8.93,3H4A3,3,0,0,0,1,6V19a3,3,0,0,0,3,3H20a3,3,0,0,0,3-3V9A3,3,0,0,0,20,6Zm1,13a1,1,0,0,1-1,1H4a1,1,0,0,1-1-1V6A1,1,0,0,1,4,5H8.93a1,1,0,0,1,.83.45l.81,1.21A3,3,0,0,0,13.07,8H20a1,1,0,0,1,1,1Zm-9-8c-2.13,0-3.66,2.19-3.83,2.44a1,1,0,0,0,0,1.12C8.34,14.81,9.87,17,12,17s3.66-2.19,3.83-2.44a1,1,0,0,0,0-1.12C15.66,13.19,14.13,11,12,11Zm0,4a2.72,2.72,0,0,1-1.71-1A2.77,2.77,0,0,1,12,13a2.75,2.75,0,0,1,1.71,1A2.77,2.77,0,0,1,12,15Z"/></g></svg>