<svg xmlns="http://www.w3.org/2000/svg" viewBox="0 0 24 24"><defs><style>.cls-1{fill:#231f20;}</style></defs><g id="Layer_99" data-name="Layer 99"><path class="cls-1" d="M14.72,12.3A1,1,0,0,1,14,14H13v3a1,1,0,0,1-2,0V14H10a1,1,0,0,1-.7-1.72l2.07-2a1.05,1.05,0,0,1,.71-.28,1,1,0,0,1,.7.3ZM23,9V19a3,3,0,0,1-3,3H4a3,3,0,0,1-3-3V6A3,3,0,0,1,4,3H8.93a3,3,0,0,1,2.5,1.34l.81,1.21a1,1,0,0,0,.83.45H20A3,3,0,0,1,23,9ZM21,9a1,1,0,0,0-1-1H13.07a3,3,0,0,1-2.5-1.34L9.76,5.45A1,1,0,0,0,8.93,5H4A1,1,0,0,0,3,6V19a1,1,0,0,0,1,1H20a1,1,0,0,0,1-1Z"/></g></svg>