<svg xmlns="http://www.w3.org/2000/svg" viewBox="0 0 24 24"><defs><style>.cls-1{fill:#231f20;}</style></defs><g id="Layer_121" data-name="Layer 121"><path class="cls-1" d="M23,7v6.81a1,1,0,1,1-2,0V7a1,1,0,0,0-1-1H13.07a3,3,0,0,1-2.49-1.34L9.76,3.45A1,1,0,0,0,8.93,3H4A1,1,0,0,0,3,4V17a1,1,0,0,0,1,1h9a1,1,0,0,1,0,2H4a3,3,0,0,1-3-3V4A3,3,0,0,1,4,1H8.93a3,3,0,0,1,2.49,1.34l.82,1.21a1,1,0,0,0,.83.45H20A3,3,0,0,1,23,7Zm-1.88,8.7a1,1,0,0,0-1.42,0l-3.53,3.54a.92.92,0,0,0-.24.39l-.59,1.76a1,1,0,0,0,.95,1.32,1.13,1.13,0,0,0,.32-.05l1.76-.59a.92.92,0,0,0,.39-.24L22.3,18.3a1.05,1.05,0,0,0,.29-.71,1,1,0,0,0-.29-.71Z"/></g></svg>