<svg xmlns="http://www.w3.org/2000/svg" viewBox="0 0 24 24"><defs><style>.cls-1{fill:#231f20;}</style></defs><g id="Layer_116" data-name="Layer 116"><path class="cls-1" d="M22.72,18.87a1,1,0,0,1,.28.71,1,1,0,0,1-.3.7l-2,1.94a1.05,1.05,0,0,1-.7.28,1.09,1.09,0,0,1-.39-.08A1,1,0,0,1,19,21.5v-1H16a1,1,0,0,1,0-2h3v-1a1,1,0,0,1,1.72-.7ZM20,4.5H13.07a1,1,0,0,1-.83-.45l-.82-1.21A3,3,0,0,0,8.93,1.5H4a3,3,0,0,0-3,3v13a3,3,0,0,0,3,3h9a1,1,0,0,0,0-2H4a1,1,0,0,1-1-1V4.5a1,1,0,0,1,1-1H8.93A1,1,0,0,1,9.76,4l.82,1.21A3,3,0,0,0,13.07,6.5H20a1,1,0,0,1,1,1v6.81a1,1,0,1,0,2,0V7.5A3,3,0,0,0,20,4.5Z"/></g></svg>