<svg xmlns="http://www.w3.org/2000/svg" viewBox="0 0 24 24"><defs><style>.cls-1{fill:#231f20;}</style></defs><g id="Layer_33" data-name="Layer 33"><path class="cls-1" d="M8,1H4A3,3,0,0,0,1,4V6A3,3,0,0,0,4,9H8a3,3,0,0,0,3-3V4A3,3,0,0,0,8,1ZM9,6A1,1,0,0,1,8,7H4A1,1,0,0,1,3,6V4A1,1,0,0,1,4,3H8A1,1,0,0,1,9,4ZM20,1H16a3,3,0,0,0-3,3v6a3,3,0,0,0,3,3h4a3,3,0,0,0,3-3V4A3,3,0,0,0,20,1Zm1,9a1,1,0,0,1-1,1H16a1,1,0,0,1-1-1V4a1,1,0,0,1,1-1h4a1,1,0,0,1,1,1ZM8,11H4a3,3,0,0,0-3,3v6a3,3,0,0,0,3,3H8a3,3,0,0,0,3-3V14A3,3,0,0,0,8,11Zm1,9a1,1,0,0,1-1,1H4a1,1,0,0,1-1-1V14a1,1,0,0,1,1-1H8a1,1,0,0,1,1,1Zm11-5H16a3,3,0,0,0-3,3v2a3,3,0,0,0,3,3h4a3,3,0,0,0,3-3V18A3,3,0,0,0,20,15Zm1,5a1,1,0,0,1-1,1H16a1,1,0,0,1-1-1V18a1,1,0,0,1,1-1h4a1,1,0,0,1,1,1Z"/></g></svg>