<svg xmlns="http://www.w3.org/2000/svg" viewBox="0 0 24 24"><defs><style>.cls-1{fill:#231f20;}</style></defs><g id="Layer_32" data-name="Layer 32"><path class="cls-1" d="M8,11H4A3,3,0,0,1,1,8V4A3,3,0,0,1,4,1H8a3,3,0,0,1,3,3V8A3,3,0,0,1,8,11ZM4,3A1,1,0,0,0,3,4V8A1,1,0,0,0,4,9H8A1,1,0,0,0,9,8V4A1,1,0,0,0,8,3Zm16,8H16a3,3,0,0,1-3-3V4a3,3,0,0,1,3-3h4a3,3,0,0,1,3,3V8A3,3,0,0,1,20,11ZM16,3a1,1,0,0,0-1,1V8a1,1,0,0,0,1,1h4a1,1,0,0,0,1-1V4a1,1,0,0,0-1-1ZM8,23H4a3,3,0,0,1-3-3V16a3,3,0,0,1,3-3H8a3,3,0,0,1,3,3v4A3,3,0,0,1,8,23ZM4,15a1,1,0,0,0-1,1v4a1,1,0,0,0,1,1H8a1,1,0,0,0,1-1V16a1,1,0,0,0-1-1Zm16,8H16a3,3,0,0,1-3-3V16a3,3,0,0,1,3-3h4a3,3,0,0,1,3,3v4A3,3,0,0,1,20,23Zm-4-8a1,1,0,0,0-1,1v4a1,1,0,0,0,1,1h4a1,1,0,0,0,1-1V16a1,1,0,0,0-1-1Z"/></g></svg>