<svg xmlns="http://www.w3.org/2000/svg" viewBox="0 0 24 24"><defs><style>.cls-1{fill:#231f20;}</style></defs><g id="Layer_19" data-name="Layer 19"><path class="cls-1" d="M11.61,6.06A6,6,0,0,1,23,8.72a9.63,9.63,0,0,1-2.41,5.69A1,1,0,0,1,19,13.19a7.84,7.84,0,0,0,2-4.47A4,4,0,0,0,13.41,7a1,1,0,1,1-1.8-.9Zm11.1,15.23a1,1,0,0,1,0,1.42,1,1,0,0,1-1.42,0l-4.44-4.45c-1.18,1-2.31,1.89-3.1,2.46a3,3,0,0,1-3.5,0C6.8,18.22,1,13.33,1,8.72A5.94,5.94,0,0,1,2.92,4.33L1.29,2.71A1,1,0,0,1,2.71,1.29Zm-7.28-4.45L4.33,5.75A3.94,3.94,0,0,0,3,8.72c0,2.68,3.15,6.56,8.43,10.38a1,1,0,0,0,1.14,0C13.31,18.57,14.35,17.78,15.43,16.84Z"/></g></svg>