<svg xmlns="http://www.w3.org/2000/svg" viewBox="0 0 24 24"><defs><style>.cls-1{fill:#231f20;}</style></defs><g id="Layer_9" data-name="Layer 9"><path class="cls-1" d="M21,4V20a2.91,2.91,0,0,1-2.8,3H11a1,1,0,0,1,0-2h7.2a.93.93,0,0,0,.8-1V4a.93.93,0,0,0-.8-1H11a1,1,0,0,1,0-2h7.2A2.91,2.91,0,0,1,21,4ZM11.17,14.41a1,1,0,0,0,0,1.42,1,1,0,0,0,.71.29,1,1,0,0,0,.71-.29l3.12-3.12a1,1,0,0,0,.21-.33,1,1,0,0,0,0-.76,1,1,0,0,0-.21-.33L12.59,8.17a1,1,0,1,0-1.42,1.42L12.59,11H4a1,1,0,0,0,0,2h8.59Z"/></g></svg>