<svg xmlns="http://www.w3.org/2000/svg" viewBox="0 0 24 24"><defs><style>.cls-1{fill:#231f20;}</style></defs><g id="Layer_58" data-name="Layer 58"><path class="cls-1" d="M7.92,11.62A1,1,0,0,1,8,12a1,1,0,0,1-.29.71A1.05,1.05,0,0,1,7,13l-.2,0-.18-.06-.18-.09a1.58,1.58,0,0,1-.15-.12,1.58,1.58,0,0,1-.12-.15.76.76,0,0,1-.09-.18A.64.64,0,0,1,6,12.2,1.36,1.36,0,0,1,6,12a1,1,0,0,1,.08-.38,1.15,1.15,0,0,1,.21-.33,1,1,0,0,1,1.42,0A1,1,0,0,1,7.92,11.62Zm4.79-.33a1,1,0,0,0-1.09-.21,1,1,0,0,0-.33.21,1.15,1.15,0,0,0-.21.33A.84.84,0,0,0,11,12a1.05,1.05,0,0,0,.29.71,1,1,0,0,0,.33.21A1,1,0,0,0,12,13a1,1,0,0,0,1-1,1,1,0,0,0-.08-.38A1.15,1.15,0,0,0,12.71,11.29Zm5,0a1,1,0,0,0-1.42,0,1.15,1.15,0,0,0-.21.33A1,1,0,0,0,16,12a1,1,0,1,0,2,0,1,1,0,0,0-.08-.38A1.15,1.15,0,0,0,17.71,11.29ZM23,12A11,11,0,1,1,12,1,11,11,0,0,1,23,12Zm-2,0a9,9,0,1,0-9,9A9,9,0,0,0,21,12Z"/></g></svg>