<svg xmlns="http://www.w3.org/2000/svg" viewBox="0 0 24 24"><defs><style>.cls-1{fill:#231f20;}</style></defs><g id="Layer_48" data-name="Layer 48"><path class="cls-1" d="M20,1H4A3,3,0,0,0,1,4V20a3,3,0,0,0,3,3H20a3,3,0,0,0,3-3V4A3,3,0,0,0,20,1Zm1,19a1,1,0,0,1-1,1H4a1,1,0,0,1-1-1V4A1,1,0,0,1,4,3H20a1,1,0,0,1,1,1Zm-8-2a1,1,0,0,1-1,1,1,1,0,0,1-1-1v0a1,1,0,0,1,2,0Zm2.94-9.69a4,4,0,0,1-2.41,4.42.93.93,0,0,0-.53.88V14a1,1,0,0,1-2,0v-.42a2.91,2.91,0,0,1,1.76-2.73A2,2,0,1,0,10,9,1,1,0,0,1,8,9,4,4,0,0,1,9.43,5.94a4,4,0,0,1,6.51,2.34Z"/></g></svg>