<svg xmlns="http://www.w3.org/2000/svg" viewBox="0 0 24 24"><defs><style>.cls-1{fill:#231f20;}</style></defs><g id="Layer_44" data-name="Layer 44"><path class="cls-1" d="M20,1H4A3,3,0,0,0,1,4V20a3,3,0,0,0,3,3H20a3,3,0,0,0,3-3V4A3,3,0,0,0,20,1Zm1,19a1,1,0,0,1-1,1H4a1,1,0,0,1-1-1V4A1,1,0,0,1,4,3H20a1,1,0,0,1,1,1ZM17,8.46,13.41,12,17,15.54A1,1,0,0,1,17,17a1,1,0,0,1-.71.29,1,1,0,0,1-.7-.29L12,13.41,8.46,17a1,1,0,0,1-.7.29A1,1,0,0,1,7.05,17a1,1,0,0,1,0-1.41L10.59,12,7.05,8.46A1,1,0,0,1,8.46,7.05L12,10.59l3.54-3.54A1,1,0,0,1,17,8.46Z"/></g></svg>