<svg xmlns="http://www.w3.org/2000/svg" viewBox="0 0 24 24"><defs><style>.cls-1{fill:#231f20;}</style></defs><g id="Layer_11" data-name="Layer 11"><path class="cls-1" d="M12,8a4,4,0,1,0,4,4A4,4,0,0,0,12,8Zm0,6a2,2,0,1,1,2-2A2,2,0,0,1,12,14Zm8.7-5a.31.31,0,0,1-.29-.2c-.06-.16-.12-.32-.19-.48A.3.3,0,0,1,20.27,8a2.29,2.29,0,0,0,0-3.26l-1-1a2.35,2.35,0,0,0-3.26,0v0a.3.3,0,0,1-.34,0l-.48-.19A.31.31,0,0,1,15,3.3,2.3,2.3,0,0,0,12.7,1H11.3A2.3,2.3,0,0,0,9,3.3a.31.31,0,0,1-.2.29l-.48.19a.3.3,0,0,1-.34,0v0a2.35,2.35,0,0,0-3.26,0l-1,1A2.29,2.29,0,0,0,3.73,8a.3.3,0,0,1,0,.35c-.07.16-.13.32-.19.47A.31.31,0,0,1,3.3,9,2.3,2.3,0,0,0,1,11.3v1.4A2.3,2.3,0,0,0,3.3,15a.31.31,0,0,1,.29.2c.06.16.12.32.19.48a.3.3,0,0,1,0,.35,2.29,2.29,0,0,0,0,3.26l1,1a2.35,2.35,0,0,0,3.26,0v0a.3.3,0,0,1,.34,0l.48.19a.31.31,0,0,1,.2.29A2.3,2.3,0,0,0,11.3,23h1.4A2.3,2.3,0,0,0,15,20.7a.31.31,0,0,1,.2-.29l.48-.19a.3.3,0,0,1,.34,0v0a2.35,2.35,0,0,0,3.26,0l1-1a2.29,2.29,0,0,0,0-3.26.3.3,0,0,1-.05-.35c.07-.16.13-.32.19-.47A.31.31,0,0,1,20.7,15,2.3,2.3,0,0,0,23,12.7V11.3A2.3,2.3,0,0,0,20.7,9Zm.3,3.7a.31.31,0,0,1-.3.3,2.3,2.3,0,0,0-2.16,1.49,2.39,2.39,0,0,1-.15.37,2.29,2.29,0,0,0,.47,2.59.3.3,0,0,1,.09.21.33.33,0,0,1-.09.22l-1,1a.26.26,0,0,1-.42,0l0,0a2.29,2.29,0,0,0-2.58-.46,2.39,2.39,0,0,1-.37.15A2.29,2.29,0,0,0,13,20.7a.31.31,0,0,1-.3.3H11.3a.31.31,0,0,1-.3-.3,2.29,2.29,0,0,0-1.49-2.16,2.39,2.39,0,0,1-.37-.15,2.34,2.34,0,0,0-1-.21,2.28,2.28,0,0,0-1.62.67l0,0c-.16.16-.28.12-.42,0l-1-1a.31.31,0,0,1,0-.44,2.28,2.28,0,0,0,.47-2.58,2.39,2.39,0,0,1-.15-.37A2.3,2.3,0,0,0,3.3,13a.31.31,0,0,1-.3-.3V11.3a.31.31,0,0,1,.3-.3A2.3,2.3,0,0,0,5.46,9.51a2.39,2.39,0,0,1,.15-.37,2.29,2.29,0,0,0-.47-2.59.3.3,0,0,1-.09-.21.33.33,0,0,1,.09-.22l1-1a.26.26,0,0,1,.42,0l0,0a2.29,2.29,0,0,0,2.58.46,2.39,2.39,0,0,1,.37-.15A2.29,2.29,0,0,0,11,3.3a.31.31,0,0,1,.3-.3h1.4a.31.31,0,0,1,.3.3,2.29,2.29,0,0,0,1.49,2.16h0a2.39,2.39,0,0,1,.37.15,2.29,2.29,0,0,0,2.58-.46l0,0a.26.26,0,0,1,.42,0l1,1a.31.31,0,0,1,0,.44,2.28,2.28,0,0,0-.47,2.58,2.39,2.39,0,0,1,.15.37A2.3,2.3,0,0,0,20.7,11a.31.31,0,0,1,.3.3Z"/></g></svg>