<svg xmlns="http://www.w3.org/2000/svg" viewBox="0 0 24 24"><defs><style>.cls-1{fill:#231f20;}</style></defs><g id="Layer_23" data-name="Layer 23"><path class="cls-1" d="M9.48,4.12,9.85,3a2.26,2.26,0,0,1,4.3,0l1.5,4.6a.27.27,0,0,0,.25.18h4.84a2.27,2.27,0,0,1,1.33,4.1l-2.56,1.86a1,1,0,0,1-.59.19,1,1,0,0,1-.81-.41,1,1,0,0,1,.22-1.4l2.56-1.86A.24.24,0,0,0,21,10a.25.25,0,0,0-.25-.18H15.9a2.24,2.24,0,0,1-2.16-1.58L12.25,3.61a.26.26,0,0,0-.5,0l-.37,1.13a1,1,0,0,1-1.9-.62ZM22.71,21.29a1,1,0,0,1,0,1.42,1,1,0,0,1-1.42,0L19.57,21a2.25,2.25,0,0,1-3.49,1.16l-3.93-2.85a.24.24,0,0,0-.3,0L7.93,22.14a2.26,2.26,0,0,1-3.48-2.53L6,15a.28.28,0,0,0-.1-.29L1.93,11.87a2.27,2.27,0,0,1,1.33-4.1h3.1L1.29,2.71A1,1,0,0,1,2.71,1.29ZM17.08,18.5,8.33,9.74a1.81,1.81,0,0,1-.23,0H3.26A.25.25,0,0,0,3,10a.24.24,0,0,0,.1.3L7,13.09a2.24,2.24,0,0,1,.82,2.53l-1.5,4.61a.24.24,0,0,0,.09.29.27.27,0,0,0,.32,0l3.91-2.85a2.25,2.25,0,0,1,2.66,0l3.92,2.85a.25.25,0,0,0,.31,0,.24.24,0,0,0,.09-.29Z"/></g></svg>