<svg xmlns="http://www.w3.org/2000/svg" viewBox="0 0 24 24"><defs><style>.cls-1{fill:#231f20;}</style></defs><g id="Layer_22" data-name="Layer 22"><path class="cls-1" d="M22.89,9.56A2.23,2.23,0,0,0,20.74,8H15.9a.25.25,0,0,1-.25-.18l-1.5-4.6a2.26,2.26,0,0,0-4.3,0l-1.5,4.6A.25.25,0,0,1,8.1,8H3.26a2.26,2.26,0,0,0-1.33,4.09l3.92,2.85a.27.27,0,0,1,.1.29l-1.5,4.6a2.26,2.26,0,0,0,3.48,2.53l3.92-2.84a.24.24,0,0,1,.3,0l3.92,2.84a2.28,2.28,0,0,0,1.33.44,2.3,2.3,0,0,0,1.33-.44,2.22,2.22,0,0,0,.82-2.53l-1.5-4.6a.27.27,0,0,1,.1-.29l3.92-2.85A2.23,2.23,0,0,0,22.89,9.56Zm-2,.91L17,13.32a2.27,2.27,0,0,0-.82,2.53l1.5,4.6a.24.24,0,0,1-.1.29.22.22,0,0,1-.3,0L13.33,17.9a2.27,2.27,0,0,0-2.66,0L6.75,20.74a.22.22,0,0,1-.3,0,.24.24,0,0,1-.1-.29l1.5-4.6A2.27,2.27,0,0,0,7,13.32L3.11,10.47a.25.25,0,0,1-.1-.29A.25.25,0,0,1,3.26,10H8.1a2.27,2.27,0,0,0,2.16-1.56l1.49-4.61a.26.26,0,0,1,.5,0l1.49,4.61A2.27,2.27,0,0,0,15.9,10h4.84a.25.25,0,0,1,.25.18A.25.25,0,0,1,20.89,10.47Z"/></g></svg>