<svg xmlns="http://www.w3.org/2000/svg" viewBox="0 0 24 24"><defs><style>.cls-1{fill:#231f20;}</style></defs><g id="Layer_41" data-name="Layer 41"><path class="cls-1" d="M20,1H4A3,3,0,0,0,1,4V20a3,3,0,0,0,3,3H20a3,3,0,0,0,3-3V4A3,3,0,0,0,20,1Zm1,19a1,1,0,0,1-1,1H4a1,1,0,0,1-1-1V4A1,1,0,0,1,4,3H20a1,1,0,0,1,1,1ZM19,7a1,1,0,0,1-1,1H11a1,1,0,0,1,0-2h7A1,1,0,0,1,19,7Zm0,5a1,1,0,0,1-1,1H11a1,1,0,0,1,0-2h7A1,1,0,0,1,19,12Zm0,5a1,1,0,0,1-1,1H11a1,1,0,0,1,0-2h7A1,1,0,0,1,19,17ZM8,17a1,1,0,0,1-1,1H6a1,1,0,0,1,0-2H7A1,1,0,0,1,8,17Zm0-5a1,1,0,0,1-1,1H6a1,1,0,0,1,0-2H7A1,1,0,0,1,8,12ZM8,7A1,1,0,0,1,7,8H6A1,1,0,0,1,6,6H7A1,1,0,0,1,8,7Z"/></g></svg>