<svg xmlns="http://www.w3.org/2000/svg" viewBox="0 0 24 24"><defs><style>.cls-1{fill:#231f20;}</style></defs><g id="Layer_10" data-name="Layer 10"><path class="cls-1" d="M21.45,18.66,14.68,5.13a3,3,0,0,0-5.36,0L2.55,18.66A3,3,0,0,0,5.24,23H18.76a3,3,0,0,0,2.69-4.34Zm-1.84,1.87a1,1,0,0,1-.85.47H5.24a1,1,0,0,1-.85-.47,1,1,0,0,1,0-1L11.11,6a1,1,0,0,1,1.78,0l6.77,13.53A1,1,0,0,1,19.61,20.53ZM13,10v5a1,1,0,0,1-2,0V10a1,1,0,0,1,2,0Zm-.29,7.29A1,1,0,0,1,12,19a1,1,0,0,1-.38-.08,1,1,0,0,1-.33-.21,1,1,0,0,1,0-1.42,1,1,0,0,1,.33-.21A1,1,0,0,1,12.71,17.29Z"/></g></svg>