<svg width="24" height="24" viewBox="0 0 24 24" fill="none" xmlns="http://www.w3.org/2000/svg">
<path d="M22 17H19V16C19.0012 15.8026 18.9439 15.6092 18.8353 15.4443C18.7268 15.2794 18.5718 15.1503 18.39 15.0733C18.2082 14.9963 18.0077 14.9749 17.8137 15.0116C17.6197 15.0484 17.441 15.1418 17.3 15.28L15.3 17.22C15.1116 17.4046 15.0038 17.6562 15 17.92C14.9958 18.1844 15.0965 18.4397 15.28 18.63L17.28 20.7C17.4187 20.8439 17.5973 20.943 17.7929 20.9844C17.9884 21.0258 18.1919 21.0076 18.377 20.9323C18.5621 20.857 18.7204 20.7279 18.8315 20.5617C18.9425 20.3955 19.0012 20.1999 19 20V19H22C22.2652 19 22.5196 18.8947 22.7071 18.7071C22.8946 18.5196 23 18.2652 23 18C23 17.7348 22.8946 17.4804 22.7071 17.2929C22.5196 17.1054 22.2652 17 22 17Z" fill="black"/>
<path d="M23 7V12C23 12.2652 22.8946 12.5196 22.7071 12.7071C22.5196 12.8946 22.2652 13 22 13H19C17.4087 13 15.8826 13.6321 14.7574 14.7574C13.6321 15.8826 13 17.4087 13 19C13 19.2652 12.8946 19.5196 12.7071 19.7071C12.5196 19.8946 12.2652 20 12 20H3.94C3.16026 20 2.41246 19.6903 1.86111 19.1389C1.30975 18.5875 1 17.8397 1 17.06V4C1 3.20435 1.31607 2.44129 1.87868 1.87868C2.44129 1.31607 3.20435 1 4 1H8.93C9.41972 1.00089 9.90177 1.12166 10.3341 1.35175C10.7664 1.58185 11.1358 1.91427 11.41 2.32L12.24 3.56C12.3327 3.69712 12.4579 3.8091 12.6045 3.8859C12.7511 3.96269 12.9145 4.0019 13.08 4H20C20.7956 4 21.5587 4.31607 22.1213 4.87868C22.6839 5.44129 23 6.20435 23 7V7Z" fill="black"/>
</svg>
