<svg width="24" height="24" viewBox="0 0 24 24" fill="none" xmlns="http://www.w3.org/2000/svg">
<path d="M20 5.5H13.07C12.9053 5.49915 12.7433 5.45763 12.5985 5.37912C12.4538 5.30062 12.3306 5.18756 12.24 5.05L11.43 3.84C11.1562 3.42776 10.7846 3.08968 10.3484 2.85587C9.91217 2.62207 9.42491 2.49982 8.93 2.5H4C3.20435 2.5 2.44129 2.81607 1.87868 3.37868C1.31607 3.94129 1 4.70435 1 5.5V18.5C1 19.2956 1.31607 20.0587 1.87868 20.6213C2.44129 21.1839 3.20435 21.5 4 21.5H20C20.7956 21.5 21.5587 21.1839 22.1213 20.6213C22.6839 20.0587 23 19.2956 23 18.5V8.5C23 7.70435 22.6839 6.94129 22.1213 6.37868C21.5587 5.81607 20.7956 5.5 20 5.5ZM14.7 15.22L12.63 17.22C12.4446 17.3987 12.1975 17.499 11.94 17.5C11.6762 17.4962 11.4246 17.3884 11.24 17.2L9.3 15.2C9.16296 15.0602 9.06995 14.8833 9.03251 14.6912C8.99507 14.499 9.01484 14.3002 9.08937 14.1192C9.1639 13.9381 9.28991 13.783 9.45179 13.6729C9.61366 13.5629 9.80427 13.5027 10 13.5H11V10.5C11 10.2348 11.1054 9.98043 11.2929 9.79289C11.4804 9.60536 11.7348 9.5 12 9.5C12.2652 9.5 12.5196 9.60536 12.7071 9.79289C12.8946 9.98043 13 10.2348 13 10.5V13.5H14C14.1999 13.4988 14.3955 13.5575 14.5617 13.6686C14.7279 13.7796 14.8569 13.9379 14.9323 14.123C15.0076 14.3081 15.0258 14.5116 14.9844 14.7071C14.943 14.9027 14.8439 15.0813 14.7 15.22Z" fill="black"/>
</svg>
