<svg width="24" height="24" viewBox="0 0 24 24" fill="none" xmlns="http://www.w3.org/2000/svg">
<path d="M21 4V20C21.0243 20.7685 20.7435 21.5155 20.2188 22.0776C19.6942 22.6397 18.9684 22.9713 18.2 23H13C12.2044 23 11.4413 22.6839 10.8787 22.1213C10.3161 21.5587 10 20.7956 10 20V13H14.59L13.17 14.41C13.0763 14.503 13.0019 14.6136 12.9511 14.7354C12.9003 14.8573 12.8742 14.988 12.8742 15.12C12.8742 15.252 12.9003 15.3827 12.9511 15.5046C13.0019 15.6264 13.0763 15.737 13.17 15.83C13.2634 15.9227 13.3743 15.996 13.4961 16.0458C13.6179 16.0955 13.7484 16.1208 13.88 16.12C14.0116 16.1208 14.1421 16.0955 14.2639 16.0458C14.3857 15.996 14.4966 15.9227 14.59 15.83L17.71 12.71C17.8 12.6178 17.8713 12.5092 17.92 12.39C17.9289 12.3438 17.9289 12.2962 17.92 12.25C17.9701 12.0871 17.9701 11.9129 17.92 11.75C17.9289 11.7038 17.9289 11.6562 17.92 11.61C17.8713 11.4908 17.8 11.3822 17.71 11.29L14.59 8.17C14.4017 7.9817 14.1463 7.87591 13.88 7.87591C13.6137 7.87591 13.3583 7.9817 13.17 8.17C12.9817 8.3583 12.8759 8.6137 12.8759 8.88C12.8759 9.1463 12.9817 9.4017 13.17 9.59L14.59 11H10V4C10 3.20435 10.3161 2.44129 10.8787 1.87868C11.4413 1.31607 12.2044 1 13 1H18.2C18.9684 1.02868 19.6942 1.36031 20.2188 1.92243C20.7435 2.48455 21.0243 3.23147 21 4V4ZM6 11C5.73478 11 5.48043 11.1054 5.29289 11.2929C5.10536 11.4804 5 11.7348 5 12C5 12.2652 5.10536 12.5196 5.29289 12.7071C5.48043 12.8946 5.73478 13 6 13H10V11H6Z" fill="black"/>
</svg>
