<svg width="24" height="24" viewBox="0 0 24 24" fill="none" xmlns="http://www.w3.org/2000/svg">
<path d="M21.45 18.66L14.68 5.12997C14.4302 4.63337 14.0473 4.21595 13.5741 3.92427C13.1009 3.6326 12.5559 3.47815 12 3.47815C11.4441 3.47815 10.8992 3.6326 10.426 3.92427C9.95273 4.21595 9.56985 4.63337 9.32003 5.12997L2.55003 18.66C2.32147 19.1178 2.21381 19.6265 2.23729 20.1377C2.26078 20.6488 2.41463 21.1455 2.68421 21.5805C2.9538 22.0154 3.33016 22.3742 3.7775 22.6226C4.22485 22.8711 4.72832 23.001 5.24003 23H18.76C19.2717 23.001 19.7752 22.8711 20.2226 22.6226C20.6699 22.3742 21.0463 22.0154 21.3159 21.5805C21.5854 21.1455 21.7393 20.6488 21.7628 20.1377C21.7863 19.6265 21.6786 19.1178 21.45 18.66V18.66ZM12.71 18.71C12.5184 18.8927 12.2648 18.9963 12 19C11.8694 18.9984 11.7403 18.9712 11.62 18.92C11.4973 18.8724 11.3851 18.801 11.29 18.71C11.1963 18.617 11.1219 18.5064 11.0711 18.3845C11.0204 18.2627 10.9942 18.132 10.9942 18C10.9942 17.868 11.0204 17.7372 11.0711 17.6154C11.1219 17.4935 11.1963 17.3829 11.29 17.29C11.3851 17.1989 11.4973 17.1276 11.62 17.08C11.8021 17.0034 12.0029 16.9825 12.1968 17.0198C12.3908 17.0572 12.5694 17.1512 12.71 17.29C12.8038 17.3829 12.8782 17.4935 12.9289 17.6154C12.9797 17.7372 13.0058 17.868 13.0058 18C13.0058 18.132 12.9797 18.2627 12.9289 18.3845C12.8782 18.5064 12.8038 18.617 12.71 18.71V18.71ZM13 15C13 15.2652 12.8947 15.5195 12.7071 15.7071C12.5196 15.8946 12.2652 16 12 16C11.7348 16 11.4805 15.8946 11.2929 15.7071C11.1054 15.5195 11 15.2652 11 15V9.99997C11 9.73475 11.1054 9.4804 11.2929 9.29286C11.4805 9.10532 11.7348 8.99997 12 8.99997C12.2652 8.99997 12.5196 9.10532 12.7071 9.29286C12.8947 9.4804 13 9.73475 13 9.99997V15Z" fill="black"/>
</svg>
