<svg width="24" height="24" viewBox="0 0 24 24" fill="none" xmlns="http://www.w3.org/2000/svg">
<path d="M8.21001 6C8.15947 5.87794 8.13362 5.74708 8.13395 5.61498C8.13427 5.48288 8.16077 5.35215 8.21191 5.23034C8.26305 5.10854 8.33782 4.99807 8.43189 4.90533C8.52597 4.81258 8.63749 4.7394 8.76001 4.69C9.78615 4.25556 10.8859 4.02135 12 4C16.42 4 20.09 7.86 21.89 10.15C22.3061 10.6788 22.5323 11.3321 22.5323 12.005C22.5323 12.6779 22.3061 13.3312 21.89 13.86C21.83 13.95 21.72 14.07 21.61 14.2L21.5 14.33C21.407 14.4447 21.2896 14.5374 21.1565 14.6014C21.0234 14.6653 20.8777 14.699 20.73 14.7C20.4989 14.7034 20.2746 14.6215 20.1 14.47C19.897 14.3021 19.7684 14.0609 19.7421 13.7988C19.7159 13.5366 19.7942 13.2747 19.96 13.07L20.07 12.92C20.1531 12.8321 20.2299 12.7386 20.3 12.64C20.4395 12.4635 20.5154 12.245 20.5154 12.02C20.5154 11.795 20.4395 11.5765 20.3 11.4C19.05 9.77 15.71 6 12 6C11.1468 6.01444 10.3046 6.19444 9.52001 6.53C9.27599 6.63323 9.00097 6.63539 8.75536 6.53602C8.50974 6.43665 8.3136 6.24387 8.21001 6ZM22.82 19.57C22.7281 19.7025 22.6056 19.8107 22.4628 19.8856C22.32 19.9605 22.1612 19.9997 22 20C21.7961 19.9995 21.5972 19.9367 21.43 19.82L18.2 17.56C16.4668 19.0478 14.2824 19.9075 12 20C7.58001 20 3.91001 16.14 2.11001 13.85C1.69395 13.3212 1.46776 12.6679 1.46776 11.995C1.46776 11.3221 1.69395 10.6688 2.11001 10.14C2.76197 9.30586 3.4703 8.51735 4.23001 7.78L1.43001 5.78C1.26914 5.61185 1.17195 5.39286 1.15519 5.16075C1.13842 4.92865 1.20313 4.69796 1.33817 4.50844C1.4732 4.31892 1.67011 4.18242 1.89496 4.12247C2.11982 4.06252 2.35854 4.08286 2.57001 4.18L22.57 18.18C22.7872 18.3314 22.9355 18.5628 22.9823 18.8233C23.0292 19.0839 22.9708 19.3524 22.82 19.57ZM14.6 15L12.84 13.77C12.5387 13.9095 12.2074 13.9719 11.876 13.9514C11.5446 13.9309 11.2235 13.8282 10.9417 13.6525C10.6599 13.4769 10.4262 13.2339 10.2618 12.9454C10.0974 12.6569 10.0074 12.332 10 12C9.99512 11.9736 9.99512 11.9464 10 11.92C9.98997 11.8943 9.98997 11.8657 10 11.84L9.19001 11.27L8.25001 10.61C8.08299 11.0543 7.99828 11.5253 8.00001 12C8.00754 12.7613 8.23215 13.5046 8.64747 14.1426C9.06278 14.7806 9.65154 15.2869 10.3446 15.6019C11.0377 15.9169 11.8062 16.0276 12.56 15.921C13.3138 15.8144 14.0215 15.4949 14.6 15V15Z" fill="black"/>
</svg>
