<svg width="24" height="24" viewBox="0 0 24 24" fill="none" xmlns="http://www.w3.org/2000/svg">
<path d="M20 6H13.07C12.9053 5.99915 12.7433 5.95763 12.5985 5.87912C12.4538 5.80062 12.3306 5.68756 12.24 5.55L11.43 4.34C11.1562 3.92776 10.7846 3.58968 10.3484 3.35587C9.91217 3.12207 9.42491 2.99982 8.93 3H4C3.20435 3 2.44129 3.31607 1.87868 3.87868C1.31607 4.44129 1 5.20435 1 6V19C1 19.7956 1.31607 20.5587 1.87868 21.1213C2.44129 21.6839 3.20435 22 4 22H20C20.7956 22 21.5587 21.6839 22.1213 21.1213C22.6839 20.5587 23 19.7956 23 19V9C23 8.20435 22.6839 7.44129 22.1213 6.87868C21.5587 6.31607 20.7956 6 20 6ZM14.92 13.39C14.8434 13.5707 14.7154 13.725 14.5518 13.8334C14.3882 13.9419 14.1963 13.9998 14 14H13V17C13 17.2652 12.8946 17.5196 12.7071 17.7071C12.5196 17.8946 12.2652 18 12 18C11.7348 18 11.4804 17.8946 11.2929 17.7071C11.1054 17.5196 11 17.2652 11 17V14H10C9.80014 14.0012 9.6045 13.9425 9.43832 13.8314C9.27215 13.7204 9.14306 13.5621 9.06772 13.377C8.99238 13.1919 8.97424 12.9884 9.01565 12.7929C9.05705 12.5973 9.15609 12.4187 9.3 12.28L11.37 10.28C11.5632 10.1009 11.8166 10.001 12.08 10C12.3438 10.0038 12.5954 10.1116 12.78 10.3L14.72 12.3C14.8571 12.4417 14.9492 12.6208 14.9848 12.8148C15.0204 13.0087 14.9978 13.2088 14.92 13.39Z" fill="black"/>
</svg>
