<svg width="24" height="24" viewBox="0 0 24 24" fill="none" xmlns="http://www.w3.org/2000/svg">
<path d="M22.89 7.45002C22.8069 7.61494 22.6797 7.75362 22.5226 7.8507C22.3655 7.94778 22.1846 7.99946 22 8.00002C21.8431 8.0019 21.6883 7.96406 21.55 7.89002L12 3.12002L2.44997 7.89002C2.21688 7.98709 1.9557 7.99238 1.71886 7.90484C1.48203 7.81731 1.28707 7.64342 1.17314 7.41809C1.05921 7.19276 1.03474 6.93267 1.10463 6.69004C1.17453 6.44741 1.33363 6.2402 1.54997 6.11002L11.55 1.11002C11.6896 1.03969 11.8437 1.00305 12 1.00305C12.1563 1.00305 12.3104 1.03969 12.45 1.11002L22.45 6.11002C22.6855 6.22991 22.864 6.43815 22.9464 6.68924C23.0289 6.94034 23.0086 7.21385 22.89 7.45002V7.45002ZM12 5.12002L5.99997 8.12002L3.99997 9.12002V20C3.99997 20.7957 4.31604 21.5587 4.87865 22.1213C5.44126 22.684 6.20432 23 6.99997 23H9.99997V16C9.99997 15.7348 10.1053 15.4805 10.2929 15.2929C10.4804 15.1054 10.7348 15 11 15H13C13.2652 15 13.5195 15.1054 13.7071 15.2929C13.8946 15.4805 14 15.7348 14 16V23H17C17.7956 23 18.5587 22.684 19.1213 22.1213C19.6839 21.5587 20 20.7957 20 20V9.12002L18 8.12002L12 5.12002Z" fill="black"/>
</svg>
