<svg width="24" height="24" viewBox="0 0 24 24" fill="none" xmlns="http://www.w3.org/2000/svg">
<path d="M16 8C15.2044 8 14.4413 7.68393 13.8787 7.12132C13.3161 6.55871 13 5.79565 13 5V1H7C6.20435 1 5.44129 1.31607 4.87868 1.87868C4.31607 2.44129 4 3.20435 4 4V20C4 20.7956 4.31607 21.5587 4.87868 22.1213C5.44129 22.6839 6.20435 23 7 23H17C17.7956 23 18.5587 22.6839 19.1213 22.1213C19.6839 21.5587 20 20.7956 20 20V8H16ZM16.05 14.33L13.05 16.33C12.889 16.4428 12.6966 16.5022 12.5 16.5C12.3325 16.5008 12.1674 16.4596 12.02 16.38C11.8622 16.2937 11.7306 16.1663 11.6391 16.0115C11.5476 15.8566 11.4995 15.6799 11.5 15.5V14.5H8.5C8.23478 14.5 7.98043 14.3946 7.79289 14.2071C7.60536 14.0196 7.5 13.7652 7.5 13.5C7.5 13.2348 7.60536 12.9804 7.79289 12.7929C7.98043 12.6054 8.23478 12.5 8.5 12.5H11.5V11.5C11.4995 11.3201 11.5476 11.1434 11.6391 10.9885C11.7306 10.8337 11.8622 10.7063 12.02 10.62C12.1764 10.5397 12.3511 10.5021 12.5267 10.5108C12.7023 10.5196 12.8724 10.5745 13.02 10.67L16.02 12.67C16.1561 12.7615 16.2677 12.885 16.3448 13.0298C16.4219 13.1745 16.4622 13.336 16.4622 13.5C16.4622 13.664 16.4219 13.8255 16.3448 13.9702C16.2677 14.115 16.1561 14.2385 16.02 14.33H16.05ZM15 5V1.11C15.5037 1.24969 15.9622 1.51857 16.33 1.89L19.13 4.71C19.4847 5.06997 19.7426 5.5137 19.88 6H16C15.7348 6 15.4804 5.89464 15.2929 5.70711C15.1054 5.51957 15 5.26522 15 5Z" fill="black"/>
</svg>
