<svg width="24" height="24" viewBox="0 0 24 24" fill="none" xmlns="http://www.w3.org/2000/svg">
<path d="M11 4V6C11 6.79565 10.6839 7.55871 10.1213 8.12132C9.55871 8.68393 8.79565 9 8 9H4C3.20435 9 2.44129 8.68393 1.87868 8.12132C1.31607 7.55871 1 6.79565 1 6V4C1 3.20435 1.31607 2.44129 1.87868 1.87868C2.44129 1.31607 3.20435 1 4 1H8C8.79565 1 9.55871 1.31607 10.1213 1.87868C10.6839 2.44129 11 3.20435 11 4ZM20 1H16C15.2044 1 14.4413 1.31607 13.8787 1.87868C13.3161 2.44129 13 3.20435 13 4V10C13 10.7956 13.3161 11.5587 13.8787 12.1213C14.4413 12.6839 15.2044 13 16 13H20C20.7956 13 21.5587 12.6839 22.1213 12.1213C22.6839 11.5587 23 10.7956 23 10V4C23 3.20435 22.6839 2.44129 22.1213 1.87868C21.5587 1.31607 20.7956 1 20 1V1ZM8 11H4C3.20435 11 2.44129 11.3161 1.87868 11.8787C1.31607 12.4413 1 13.2044 1 14V20C1 20.7956 1.31607 21.5587 1.87868 22.1213C2.44129 22.6839 3.20435 23 4 23H8C8.79565 23 9.55871 22.6839 10.1213 22.1213C10.6839 21.5587 11 20.7956 11 20V14C11 13.2044 10.6839 12.4413 10.1213 11.8787C9.55871 11.3161 8.79565 11 8 11V11ZM20 15H16C15.2044 15 14.4413 15.3161 13.8787 15.8787C13.3161 16.4413 13 17.2044 13 18V20C13 20.7956 13.3161 21.5587 13.8787 22.1213C14.4413 22.6839 15.2044 23 16 23H20C20.7956 23 21.5587 22.6839 22.1213 22.1213C22.6839 21.5587 23 20.7956 23 20V18C23 17.2044 22.6839 16.4413 22.1213 15.8787C21.5587 15.3161 20.7956 15 20 15Z" fill="black"/>
</svg>
