<svg width="24" height="24" viewBox="0 0 24 24" fill="none" xmlns="http://www.w3.org/2000/svg">
<path d="M21 19H20V16C20 15.7348 19.8947 15.4804 19.7071 15.2929C19.5196 15.1054 19.2652 15 19 15C18.7348 15 18.4804 15.1054 18.2929 15.2929C18.1054 15.4804 18 15.7348 18 16V19H17C16.8026 18.9988 16.6092 19.0561 16.4443 19.1647C16.2794 19.2733 16.1503 19.4282 16.0733 19.61C15.9963 19.7918 15.9749 19.9923 16.0116 20.1863C16.0484 20.3803 16.1418 20.559 16.28 20.7L18.22 22.7C18.4046 22.8884 18.6562 22.9962 18.92 23V23C19.1775 22.999 19.4246 22.8987 19.61 22.72L21.68 20.72C21.8227 20.5825 21.9214 20.4057 21.9634 20.212C22.0054 20.0183 21.989 19.8165 21.9161 19.6322C21.8432 19.4479 21.7173 19.2895 21.5542 19.1769C21.3911 19.0643 21.1982 19.0027 21 19Z" fill="black"/>
<path d="M23 7V12C23 12.2652 22.8946 12.5196 22.7071 12.7071C22.5196 12.8946 22.2652 13 22 13H19C17.4087 13 15.8826 13.6321 14.7574 14.7574C13.6321 15.8826 13 17.4087 13 19C13 19.2652 12.8946 19.5196 12.7071 19.7071C12.5196 19.8946 12.2652 20 12 20H3.94C3.16026 20 2.41246 19.6903 1.86111 19.1389C1.30975 18.5875 1 17.8397 1 17.06V4C1 3.20435 1.31607 2.44129 1.87868 1.87868C2.44129 1.31607 3.20435 1 4 1H8.93C9.41972 1.00089 9.90177 1.12166 10.3341 1.35175C10.7664 1.58185 11.1358 1.91427 11.41 2.32L12.24 3.56C12.3327 3.69712 12.4579 3.8091 12.6045 3.8859C12.7511 3.96269 12.9145 4.0019 13.08 4H20C20.7956 4 21.5587 4.31607 22.1213 4.87868C22.6839 5.44129 23 6.20435 23 7V7Z" fill="black"/>
</svg>
