<svg width="24" height="24" viewBox="0 0 24 24" fill="none" xmlns="http://www.w3.org/2000/svg">
<path d="M23 13V18.2C22.9713 18.9684 22.6397 19.6942 22.0776 20.2188C21.5155 20.7435 20.7685 21.0243 20 21H4C3.23147 21.0243 2.48455 20.7435 1.92243 20.2188C1.36031 19.6942 1.02868 18.9684 1 18.2V13C1 12.2044 1.31607 11.4413 1.87868 10.8787C2.44129 10.3161 3.20435 10 4 10H11V14.59L9.59 13.17C9.49704 13.0763 9.38644 13.0019 9.26458 12.9511C9.14272 12.9003 9.01201 12.8742 8.88 12.8742C8.74799 12.8742 8.61728 12.9003 8.49542 12.9511C8.37356 13.0019 8.26296 13.0763 8.17 13.17C8.07732 13.2634 8.00399 13.3743 7.95423 13.4961C7.90446 13.6179 7.87924 13.7484 7.88 13.88C7.87924 14.0116 7.90446 14.1421 7.95423 14.2639C8.00399 14.3857 8.07732 14.4966 8.17 14.59L11.29 17.71C11.4612 17.8809 11.6886 17.9839 11.93 18H12.12C12.3201 17.9762 12.5083 17.8926 12.66 17.76L12.71 17.71L15.83 14.6C16.0183 14.4117 16.1241 14.1563 16.1241 13.89C16.1241 13.6237 16.0183 13.3683 15.83 13.18C15.6417 12.9917 15.3863 12.8859 15.12 12.8859C14.8537 12.8859 14.5983 12.9917 14.41 13.18L13 14.59V10H20C20.7956 10 21.5587 10.3161 22.1213 10.8787C22.6839 11.4413 23 12.2044 23 13ZM13 6C13 5.73478 12.8946 5.48043 12.7071 5.29289C12.5196 5.10536 12.2652 5 12 5C11.7348 5 11.4804 5.10536 11.2929 5.29289C11.1054 5.48043 11 5.73478 11 6V10H13V6Z" fill="black"/>
</svg>
