<svg width="24" height="24" viewBox="0 0 24 24" fill="none" xmlns="http://www.w3.org/2000/svg">
<path d="M17 1H7.00002C6.17772 1.03129 5.40107 1.38618 4.83918 1.98739C4.2773 2.58861 3.97569 3.38746 4.00002 4.21V19.79C3.98952 20.3929 4.14904 20.9865 4.46031 21.503C4.77158 22.0194 5.22202 22.4377 5.76002 22.71C6.24029 22.9459 6.7781 23.0392 7.30978 22.979C7.84145 22.9187 8.34473 22.7074 8.76002 22.37L11.44 20.26C11.5922 20.1349 11.783 20.0664 11.98 20.0664C12.177 20.0664 12.3679 20.1349 12.52 20.26L15.2 22.37C15.6164 22.7052 16.1195 22.9151 16.6507 22.9753C17.1818 23.0355 17.7192 22.9435 18.2 22.71C18.7455 22.4433 19.2042 22.0274 19.5228 21.5106C19.8414 20.9937 20.0069 20.3971 20 19.79V4.21C20.0244 3.38746 19.7227 2.58861 19.1609 1.98739C18.599 1.38618 17.8223 1.03129 17 1V1ZM14.12 8.71C14.3063 8.89736 14.4108 9.15081 14.4108 9.415C14.4108 9.67919 14.3063 9.93264 14.12 10.12C13.9327 10.3063 13.6792 10.4108 13.415 10.4108C13.1508 10.4108 12.8974 10.3063 12.71 10.12L12 9.41L11.29 10.12C11.1027 10.3063 10.8492 10.4108 10.585 10.4108C10.3208 10.4108 10.0674 10.3063 9.88002 10.12C9.69377 9.93264 9.58923 9.67919 9.58923 9.415C9.58923 9.15081 9.69377 8.89736 9.88002 8.71L10.59 8L9.88002 7.29C9.7162 7.0987 9.63059 6.85262 9.64031 6.60095C9.65003 6.34927 9.75437 6.11053 9.93246 5.93244C10.1106 5.75434 10.3493 5.65001 10.601 5.64029C10.8526 5.63057 11.0987 5.71617 11.29 5.88L12 6.59L12.71 5.88C12.9013 5.71617 13.1474 5.63057 13.3991 5.64029C13.6508 5.65001 13.8895 5.75434 14.0676 5.93244C14.2457 6.11053 14.35 6.34927 14.3597 6.60095C14.3695 6.85262 14.2838 7.0987 14.12 7.29L13.41 8L14.12 8.71Z" fill="black"/>
</svg>
