<svg width="24" height="24" viewBox="0 0 24 24" fill="none" xmlns="http://www.w3.org/2000/svg">
<path d="M20 6H13.07C12.9053 5.99915 12.7433 5.95763 12.5985 5.87912C12.4538 5.80062 12.3306 5.68756 12.24 5.55L11.43 4.34C11.1562 3.92776 10.7846 3.58968 10.3484 3.35587C9.91217 3.12207 9.42491 2.99982 8.93 3H4C3.20435 3 2.44129 3.31607 1.87868 3.87868C1.31607 4.44129 1 5.20435 1 6V19C1 19.7956 1.31607 20.5587 1.87868 21.1213C2.44129 21.6839 3.20435 22 4 22H20C20.7956 22 21.5587 21.6839 22.1213 21.1213C22.6839 20.5587 23 19.7956 23 19V9C23 8.20435 22.6839 7.44129 22.1213 6.87868C21.5587 6.31607 20.7956 6 20 6ZM15 15H12V16C12.0012 16.1999 11.9425 16.3955 11.8314 16.5617C11.7204 16.7279 11.5621 16.8569 11.377 16.9323C11.1919 17.0076 10.9884 17.0258 10.7929 16.9844C10.5973 16.943 10.4187 16.8439 10.28 16.7L8.28 14.63C8.09647 14.4397 7.9958 14.1844 8 13.92C8.00376 13.6562 8.11159 13.4046 8.3 13.22L10.3 11.28C10.441 11.1418 10.6197 11.0484 10.8137 11.0116C11.0077 10.9749 11.2082 10.9963 11.39 11.0733C11.5718 11.1503 11.7267 11.2794 11.8353 11.4443C11.9439 11.6092 12.0012 11.8026 12 12V13H15C15.2652 13 15.5196 13.1054 15.7071 13.2929C15.8946 13.4804 16 13.7348 16 14C16 14.2652 15.8946 14.5196 15.7071 14.7071C15.5196 14.8946 15.2652 15 15 15Z" fill="black"/>
</svg>
