<svg width="24" height="24" viewBox="0 0 24 24" fill="none" xmlns="http://www.w3.org/2000/svg">
<path d="M23 4V8C23 8.79565 22.6839 9.55871 22.1213 10.1213C21.5587 10.6839 20.7956 11 20 11H4C3.20435 11 2.44129 10.6839 1.87868 10.1213C1.31607 9.55871 1 8.79565 1 8V4C1 3.20435 1.31607 2.44129 1.87868 1.87868C2.44129 1.31607 3.20435 1 4 1H20C20.7956 1 21.5587 1.31607 22.1213 1.87868C22.6839 2.44129 23 3.20435 23 4ZM20 13H4C3.20435 13 2.44129 13.3161 1.87868 13.8787C1.31607 14.4413 1 15.2044 1 16V20C1 20.7956 1.31607 21.5587 1.87868 22.1213C2.44129 22.6839 3.20435 23 4 23H20C20.7956 23 21.5587 22.6839 22.1213 22.1213C22.6839 21.5587 23 20.7956 23 20V16C23 15.2044 22.6839 14.4413 22.1213 13.8787C21.5587 13.3161 20.7956 13 20 13Z" fill="black"/>
</svg>
