<svg width="24" height="24" viewBox="0 0 24 24" fill="none" xmlns="http://www.w3.org/2000/svg">
<path d="M16 8C15.2044 8 14.4413 7.68393 13.8787 7.12132C13.3161 6.55871 13 5.79565 13 5V1H7C6.20435 1 5.44129 1.31607 4.87868 1.87868C4.31607 2.44129 4 3.20435 4 4V20C4 20.7956 4.31607 21.5587 4.87868 22.1213C5.44129 22.6839 6.20435 23 7 23H17C17.7956 23 18.5587 22.6839 19.1213 22.1213C19.6839 21.5587 20 20.7956 20 20V8H16ZM14.83 13L12 15.83C11.9066 15.9227 11.7957 15.996 11.6739 16.0458C11.5521 16.0955 11.4216 16.1208 11.29 16.12C11.0277 16.1189 10.7763 16.0147 10.59 15.83L9.17 14.41C8.98375 14.2226 8.87921 13.9692 8.87921 13.705C8.87921 13.4408 8.98375 13.1874 9.17 13C9.26296 12.9063 9.37356 12.8319 9.49542 12.7811C9.61728 12.7303 9.74799 12.7042 9.88 12.7042C10.012 12.7042 10.1427 12.7303 10.2646 12.7811C10.3864 12.8319 10.497 12.9063 10.59 13L11.29 13.71L13.41 11.59C13.503 11.4963 13.6136 11.4219 13.7354 11.3711C13.8573 11.3203 13.988 11.2942 14.12 11.2942C14.252 11.2942 14.3827 11.3203 14.5046 11.3711C14.6264 11.4219 14.737 11.4963 14.83 11.59C15.0163 11.7774 15.1208 12.0308 15.1208 12.295C15.1208 12.5592 15.0163 12.8126 14.83 13V13ZM15 5V1.11C15.5037 1.24969 15.9622 1.51857 16.33 1.89L19.13 4.71C19.4847 5.06997 19.7426 5.5137 19.88 6H16C15.7348 6 15.4804 5.89464 15.2929 5.70711C15.1054 5.51957 15 5.26522 15 5Z" fill="black"/>
</svg>
