<svg width="24" height="24" viewBox="0 0 24 24" fill="none" xmlns="http://www.w3.org/2000/svg">
<path d="M23 9V18C23 18.7956 22.6839 19.5587 22.1213 20.1213C21.5587 20.6839 20.7956 21 20 21H4C3.20435 21 2.44129 20.6839 1.87868 20.1213C1.31607 19.5587 1 18.7956 1 18V6C1 5.20435 1.31607 4.44129 1.87868 3.87868C2.44129 3.31607 3.20435 3 4 3H8.93C9.42491 2.99982 9.91217 3.12207 10.3484 3.35587C10.7846 3.58968 11.1562 3.92776 11.43 4.34L12.24 5.55C12.3306 5.68756 12.4538 5.80062 12.5985 5.87912C12.7433 5.95763 12.9053 5.99915 13.07 6H20C20.7956 6 21.5587 6.31607 22.1213 6.87868C22.6839 7.44129 23 8.20435 23 9Z" fill="black"/>
</svg>
