<svg width="24" height="24" viewBox="0 0 24 24" fill="none" xmlns="http://www.w3.org/2000/svg">
<path d="M12 1C9.82441 1 7.69767 1.64514 5.88873 2.85383C4.07979 4.06253 2.66989 5.78049 1.83733 7.79048C1.00477 9.80047 0.786929 12.0122 1.21137 14.146C1.6358 16.2798 2.68345 18.2398 4.22183 19.7782C5.76021 21.3166 7.72022 22.3642 9.85401 22.7886C11.9878 23.2131 14.1995 22.9952 16.2095 22.1627C18.2195 21.3301 19.9375 19.9202 21.1462 18.1113C22.3549 16.3023 23 14.1756 23 12C23 9.08262 21.8411 6.28473 19.7782 4.22183C17.7153 2.15893 14.9174 1 12 1V1ZM17.59 15.15C17.4966 15.2427 17.3857 15.316 17.2639 15.3658C17.1421 15.4155 17.0116 15.4408 16.88 15.44C16.7484 15.4408 16.6179 15.4155 16.4961 15.3658C16.3743 15.316 16.2634 15.2427 16.17 15.15L12 11L7.83 15.15C7.73677 15.2432 7.62608 15.3172 7.50425 15.3677C7.38243 15.4181 7.25186 15.4441 7.12 15.4441C6.98815 15.4441 6.85758 15.4181 6.73576 15.3677C6.61393 15.3172 6.50324 15.2432 6.41 15.15C6.31677 15.0568 6.24281 14.9461 6.19235 14.8242C6.14188 14.7024 6.11591 14.5719 6.11591 14.44C6.11591 14.3081 6.14188 14.1776 6.19235 14.0558C6.24281 13.9339 6.31677 13.8232 6.41 13.73L11.29 8.85C11.383 8.75627 11.4936 8.68188 11.6154 8.63111C11.7373 8.58034 11.868 8.5542 12 8.5542C12.132 8.5542 12.2627 8.58034 12.3846 8.63111C12.5064 8.68188 12.617 8.75627 12.71 8.85L17.59 13.73C17.6837 13.823 17.7581 13.9336 17.8089 14.0554C17.8597 14.1773 17.8858 14.308 17.8858 14.44C17.8858 14.572 17.8597 14.7027 17.8089 14.8246C17.7581 14.9464 17.6837 15.057 17.59 15.15Z" fill="black"/>
</svg>
