<svg width="24" height="24" viewBox="0 0 24 24" fill="none" xmlns="http://www.w3.org/2000/svg">
<path d="M21.72 19.3699L19.72 17.2999C19.5813 17.156 19.4027 17.057 19.2071 17.0156C19.0116 16.9742 18.8082 16.9923 18.623 17.0677C18.4379 17.143 18.2796 17.2721 18.1686 17.4383C18.0575 17.6044 17.9988 17.8001 18 17.9999V18.9999H15C14.7348 18.9999 14.4804 19.1053 14.2929 19.2928C14.1054 19.4804 14 19.7347 14 19.9999C14 20.2652 14.1054 20.5195 14.2929 20.707C14.4804 20.8946 14.7348 20.9999 15 20.9999H18V21.9999C18.0002 22.1962 18.0581 22.3881 18.1666 22.5517C18.275 22.7153 18.4293 22.8434 18.61 22.9199C18.734 22.9703 18.8662 22.9974 19 22.9999C19.2609 23.0015 19.5121 22.901 19.7 22.7199L21.7 20.7799C21.8884 20.5953 21.9962 20.3437 22 20.0799C22.0042 19.8156 21.9035 19.5603 21.72 19.3699V19.3699Z" fill="black"/>
<path d="M18.88 5.99999H15C14.7348 5.99999 14.4804 5.89463 14.2929 5.70709C14.1054 5.51956 14 5.2652 14 4.99999V1.10999C14.5045 1.24237 14.964 1.50838 15.33 1.87999L18.13 4.71999C18.4832 5.07713 18.7411 5.51726 18.88 5.99999Z" fill="black"/>
<path d="M19 8V13C19 13.2652 18.8946 13.5196 18.7071 13.7071C18.5196 13.8946 18.2652 14 18 14C16.4087 14 14.8826 14.6321 13.7574 15.7574C12.6321 16.8826 12 18.4087 12 20V22C12 22.2652 11.8946 22.5196 11.7071 22.7071C11.5196 22.8946 11.2652 23 11 23H6C5.20435 23 4.44129 22.6839 3.87868 22.1213C3.31607 21.5587 3 20.7956 3 20V4C3 3.20435 3.31607 2.44129 3.87868 1.87868C4.44129 1.31607 5.20435 1 6 1H12V5C12 5.79565 12.3161 6.55871 12.8787 7.12132C13.4413 7.68393 14.2044 8 15 8H19Z" fill="black"/>
</svg>
