<svg width="24" height="24" viewBox="0 0 24 24" fill="none" xmlns="http://www.w3.org/2000/svg">
<path d="M21.83 19.56C21.66 19.81 20.13 22 18 22C15.87 22 14.34 19.81 14.17 19.56C14.0583 19.3946 13.9985 19.1996 13.9985 19C13.9985 18.8004 14.0583 18.6054 14.17 18.44C14.34 18.19 15.87 16 18 16C20.13 16 21.66 18.19 21.83 18.44C21.9418 18.6054 22.0015 18.8004 22.0015 19C22.0015 19.1996 21.9418 19.3946 21.83 19.56V19.56ZM19.71 19C19.2841 18.4658 18.6745 18.1093 18 18C17.3263 18.1112 16.7173 18.4673 16.29 19C16.7141 19.5364 17.3246 19.8935 18 20C18.6738 19.8888 19.2828 19.5327 19.71 19Z" fill="black"/>
<path d="M18.88 5.99999H15C14.7348 5.99999 14.4804 5.89463 14.2929 5.70709C14.1054 5.51956 14 5.2652 14 4.99999V1.10999C14.5045 1.24237 14.964 1.50838 15.33 1.87999L18.13 4.71999C18.4832 5.07713 18.7411 5.51726 18.88 5.99999Z" fill="black"/>
<path d="M19 8V13C19 13.2652 18.8946 13.5196 18.7071 13.7071C18.5196 13.8946 18.2652 14 18 14C16.4087 14 14.8826 14.6321 13.7574 15.7574C12.6321 16.8826 12 18.4087 12 20V22C12 22.2652 11.8946 22.5196 11.7071 22.7071C11.5196 22.8946 11.2652 23 11 23H6C5.20435 23 4.44129 22.6839 3.87868 22.1213C3.31607 21.5587 3 20.7956 3 20V4C3 3.20435 3.31607 2.44129 3.87868 1.87868C4.44129 1.31607 5.20435 1 6 1H12V5C12 5.79565 12.3161 6.55871 12.8787 7.12132C13.4413 7.68393 14.2044 8 15 8H19Z" fill="black"/>
</svg>
