<svg width="24" height="24" viewBox="0 0 24 24" fill="none" xmlns="http://www.w3.org/2000/svg">
<path d="M11 21H13C13 21.2652 12.8946 21.5196 12.7071 21.7071C12.5196 21.8946 12.2652 22 12 22C11.7348 22 11.4804 21.8946 11.2929 21.7071C11.1054 21.5196 11 21.2652 11 21ZM20 14.63V10.18C20 6.52 16.94 3.51 13 3.06V2C13 1.73478 12.8946 1.48043 12.7071 1.29289C12.5196 1.10536 12.2652 1 12 1C11.7348 1 11.4804 1.10536 11.2929 1.29289C11.1054 1.48043 11 1.73478 11 2V3.06C7.06 3.51 4 6.52 4 10.18V14.63C3.43398 14.7985 2.93574 15.1417 2.57652 15.6105C2.21731 16.0793 2.01552 16.6496 2 17.24C2.03378 18.0031 2.36832 18.7219 2.93048 19.239C3.49264 19.7562 4.2367 20.0298 5 20H19C19.7633 20.0298 20.5074 19.7562 21.0695 19.239C21.6317 18.7219 21.9662 18.0031 22 17.24C21.9845 16.6496 21.7827 16.0793 21.4235 15.6105C21.0643 15.1417 20.566 14.7985 20 14.63V14.63Z" fill="black"/>
</svg>
