<svg width="24" height="24" viewBox="0 0 24 24" fill="none" xmlns="http://www.w3.org/2000/svg">
<path d="M12.06 7.4099C12.2935 7.53391 12.5666 7.5604 12.8196 7.48356C13.0726 7.40673 13.2849 7.23283 13.41 6.9999C13.8067 6.19231 14.4641 5.54205 15.2759 5.15419C16.0878 4.76634 17.0067 4.66353 17.8843 4.86239C18.7618 5.06124 19.5466 5.55015 20.112 6.2501C20.6773 6.95006 20.9902 7.82019 21 8.7199C20.8277 10.3852 20.1268 11.9517 19 13.1899C18.8387 13.3996 18.7671 13.6647 18.8008 13.9271C18.8345 14.1895 18.9709 14.4278 19.18 14.5899C19.3897 14.7512 19.6548 14.8228 19.9172 14.7891C20.1795 14.7553 20.4179 14.619 20.58 14.4099C21.9902 12.8308 22.8407 10.831 23 8.7199C23.0055 7.36167 22.5499 6.04178 21.7079 4.97604C20.8659 3.9103 19.6872 3.16179 18.3645 2.8529C17.0419 2.54401 15.6536 2.69303 14.4266 3.27558C13.1996 3.85813 12.2066 4.83974 11.61 6.0599C11.55 6.17792 11.5141 6.30668 11.5043 6.43869C11.4945 6.5707 11.511 6.70334 11.5529 6.82892C11.5948 6.9545 11.6611 7.07052 11.7482 7.17025C11.8352 7.26998 11.9412 7.35144 12.06 7.4099Z" fill="black"/>
<path d="M22.7099 21.2899L2.70994 1.28994C2.52164 1.10164 2.26624 0.99585 1.99994 0.99585C1.73364 0.99585 1.47824 1.10164 1.28994 1.28994C1.10164 1.47824 0.99585 1.73364 0.99585 1.99994C0.99585 2.26624 1.10164 2.52164 1.28994 2.70994L2.91994 4.33994C2.30793 4.89237 1.82028 5.56853 1.48928 6.32362C1.15827 7.07872 0.991481 7.89553 0.999941 8.71994C0.999941 13.3299 6.79994 18.2199 10.2499 20.7199C10.7599 21.0862 11.372 21.2832 11.9999 21.2832C12.6279 21.2832 13.2399 21.0862 13.7499 20.7199C14.5399 20.1499 15.6699 19.2899 16.8499 18.2699L21.2899 22.7099C21.3829 22.8037 21.4935 22.8781 21.6154 22.9288C21.7372 22.9796 21.8679 23.0057 21.9999 23.0057C22.132 23.0057 22.2627 22.9796 22.3845 22.9288C22.5064 22.8781 22.617 22.8037 22.7099 22.7099C22.8037 22.617 22.8781 22.5064 22.9288 22.3845C22.9796 22.2627 23.0057 22.132 23.0057 21.9999C23.0057 21.8679 22.9796 21.7372 22.9288 21.6154C22.8781 21.4935 22.8037 21.3829 22.7099 21.2899V21.2899Z" fill="black"/>
</svg>
