<svg width="24" height="24" viewBox="0 0 24 24" fill="none" xmlns="http://www.w3.org/2000/svg">
<path d="M22.72 17.3699C22.9035 17.5603 23.0042 17.8156 23 18.0799C22.9962 18.3437 22.8884 18.5953 22.7 18.7799L20.7 20.7199C20.5094 20.8967 20.26 20.9965 20 20.9999C19.8662 20.9974 19.734 20.9703 19.61 20.9199C19.4293 20.8434 19.275 20.7153 19.1666 20.5517C19.0581 20.3881 19.0002 20.1962 19 19.9999V18.9999H16C15.7348 18.9999 15.4804 18.8946 15.2929 18.707C15.1054 18.5195 15 18.2652 15 17.9999C15 17.7347 15.1054 17.4804 15.2929 17.2928C15.4804 17.1053 15.7348 16.9999 16 16.9999H19V15.9999C18.9988 15.8001 19.0575 15.6044 19.1686 15.4383C19.2796 15.2721 19.4379 15.143 19.623 15.0677C19.8082 14.9923 20.0116 14.9742 20.2071 15.0156C20.4027 15.057 20.5813 15.156 20.72 15.2999L22.72 17.3699Z" fill="black"/>
<path d="M23 7V12C23 12.2652 22.8946 12.5196 22.7071 12.7071C22.5196 12.8946 22.2652 13 22 13H19C17.4087 13 15.8826 13.6321 14.7574 14.7574C13.6321 15.8826 13 17.4087 13 19C13 19.2652 12.8946 19.5196 12.7071 19.7071C12.5196 19.8946 12.2652 20 12 20H3.94C3.16026 20 2.41246 19.6903 1.86111 19.1389C1.30975 18.5875 1 17.8397 1 17.06V4C1 3.20435 1.31607 2.44129 1.87868 1.87868C2.44129 1.31607 3.20435 1 4 1H8.93C9.41972 1.00089 9.90177 1.12166 10.3341 1.35175C10.7664 1.58185 11.1358 1.91427 11.41 2.32L12.24 3.56C12.3327 3.69712 12.4579 3.8091 12.6045 3.8859C12.7511 3.96269 12.9145 4.0019 13.08 4H20C20.7956 4 21.5587 4.31607 22.1213 4.87868C22.6839 5.44129 23 6.20435 23 7V7Z" fill="black"/>
</svg>
