<svg width="24" height="24" viewBox="0 0 24 24" fill="none" xmlns="http://www.w3.org/2000/svg">
<path d="M20 1H4C3.20435 1 2.44129 1.31607 1.87868 1.87868C1.31607 2.44129 1 3.20435 1 4V20C1 20.7956 1.31607 21.5587 1.87868 22.1213C2.44129 22.6839 3.20435 23 4 23H20C20.7956 23 21.5587 22.6839 22.1213 22.1213C22.6839 21.5587 23 20.7956 23 20V4C23 3.20435 22.6839 2.44129 22.1213 1.87868C21.5587 1.31607 20.7956 1 20 1V1ZM17.59 15.15C17.4966 15.2427 17.3857 15.316 17.2639 15.3658C17.1421 15.4155 17.0116 15.4408 16.88 15.44C16.7484 15.4408 16.6179 15.4155 16.4961 15.3658C16.3743 15.316 16.2634 15.2427 16.17 15.15L12 11L7.83 15.15C7.73676 15.2432 7.62607 15.3172 7.50425 15.3677C7.38243 15.4181 7.25186 15.4441 7.12 15.4441C6.98814 15.4441 6.85757 15.4181 6.73575 15.3677C6.61393 15.3172 6.50324 15.2432 6.41 15.15C6.31676 15.0568 6.2428 14.9461 6.19234 14.8242C6.14188 14.7024 6.11591 14.5719 6.11591 14.44C6.11591 14.3081 6.14188 14.1776 6.19234 14.0558C6.2428 13.9339 6.31676 13.8232 6.41 13.73L11.29 8.85C11.383 8.75627 11.4936 8.68188 11.6154 8.63111C11.7373 8.58034 11.868 8.5542 12 8.5542C12.132 8.5542 12.2627 8.58034 12.3846 8.63111C12.5064 8.68188 12.617 8.75627 12.71 8.85L17.59 13.73C17.6837 13.823 17.7581 13.9336 17.8089 14.0554C17.8597 14.1773 17.8858 14.308 17.8858 14.44C17.8858 14.572 17.8597 14.7027 17.8089 14.8246C17.7581 14.9464 17.6837 15.057 17.59 15.15Z" fill="black"/>
</svg>
