<svg width="24" height="24" viewBox="0 0 24 24" fill="none" xmlns="http://www.w3.org/2000/svg">
<path d="M22 21H2C1.73478 21 1.48043 21.1054 1.29289 21.2929C1.10536 21.4804 1 21.7348 1 22C1 22.2652 1.10536 22.5196 1.29289 22.7071C1.48043 22.8946 1.73478 23 2 23H22C22.2652 23 22.5196 22.8946 22.7071 22.7071C22.8946 22.5196 23 22.2652 23 22C23 21.7348 22.8946 21.4804 22.7071 21.2929C22.5196 21.1054 22.2652 21 22 21Z" fill="black"/>
<path d="M4.00002 19H8.24002C8.37994 19.0076 8.51991 18.9858 8.65084 18.9358C8.78176 18.8858 8.90073 18.8089 9.00002 18.71L10.62 17L4.93002 11.41L3.29002 13.05C3.19734 13.1435 3.12401 13.2543 3.07425 13.3761C3.02448 13.498 2.99926 13.6284 3.00002 13.76V18C3.00002 18.2653 3.10537 18.5196 3.29291 18.7071C3.48045 18.8947 3.7348 19 4.00002 19Z" fill="black"/>
<path d="M12.0301 15.63L17.6201 10.03L11.9401 4.41003L6.3501 9.99003L12.0301 15.63Z" fill="black"/>
<path d="M19.0001 8.62003L20.1101 7.51003C20.6719 6.94753 20.9875 6.18503 20.9875 5.39003C20.9875 4.59502 20.6719 3.83253 20.1101 3.27003L18.7301 1.86003C18.1676 1.29822 17.4051 0.982666 16.6101 0.982666C15.8151 0.982666 15.0526 1.29822 14.4901 1.86003L13.3501 3.00003L19.0001 8.62003Z" fill="black"/>
</svg>
