<svg width="24" height="24" viewBox="0 0 24 24" fill="none" xmlns="http://www.w3.org/2000/svg">
<path d="M16 8C15.2044 8 14.4413 7.68393 13.8787 7.12132C13.3161 6.55871 13 5.79565 13 5V1H7C6.20435 1 5.44129 1.31607 4.87868 1.87868C4.31607 2.44129 4 3.20435 4 4V20C4 20.7956 4.31607 21.5587 4.87868 22.1213C5.44129 22.6839 6.20435 23 7 23H17C17.7956 23 18.5587 22.6839 19.1213 22.1213C19.6839 21.5587 20 20.7956 20 20V8H16ZM15.71 17.71C15.617 17.8037 15.5064 17.8781 15.3846 17.9289C15.2627 17.9797 15.132 18.0058 15 18.0058C14.868 18.0058 14.7373 17.9797 14.6154 17.9289C14.4936 17.8781 14.383 17.8037 14.29 17.71L12.29 15.71C11.8869 15.9014 11.4462 16.0005 11 16C10.4067 16 9.82664 15.8241 9.33329 15.4944C8.83994 15.1648 8.45542 14.6962 8.22836 14.1481C8.0013 13.5999 7.94189 12.9967 8.05764 12.4147C8.1734 11.8328 8.45912 11.2982 8.87868 10.8787C9.29824 10.4591 9.83279 10.1734 10.4147 10.0576C10.9967 9.94189 11.5999 10.0013 12.1481 10.2284C12.6962 10.4554 13.1648 10.8399 13.4944 11.3333C13.8241 11.8266 14 12.4067 14 13C13.9974 13.447 13.8949 13.8877 13.7 14.29L15.7 16.29C15.7944 16.3823 15.8696 16.4924 15.9212 16.6139C15.9728 16.7354 15.9999 16.8659 16.0008 16.9979C16.0017 17.1299 15.9765 17.2608 15.9266 17.383C15.8767 17.5053 15.8031 17.6164 15.71 17.71ZM15 5V1.11C15.5037 1.24969 15.9622 1.51857 16.33 1.89L19.13 4.71C19.4847 5.06997 19.7426 5.5137 19.88 6H16C15.7348 6 15.4804 5.89464 15.2929 5.70711C15.1054 5.51957 15 5.26522 15 5ZM12 13C12 13.2652 11.8946 13.5196 11.7071 13.7071C11.5196 13.8946 11.2652 14 11 14C10.8022 14 10.6089 13.9414 10.4444 13.8315C10.28 13.7216 10.1518 13.5654 10.0761 13.3827C10.0004 13.2 9.98063 12.9989 10.0192 12.8049C10.0578 12.6109 10.153 12.4327 10.2929 12.2929C10.4327 12.153 10.6109 12.0578 10.8049 12.0192C10.9989 11.9806 11.2 12.0004 11.3827 12.0761C11.5654 12.1518 11.7216 12.28 11.8315 12.4444C11.9414 12.6089 12 12.8022 12 13Z" fill="black"/>
</svg>
