<svg width="24" height="24" viewBox="0 0 24 24" fill="none" xmlns="http://www.w3.org/2000/svg">
<path d="M19.35 19.9999L20.65 18.7099C20.8383 18.5216 20.9441 18.2662 20.9441 17.9999C20.9441 17.7336 20.8383 17.4782 20.65 17.2899C20.4617 17.1016 20.2063 16.9958 19.94 16.9958C19.6737 16.9958 19.4183 17.1016 19.23 17.2899L17.94 18.5899L16.65 17.2899C16.4617 17.1016 16.2063 16.9958 15.94 16.9958C15.6737 16.9958 15.4183 17.1016 15.23 17.2899C15.0417 17.4782 14.9359 17.7336 14.9359 17.9999C14.9359 18.2662 15.0417 18.5216 15.23 18.7099L16.53 19.9999L15.23 21.2899C15.1363 21.3829 15.0619 21.4935 15.0111 21.6154C14.9603 21.7372 14.9342 21.8679 14.9342 21.9999C14.9342 22.132 14.9603 22.2627 15.0111 22.3845C15.0619 22.5064 15.1363 22.617 15.23 22.7099C15.323 22.8037 15.4336 22.8781 15.5554 22.9288C15.6773 22.9796 15.808 23.0057 15.94 23.0057C16.072 23.0057 16.2027 22.9796 16.3246 22.9288C16.4464 22.8781 16.557 22.8037 16.65 22.7099L17.94 21.4099L19.23 22.7099C19.323 22.8037 19.4336 22.8781 19.5554 22.9288C19.6773 22.9796 19.808 23.0057 19.94 23.0057C20.072 23.0057 20.2027 22.9796 20.3246 22.9288C20.4464 22.8781 20.557 22.8037 20.65 22.7099C20.7437 22.617 20.8181 22.5064 20.8689 22.3845C20.9197 22.2627 20.9458 22.132 20.9458 21.9999C20.9458 21.8679 20.9197 21.7372 20.8689 21.6154C20.8181 21.4935 20.7437 21.3829 20.65 21.2899L19.35 19.9999Z" fill="black"/>
<path d="M18.88 5.99999H15C14.7348 5.99999 14.4804 5.89463 14.2929 5.70709C14.1054 5.51956 14 5.2652 14 4.99999V1.10999C14.5045 1.24237 14.964 1.50838 15.33 1.87999L18.13 4.71999C18.4832 5.07713 18.7411 5.51726 18.88 5.99999Z" fill="black"/>
<path d="M19 8V13C19 13.2652 18.8946 13.5196 18.7071 13.7071C18.5196 13.8946 18.2652 14 18 14C16.4087 14 14.8826 14.6321 13.7574 15.7574C12.6321 16.8826 12 18.4087 12 20V22C12 22.2652 11.8946 22.5196 11.7071 22.7071C11.5196 22.8946 11.2652 23 11 23H6C5.20435 23 4.44129 22.6839 3.87868 22.1213C3.31607 21.5587 3 20.7956 3 20V4C3 3.20435 3.31607 2.44129 3.87868 1.87868C4.44129 1.31607 5.20435 1 6 1H12V5C12 5.79565 12.3161 6.55871 12.8787 7.12132C13.4413 7.68393 14.2044 8 15 8H19Z" fill="black"/>
</svg>
