<svg width="24" height="24" viewBox="0 0 24 24" fill="none" xmlns="http://www.w3.org/2000/svg">
<path d="M22 16H16C15.7348 16 15.4804 16.1054 15.2929 16.2929C15.1054 16.4804 15 16.7348 15 17C15 17.2652 15.1054 17.5196 15.2929 17.7071C15.4804 17.8946 15.7348 18 16 18H22C22.2652 18 22.5196 17.8946 22.7071 17.7071C22.8946 17.5196 23 17.2652 23 17C23 16.7348 22.8946 16.4804 22.7071 16.2929C22.5196 16.1054 22.2652 16 22 16Z" fill="black"/>
<path d="M23 7V12C23 12.2652 22.8946 12.5196 22.7071 12.7071C22.5196 12.8946 22.2652 13 22 13H19C17.4087 13 15.8826 13.6321 14.7574 14.7574C13.6321 15.8826 13 17.4087 13 19C13 19.2652 12.8946 19.5196 12.7071 19.7071C12.5196 19.8946 12.2652 20 12 20H3.94C3.16026 20 2.41246 19.6903 1.86111 19.1389C1.30975 18.5875 1 17.8397 1 17.06V4C1 3.20435 1.31607 2.44129 1.87868 1.87868C2.44129 1.31607 3.20435 1 4 1H8.93C9.41972 1.00089 9.90177 1.12166 10.3341 1.35175C10.7664 1.58185 11.1358 1.91427 11.41 2.32L12.24 3.56C12.3327 3.69712 12.4579 3.8091 12.6045 3.8859C12.7511 3.96269 12.9145 4.0019 13.08 4H20C20.7956 4 21.5587 4.31607 22.1213 4.87868C22.6839 5.44129 23 6.20435 23 7V7Z" fill="black"/>
</svg>
