<svg width="24" height="24" viewBox="0 0 24 24" fill="none" xmlns="http://www.w3.org/2000/svg">
<path d="M16 8C15.2044 8 14.4413 7.68393 13.8787 7.12132C13.3161 6.55871 13 5.79565 13 5V1H7C6.20435 1 5.44129 1.31607 4.87868 1.87868C4.31607 2.44129 4 3.20435 4 4V20C4 20.7956 4.31607 21.5587 4.87868 22.1213C5.44129 22.6839 6.20435 23 7 23H17C17.7956 23 18.5587 22.6839 19.1213 22.1213C19.6839 21.5587 20 20.7956 20 20V8H16ZM14.83 14.94C14.9237 15.033 14.9981 15.1436 15.0489 15.2654C15.0997 15.3873 15.1258 15.518 15.1258 15.65C15.1258 15.782 15.0997 15.9127 15.0489 16.0346C14.9981 16.1564 14.9237 16.267 14.83 16.36C14.7366 16.4527 14.6257 16.526 14.5039 16.5758C14.3821 16.6255 14.2516 16.6508 14.12 16.65C13.9884 16.6508 13.8579 16.6255 13.7361 16.5758C13.6143 16.526 13.5034 16.4527 13.41 16.36L12 15L10.59 16.41C10.4966 16.5027 10.3857 16.576 10.2639 16.6258C10.1421 16.6755 10.0116 16.7008 9.88 16.7C9.74839 16.7008 9.61793 16.6755 9.49609 16.6258C9.37426 16.576 9.26344 16.5027 9.17 16.41C9.07627 16.317 9.00188 16.2064 8.95111 16.0846C8.90034 15.9627 8.8742 15.832 8.8742 15.7C8.8742 15.568 8.90034 15.4373 8.95111 15.3154C9.00188 15.1936 9.07627 15.083 9.17 14.99L10.58 13.58L9.17 12.11C8.98375 11.9226 8.87921 11.6692 8.87921 11.405C8.87921 11.1408 8.98375 10.8874 9.17 10.7C9.26296 10.6063 9.37356 10.5319 9.49542 10.4811C9.61728 10.4303 9.74799 10.4042 9.88 10.4042C10.012 10.4042 10.1427 10.4303 10.2646 10.4811C10.3864 10.5319 10.497 10.6063 10.59 10.7L12 12.11L13.41 10.7C13.503 10.6063 13.6136 10.5319 13.7354 10.4811C13.8573 10.4303 13.988 10.4042 14.12 10.4042C14.252 10.4042 14.3827 10.4303 14.5046 10.4811C14.6264 10.5319 14.737 10.6063 14.83 10.7C15.0163 10.8874 15.1208 11.1408 15.1208 11.405C15.1208 11.6692 15.0163 11.9226 14.83 12.11L13.42 13.53L14.83 14.94ZM15 5V1.11C15.5037 1.24969 15.9622 1.51857 16.33 1.89L19.13 4.71C19.4847 5.06997 19.7426 5.5137 19.88 6H16C15.7348 6 15.4804 5.89464 15.2929 5.70711C15.1054 5.51957 15 5.26522 15 5Z" fill="black"/>
</svg>
