<svg width="24" height="24" viewBox="0 0 24 24" fill="none" xmlns="http://www.w3.org/2000/svg">
<path d="M16 8C15.2044 8 14.4413 7.68393 13.8787 7.12132C13.3161 6.55871 13 5.79565 13 5V1H7C6.20435 1 5.44129 1.31607 4.87868 1.87868C4.31607 2.44129 4 3.20435 4 4V20C4 20.7956 4.31607 21.5587 4.87868 22.1213C5.44129 22.6839 6.20435 23 7 23H17C17.7956 23 18.5587 22.6839 19.1213 22.1213C19.6839 21.5587 20 20.7956 20 20V8H16ZM15 15H9C8.73478 15 8.48043 14.8946 8.29289 14.7071C8.10536 14.5196 8 14.2652 8 14C8 13.7348 8.10536 13.4804 8.29289 13.2929C8.48043 13.1054 8.73478 13 9 13H15C15.2652 13 15.5196 13.1054 15.7071 13.2929C15.8946 13.4804 16 13.7348 16 14C16 14.2652 15.8946 14.5196 15.7071 14.7071C15.5196 14.8946 15.2652 15 15 15ZM15 5V1.11C15.5037 1.24969 15.9622 1.51857 16.33 1.89L19.13 4.71C19.4847 5.06997 19.7426 5.5137 19.88 6H16C15.7348 6 15.4804 5.89464 15.2929 5.70711C15.1054 5.51957 15 5.26522 15 5Z" fill="black"/>
</svg>
