<svg width="24" height="24" viewBox="0 0 24 24" fill="none" xmlns="http://www.w3.org/2000/svg">
<path d="M16 8C15.2044 8 14.4413 7.68393 13.8787 7.12132C13.3161 6.55871 13 5.79565 13 5V1H7C6.20435 1 5.44129 1.31607 4.87868 1.87868C4.31607 2.44129 4 3.20435 4 4V20C4 20.7956 4.31607 21.5587 4.87868 22.1213C5.44129 22.6839 6.20435 23 7 23H17C17.7956 23 18.5587 22.6839 19.1213 22.1213C19.6839 21.5587 20 20.7956 20 20V8H16ZM15.5 14.5H12.5V15.5C12.5 15.7652 12.3946 16.0196 12.2071 16.2071C12.0196 16.3946 11.7652 16.5 11.5 16.5C11.3006 16.5004 11.1055 16.4412 10.94 16.33L7.94 14.33C7.80388 14.2385 7.69234 14.115 7.61522 13.9702C7.5381 13.8255 7.49776 13.664 7.49776 13.5C7.49776 13.336 7.5381 13.1745 7.61522 13.0298C7.69234 12.885 7.80388 12.7615 7.94 12.67L10.94 10.67C11.0876 10.5745 11.2577 10.5196 11.4333 10.5108C11.6089 10.5021 11.7836 10.5397 11.94 10.62C12.0997 10.705 12.2333 10.8318 12.3266 10.9867C12.42 11.1417 12.4695 11.3191 12.47 11.5V12.5H15.47C15.7352 12.5 15.9896 12.6054 16.1771 12.7929C16.3646 12.9804 16.47 13.2348 16.47 13.5C16.47 13.7652 16.3646 14.0196 16.1771 14.2071C15.9896 14.3946 15.7352 14.5 15.47 14.5H15.5ZM15 5V1.11C15.5037 1.24969 15.9622 1.51857 16.33 1.89L19.13 4.71C19.4847 5.06997 19.7426 5.5137 19.88 6H16C15.7348 6 15.4804 5.89464 15.2929 5.70711C15.1054 5.51957 15 5.26522 15 5Z" fill="black"/>
</svg>
