<svg width="24" height="24" viewBox="0 0 24 24" fill="none" xmlns="http://www.w3.org/2000/svg">
<path d="M20 6H13.07C12.9053 5.99915 12.7433 5.95763 12.5985 5.87912C12.4538 5.80062 12.3306 5.68756 12.24 5.55L11.43 4.34C11.1562 3.92776 10.7846 3.58968 10.3484 3.35587C9.91217 3.12207 9.42491 2.99982 8.93 3H4C3.20435 3 2.44129 3.31607 1.87868 3.87868C1.31607 4.44129 1 5.20435 1 6V19C1 19.7956 1.31607 20.5587 1.87868 21.1213C2.44129 21.6839 3.20435 22 4 22H20C20.7956 22 21.5587 21.6839 22.1213 21.1213C22.6839 20.5587 23 19.7956 23 19V9C23 8.20435 22.6839 7.44129 22.1213 6.87868C21.5587 6.31607 20.7956 6 20 6ZM15.89 12.94L11.65 17.18C11.539 17.2875 11.4059 17.3694 11.26 17.42L9.13 18.13C9.03073 18.166 8.92556 18.183 8.82 18.18C8.68839 18.1808 8.55793 18.1555 8.43609 18.1058C8.31426 18.056 8.20344 17.9827 8.11 17.89C7.98318 17.7607 7.89387 17.5993 7.8516 17.4232C7.80933 17.2471 7.81569 17.0628 7.87 16.89L8.58 14.76C8.63063 14.6141 8.71254 14.481 8.82 14.37L13.06 10.13C13.2474 9.94375 13.5008 9.83921 13.765 9.83921C14.0292 9.83921 14.2826 9.94375 14.47 10.13L15.89 11.55C16.0702 11.7365 16.171 11.9857 16.171 12.245C16.171 12.5043 16.0702 12.7535 15.89 12.94Z" fill="black"/>
</svg>
