<svg width="24" height="24" viewBox="0 0 24 24" fill="none" xmlns="http://www.w3.org/2000/svg">
<path d="M21.72 16.28C21.5351 16.1085 21.2922 16.0132 21.04 16.0132C20.7878 16.0132 20.5449 16.1085 20.36 16.28L19 17.64L17.64 16.28C17.45 16.1743 17.2307 16.1334 17.0154 16.1635C16.8001 16.1936 16.6005 16.293 16.4468 16.4468C16.293 16.6005 16.1936 16.8001 16.1635 17.0154C16.1334 17.2307 16.1743 17.45 16.28 17.64L17.64 19L16.28 20.36C16.1085 20.5449 16.0132 20.7878 16.0132 21.04C16.0132 21.2922 16.1085 21.5351 16.28 21.72C16.3754 21.8121 16.4882 21.8842 16.6118 21.9323C16.7355 21.9804 16.8674 22.0034 17 22C17.1263 22.0014 17.2517 21.9773 17.3685 21.9292C17.4853 21.8811 17.5913 21.8099 17.68 21.72L19 20.36L20.36 21.72C20.5294 21.8921 20.7586 21.9923 21 22C21.254 21.9964 21.4971 21.8963 21.68 21.72C21.8515 21.5351 21.9468 21.2922 21.9468 21.04C21.9468 20.7878 21.8515 20.5449 21.68 20.36L20.36 19L21.72 17.64C21.8915 17.4551 21.9868 17.2122 21.9868 16.96C21.9868 16.7078 21.8915 16.4649 21.72 16.28Z" fill="black"/>
<path d="M23 7V12C23 12.2652 22.8946 12.5196 22.7071 12.7071C22.5196 12.8946 22.2652 13 22 13H19C17.4087 13 15.8826 13.6321 14.7574 14.7574C13.6321 15.8826 13 17.4087 13 19C13 19.2652 12.8946 19.5196 12.7071 19.7071C12.5196 19.8946 12.2652 20 12 20H3.94C3.16026 20 2.41246 19.6903 1.86111 19.1389C1.30975 18.5875 1 17.8397 1 17.06V4C1 3.20435 1.31607 2.44129 1.87868 1.87868C2.44129 1.31607 3.20435 1 4 1H8.93C9.41972 1.00089 9.90177 1.12166 10.3341 1.35175C10.7664 1.58185 11.1358 1.91427 11.41 2.32L12.24 3.56C12.3327 3.69712 12.4579 3.8091 12.6045 3.8859C12.7511 3.96269 12.9145 4.0019 13.08 4H20C20.7956 4 21.5587 4.31607 22.1213 4.87868C22.6839 5.44129 23 6.20435 23 7V7Z" fill="black"/>
</svg>
