<svg width="24" height="24" viewBox="0 0 24 24" fill="none" xmlns="http://www.w3.org/2000/svg">
<path d="M20 6H13.07C12.9053 5.99915 12.7433 5.95763 12.5985 5.87912C12.4538 5.80062 12.3306 5.68756 12.24 5.55L11.43 4.34C11.1562 3.92776 10.7846 3.58968 10.3484 3.35587C9.91217 3.12207 9.42491 2.99982 8.93 3H4C3.20435 3 2.44129 3.31607 1.87868 3.87868C1.31607 4.44129 1 5.20435 1 6V19C1 19.7956 1.31607 20.5587 1.87868 21.1213C2.44129 21.6839 3.20435 22 4 22H20C20.7956 22 21.5587 21.6839 22.1213 21.1213C22.6839 20.5587 23 19.7956 23 19V9C23 8.20435 22.6839 7.44129 22.1213 6.87868C21.5587 6.31607 20.7956 6 20 6ZM15 15H13V17C13 17.2652 12.8946 17.5196 12.7071 17.7071C12.5196 17.8946 12.2652 18 12 18C11.7348 18 11.4804 17.8946 11.2929 17.7071C11.1054 17.5196 11 17.2652 11 17V15H9C8.73478 15 8.48043 14.8946 8.29289 14.7071C8.10536 14.5196 8 14.2652 8 14C8 13.7348 8.10536 13.4804 8.29289 13.2929C8.48043 13.1054 8.73478 13 9 13H11V11C11 10.7348 11.1054 10.4804 11.2929 10.2929C11.4804 10.1054 11.7348 10 12 10C12.2652 10 12.5196 10.1054 12.7071 10.2929C12.8946 10.4804 13 10.7348 13 11V13H15C15.2652 13 15.5196 13.1054 15.7071 13.2929C15.8946 13.4804 16 13.7348 16 14C16 14.2652 15.8946 14.5196 15.7071 14.7071C15.5196 14.8946 15.2652 15 15 15Z" fill="black"/>
</svg>
