<svg width="24" height="24" viewBox="0 0 24 24" fill="none" xmlns="http://www.w3.org/2000/svg">
<path d="M20.93 19.62C20.8543 19.4358 20.7254 19.2784 20.5597 19.1679C20.394 19.0575 20.1991 18.999 20 19H19V17C19 16.7348 18.8947 16.4804 18.7071 16.2929C18.5196 16.1054 18.2652 16 18 16C17.7348 16 17.4804 16.1054 17.2929 16.2929C17.1054 16.4804 17 16.7348 17 17V19H16C15.8026 18.9988 15.6092 19.0561 15.4443 19.1647C15.2794 19.2733 15.1503 19.4282 15.0733 19.61C14.9963 19.7918 14.9749 19.9923 15.0116 20.1863C15.0484 20.3803 15.1418 20.559 15.28 20.7L17.22 22.7C17.4046 22.8884 17.6562 22.9962 17.92 23V23C18.1775 22.999 18.4246 22.8987 18.61 22.72L20.68 20.72C20.8275 20.5831 20.9303 20.4049 20.9749 20.2086C21.0195 20.0124 21.0039 19.8072 20.93 19.62Z" fill="black"/>
<path d="M18.88 5.99999H15C14.7348 5.99999 14.4804 5.89463 14.2929 5.70709C14.1054 5.51956 14 5.2652 14 4.99999V1.10999C14.5045 1.24237 14.964 1.50838 15.33 1.87999L18.13 4.71999C18.4832 5.07713 18.7411 5.51726 18.88 5.99999Z" fill="black"/>
<path d="M19 8V13C19 13.2652 18.8946 13.5196 18.7071 13.7071C18.5196 13.8946 18.2652 14 18 14C16.4087 14 14.8826 14.6321 13.7574 15.7574C12.6321 16.8826 12 18.4087 12 20V22C12 22.2652 11.8946 22.5196 11.7071 22.7071C11.5196 22.8946 11.2652 23 11 23H6C5.20435 23 4.44129 22.6839 3.87868 22.1213C3.31607 21.5587 3 20.7956 3 20V4C3 3.20435 3.31607 2.44129 3.87868 1.87868C4.44129 1.31607 5.20435 1 6 1H12V5C12 5.79565 12.3161 6.55871 12.8787 7.12132C13.4413 7.68393 14.2044 8 15 8H19Z" fill="black"/>
</svg>
