<svg width="24" height="24" viewBox="0 0 24 24" fill="none" xmlns="http://www.w3.org/2000/svg">
<path d="M18 1C16.6739 1 15.4021 1.52678 14.4645 2.46447C13.5268 3.40215 13 4.67392 13 6V9H4C3.20435 9 2.44129 9.31607 1.87868 9.87868C1.31607 10.4413 1 11.2044 1 12V20C1 20.7956 1.31607 21.5587 1.87868 22.1213C2.44129 22.6839 3.20435 23 4 23H16C16.7956 23 17.5587 22.6839 18.1213 22.1213C18.6839 21.5587 19 20.7956 19 20V12C19 11.2044 18.6839 10.4413 18.1213 9.87868C17.5587 9.31607 16.7956 9 16 9H15V6C15 5.20435 15.3161 4.44129 15.8787 3.87868C16.4413 3.31607 17.2044 3 18 3C18.7956 3 19.5587 3.31607 20.1213 3.87868C20.6839 4.44129 21 5.20435 21 6C21 6.26522 21.1054 6.51957 21.2929 6.70711C21.4804 6.89464 21.7348 7 22 7C22.2652 7 22.5196 6.89464 22.7071 6.70711C22.8946 6.51957 23 6.26522 23 6C23 5.34339 22.8707 4.69321 22.6194 4.08658C22.3681 3.47995 21.9998 2.92876 21.5355 2.46447C21.0712 2.00017 20.52 1.63188 19.9134 1.3806C19.3068 1.12933 18.6566 1 18 1V1ZM11 18C11 18.2652 10.8946 18.5196 10.7071 18.7071C10.5196 18.8946 10.2652 19 10 19C9.73478 19 9.48043 18.8946 9.29289 18.7071C9.10536 18.5196 9 18.2652 9 18V17C9 16.7348 9.10536 16.4804 9.29289 16.2929C9.48043 16.1054 9.73478 16 10 16C10.2652 16 10.5196 16.1054 10.7071 16.2929C10.8946 16.4804 11 16.7348 11 17V18Z" fill="black"/>
</svg>
