<svg width="24" height="24" viewBox="0 0 24 24" fill="none" xmlns="http://www.w3.org/2000/svg">
<path d="M16 8C15.2044 8 14.4413 7.68393 13.8787 7.12132C13.3161 6.55871 13 5.79565 13 5V1H7C6.20435 1 5.44129 1.31607 4.87868 1.87868C4.31607 2.44129 4 3.20435 4 4V20C4 20.7956 4.31607 21.5587 4.87868 22.1213C5.44129 22.6839 6.20435 23 7 23H17C17.7956 23 18.5587 22.6839 19.1213 22.1213C19.6839 21.5587 20 20.7956 20 20V8H16ZM15.83 14.56C15.66 14.81 14.13 17 12 17C9.87 17 8.34 14.81 8.17 14.56C8.05822 14.3946 7.99849 14.1996 7.99849 14C7.99849 13.8004 8.05822 13.6054 8.17 13.44C8.34 13.19 9.87 11 12 11C14.13 11 15.66 13.19 15.83 13.44C15.9418 13.6054 16.0015 13.8004 16.0015 14C16.0015 14.1996 15.9418 14.3946 15.83 14.56V14.56ZM15 5V1.11C15.5037 1.24969 15.9622 1.51857 16.33 1.89L19.13 4.71C19.4847 5.06997 19.7426 5.5137 19.88 6H16C15.7348 6 15.4804 5.89464 15.2929 5.70711C15.1054 5.51957 15 5.26522 15 5ZM12 13C12.6744 13.1093 13.284 13.4658 13.71 14C13.284 14.5342 12.6744 14.8907 12 15C11.3246 14.8935 10.714 14.5364 10.29 14C10.716 13.4658 11.3256 13.1093 12 13Z" fill="black"/>
</svg>
