<svg width="24" height="24" viewBox="0 0 24 24" fill="none" xmlns="http://www.w3.org/2000/svg">
<path d="M21.89 10.15C20.09 7.85 16.41 4 12 4C7.59001 4 3.91001 7.85 2.11001 10.15C1.69642 10.678 1.47168 11.3293 1.47168 12C1.47168 12.6707 1.69642 13.322 2.11001 13.85C3.91001 16.15 7.59001 20 12 20C16.41 20 20.09 16.15 21.89 13.85C22.3036 13.322 22.5283 12.6707 22.5283 12C22.5283 11.3293 22.3036 10.678 21.89 10.15V10.15ZM12 16C11.2089 16 10.4355 15.7654 9.77773 15.3259C9.11993 14.8864 8.60724 14.2616 8.30449 13.5307C8.00174 12.7998 7.92252 11.9956 8.07687 11.2196C8.23121 10.4437 8.61217 9.73098 9.17158 9.17157C9.73099 8.61216 10.4437 8.2312 11.2196 8.07686C11.9956 7.92252 12.7998 8.00173 13.5307 8.30448C14.2616 8.60723 14.8864 9.11992 15.3259 9.77772C15.7654 10.4355 16 11.2089 16 12C16 13.0609 15.5786 14.0783 14.8284 14.8284C14.0783 15.5786 13.0609 16 12 16ZM14 12C14 12.5304 13.7893 13.0391 13.4142 13.4142C13.0391 13.7893 12.5304 14 12 14C11.4696 14 10.9609 13.7893 10.5858 13.4142C10.2107 13.0391 10 12.5304 10 12V11.91C10.1597 11.9705 10.3292 12.001 10.5 12C10.8978 12 11.2794 11.842 11.5607 11.5607C11.842 11.2794 12 10.8978 12 10.5C12.001 10.3292 11.9705 10.1597 11.91 10H12C12.5304 10 13.0391 10.2107 13.4142 10.5858C13.7893 10.9609 14 11.4696 14 12Z" fill="black"/>
</svg>
