<svg width="24" height="24" viewBox="0 0 24 24" fill="none" xmlns="http://www.w3.org/2000/svg">
<path d="M16 8C15.2044 8 14.4413 7.68393 13.8787 7.12132C13.3161 6.55871 13 5.79565 13 5V1H7C6.20435 1 5.44129 1.31607 4.87868 1.87868C4.31607 2.44129 4 3.20435 4 4V20C4 20.7956 4.31607 21.5587 4.87868 22.1213C5.44129 22.6839 6.20435 23 7 23H17C17.7956 23 18.5587 22.6839 19.1213 22.1213C19.6839 21.5587 20 20.7956 20 20V8H16ZM14.83 14.56L12.83 17.56C12.7383 17.6957 12.6146 17.8068 12.4699 17.8835C12.3252 17.9603 12.1638 18.0002 12 18C11.8362 18.0002 11.6748 17.9603 11.5301 17.8835C11.3854 17.8068 11.2617 17.6957 11.17 17.56L9.17 14.56C9.07451 14.4124 9.01961 14.2423 9.01083 14.0667C9.00205 13.8911 9.03971 13.7164 9.12 13.56C9.20095 13.3947 9.32594 13.255 9.4812 13.1562C9.63647 13.0574 9.81599 13.0033 10 13H11V10C11 9.73478 11.1054 9.48043 11.2929 9.29289C11.4804 9.10536 11.7348 9 12 9C12.2652 9 12.5196 9.10536 12.7071 9.29289C12.8946 9.48043 13 9.73478 13 10V13H14C14.1817 12.9997 14.36 13.0489 14.5158 13.1424C14.6716 13.2358 14.799 13.3699 14.8843 13.5303C14.9697 13.6907 15.0097 13.8713 15.0001 14.0527C14.9905 14.2341 14.9317 14.4095 14.83 14.56V14.56ZM15 5V1.11C15.5037 1.24969 15.9622 1.51857 16.33 1.89L19.13 4.71C19.4847 5.06997 19.7426 5.5137 19.88 6H16C15.7348 6 15.4804 5.89464 15.2929 5.70711C15.1054 5.51957 15 5.26522 15 5Z" fill="black"/>
</svg>
