<svg width="24" height="24" viewBox="0 0 24 24" fill="none" xmlns="http://www.w3.org/2000/svg">
<path d="M21.3899 15.31C21.1802 15.1124 20.903 15.0023 20.6149 15.0023C20.3268 15.0023 20.0496 15.1124 19.8399 15.31L15.9999 19.19C15.88 19.3104 15.7909 19.4579 15.7399 19.62L15.0899 21.55C15.025 21.7447 15.0158 21.9538 15.0636 22.1535C15.1113 22.3532 15.2139 22.5356 15.3599 22.68C15.4603 22.7821 15.5802 22.8631 15.7125 22.9181C15.8447 22.973 15.9867 23.0009 16.1299 23C16.2492 23.001 16.3678 22.9807 16.4799 22.94L18.4199 22.3C18.5807 22.2414 18.7273 22.1494 18.8499 22.03L22.7199 18.16C22.8239 18.0584 22.9066 17.9371 22.963 17.8032C23.0195 17.6692 23.0485 17.5253 23.0485 17.38C23.0485 17.2346 23.0195 17.0907 22.963 16.9568C22.9066 16.8228 22.8239 16.7015 22.7199 16.6L21.3899 15.31Z" fill="black"/>
<path d="M23 7V12C23 12.2652 22.8946 12.5196 22.7071 12.7071C22.5196 12.8946 22.2652 13 22 13H19C17.4087 13 15.8826 13.6321 14.7574 14.7574C13.6321 15.8826 13 17.4087 13 19C13 19.2652 12.8946 19.5196 12.7071 19.7071C12.5196 19.8946 12.2652 20 12 20H3.94C3.16026 20 2.41246 19.6903 1.86111 19.1389C1.30975 18.5875 1 17.8397 1 17.06V4C1 3.20435 1.31607 2.44129 1.87868 1.87868C2.44129 1.31607 3.20435 1 4 1H8.93C9.41972 1.00089 9.90177 1.12166 10.3341 1.35175C10.7664 1.58185 11.1358 1.91427 11.41 2.32L12.24 3.56C12.3327 3.69712 12.4579 3.8091 12.6045 3.8859C12.7511 3.96269 12.9145 4.0019 13.08 4H20C20.7956 4 21.5587 4.31607 22.1213 4.87868C22.6839 5.44129 23 6.20435 23 7V7Z" fill="black"/>
</svg>
