<svg width="24" height="24" viewBox="0 0 24 24" fill="none" xmlns="http://www.w3.org/2000/svg">
<path d="M19.78 4.22C18.5008 2.94136 16.926 1.99789 15.1951 1.47313C13.4642 0.94838 11.6306 0.858538 9.85667 1.21156C8.08276 1.56459 6.42327 2.34958 5.02515 3.49704C3.62703 4.6445 2.53343 6.119 1.84119 7.78999C1.14896 9.46097 0.879436 11.2769 1.0565 13.0769C1.23357 14.8769 1.85176 16.6055 2.85634 18.1095C3.86091 19.6136 5.22086 20.8467 6.81577 21.6998C8.41067 22.5528 10.1913 22.9994 12 23C14.9163 23.0036 17.7147 21.849 19.78 19.79C20.8035 18.7683 21.6155 17.5548 22.1695 16.219C22.7235 14.8831 23.0087 13.4512 23.0087 12.005C23.0087 10.5588 22.7235 9.12686 22.1695 7.79102C21.6155 6.45518 20.8035 5.2417 19.78 4.22V4.22ZM16.24 14.83C16.4263 15.0174 16.5308 15.2708 16.5308 15.535C16.5308 15.7992 16.4263 16.0526 16.24 16.24C16.0527 16.4263 15.7992 16.5308 15.535 16.5308C15.2708 16.5308 15.0174 16.4263 14.83 16.24L12 13.41L9.17001 16.24C8.98265 16.4263 8.7292 16.5308 8.46501 16.5308C8.20083 16.5308 7.94738 16.4263 7.76001 16.24C7.57376 16.0526 7.46922 15.7992 7.46922 15.535C7.46922 15.2708 7.57376 15.0174 7.76001 14.83L10.59 12L7.76001 9.17C7.59619 8.9787 7.51058 8.73262 7.5203 8.48095C7.53002 8.22927 7.63435 7.99053 7.81245 7.81244C7.99054 7.63434 8.22928 7.53001 8.48096 7.52029C8.73264 7.51057 8.97871 7.59617 9.17001 7.76L12 10.59L14.83 7.76C14.9197 7.65532 15.03 7.5703 15.154 7.51027C15.2781 7.45025 15.4132 7.41652 15.551 7.4112C15.6887 7.40588 15.826 7.42909 15.9543 7.47936C16.0827 7.52964 16.1992 7.60589 16.2967 7.70335C16.3941 7.8008 16.4704 7.91735 16.5207 8.04568C16.5709 8.174 16.5941 8.31133 16.5888 8.44905C16.5835 8.58677 16.5498 8.72191 16.4897 8.84597C16.4297 8.97003 16.3447 9.08035 16.24 9.17L13.41 12L16.24 14.83Z" fill="black"/>
</svg>
