<svg width="24" height="24" viewBox="0 0 24 24" fill="none" xmlns="http://www.w3.org/2000/svg">
<path d="M22.71 20.29C22.8037 20.383 22.8781 20.4936 22.9289 20.6154C22.9797 20.7373 23.0058 20.868 23.0058 21C23.0058 21.132 22.9797 21.2627 22.9289 21.3846C22.8781 21.5065 22.8037 21.6171 22.71 21.71C22.617 21.8037 22.5064 21.8781 22.3846 21.9289C22.2627 21.9797 22.132 22.0058 22 22.0058C21.868 22.0058 21.7373 21.9797 21.6154 21.9289C21.4936 21.8781 21.383 21.8037 21.29 21.71L20.29 20.71C19.6515 21.0158 18.9254 21.0859 18.2402 20.908C17.555 20.73 16.9547 20.3154 16.5457 19.7376C16.1366 19.1598 15.9451 18.4559 16.005 17.7505C16.0649 17.0451 16.3723 16.3836 16.8729 15.883C17.3735 15.3824 18.0351 15.0749 18.7405 15.015C19.4459 14.9551 20.1498 15.1467 20.7276 15.5557C21.3054 15.9647 21.72 16.565 21.8979 17.2502C22.0759 17.9354 22.0058 18.6615 21.7 19.3L22.71 20.29ZM19 19C19.2624 18.9989 19.5138 18.8948 19.7 18.71V18.71C19.7945 18.6174 19.8697 18.507 19.9212 18.3851C19.9727 18.2632 19.9995 18.1323 20 18C20 17.8022 19.9414 17.6089 19.8315 17.4445C19.7216 17.28 19.5654 17.1518 19.3827 17.0761C19.2 17.0005 18.9989 16.9807 18.8049 17.0192C18.6109 17.0578 18.4328 17.1531 18.2929 17.2929C18.1531 17.4328 18.0578 17.6109 18.0192 17.8049C17.9806 17.9989 18.0004 18.2 18.0761 18.3827C18.1518 18.5654 18.28 18.7216 18.4444 18.8315C18.6089 18.9414 18.8022 19 19 19Z" fill="black"/>
<path d="M23 7V12C23 12.2652 22.8946 12.5196 22.7071 12.7071C22.5196 12.8946 22.2652 13 22 13H19C17.4087 13 15.8826 13.6321 14.7574 14.7574C13.6321 15.8826 13 17.4087 13 19C13 19.2652 12.8946 19.5196 12.7071 19.7071C12.5196 19.8946 12.2652 20 12 20H3.94C3.16026 20 2.41246 19.6903 1.86111 19.1389C1.30975 18.5875 1 17.8397 1 17.06V4C1 3.20435 1.31607 2.44129 1.87868 1.87868C2.44129 1.31607 3.20435 1 4 1H8.93C9.41972 1.00089 9.90177 1.12166 10.3341 1.35175C10.7664 1.58185 11.1358 1.91427 11.41 2.32L12.24 3.56C12.3327 3.69712 12.4579 3.8091 12.6045 3.8859C12.7511 3.96269 12.9145 4.0019 13.08 4H20C20.7956 4 21.5587 4.31607 22.1213 4.87868C22.6839 5.44129 23 6.20435 23 7V7Z" fill="black"/>
</svg>
