<svg width="24" height="24" viewBox="0 0 24 24" fill="none" xmlns="http://www.w3.org/2000/svg">
<path d="M22.83 17.44C22.9418 17.6054 23.0015 17.8004 23.0015 18C23.0015 18.1996 22.9418 18.3946 22.83 18.56C22.66 18.81 21.13 21 19 21C16.87 21 15.34 18.81 15.17 18.56C15.0583 18.3946 14.9985 18.1996 14.9985 18C14.9985 17.8004 15.0583 17.6054 15.17 17.44C15.34 17.19 16.87 15 19 15C21.13 15 22.66 17.19 22.83 17.44ZM20.71 18C20.2841 17.4658 19.6745 17.1093 19 17C18.3263 17.1112 17.7173 17.4673 17.29 18C17.7141 18.5364 18.3246 18.8935 19 19C19.6738 18.8888 20.2828 18.5327 20.71 18Z" fill="black"/>
<path d="M23 7V12C23 12.2652 22.8946 12.5196 22.7071 12.7071C22.5196 12.8946 22.2652 13 22 13H19C17.4087 13 15.8826 13.6321 14.7574 14.7574C13.6321 15.8826 13 17.4087 13 19C13 19.2652 12.8946 19.5196 12.7071 19.7071C12.5196 19.8946 12.2652 20 12 20H3.94C3.16026 20 2.41246 19.6903 1.86111 19.1389C1.30975 18.5875 1 17.8397 1 17.06V4C1 3.20435 1.31607 2.44129 1.87868 1.87868C2.44129 1.31607 3.20435 1 4 1H8.93C9.41972 1.00089 9.90177 1.12166 10.3341 1.35175C10.7664 1.58185 11.1358 1.91427 11.41 2.32L12.24 3.56C12.3327 3.69712 12.4579 3.8091 12.6045 3.8859C12.7511 3.96269 12.9145 4.0019 13.08 4H20C20.7956 4 21.5587 4.31607 22.1213 4.87868C22.6839 5.44129 23 6.20435 23 7V7Z" fill="black"/>
</svg>
