<svg width="24" height="24" viewBox="0 0 24 24" fill="none" xmlns="http://www.w3.org/2000/svg">
<path d="M20 4.21V19.79C20.0105 20.3929 19.851 20.9865 19.5397 21.503C19.2285 22.0194 18.778 22.4377 18.24 22.71C17.7592 22.9435 17.2218 23.0355 16.6907 22.9753C16.1595 22.9151 15.6564 22.7052 15.24 22.37L12.56 20.26C12.4079 20.1349 12.217 20.0664 12.02 20.0664C11.823 20.0664 11.6322 20.1349 11.48 20.26L8.78002 22.37C8.36473 22.7074 7.86145 22.9187 7.32978 22.979C6.7981 23.0392 6.26029 22.9459 5.78002 22.71C5.23829 22.4405 4.78374 22.0234 4.4688 21.5068C4.15387 20.9901 3.99136 20.395 4.00002 19.79V4.21C3.97569 3.38746 4.2773 2.58861 4.83918 1.98739C5.40107 1.38618 6.17772 1.03129 7.00002 1H17C17.8223 1.03129 18.599 1.38618 19.1609 1.98739C19.7227 2.58861 20.0244 3.38746 20 4.21V4.21Z" fill="black"/>
</svg>
