<svg width="24" height="24" viewBox="0 0 24 24" fill="none" xmlns="http://www.w3.org/2000/svg">
<path d="M20 6H13.07C12.9053 5.99915 12.7433 5.95763 12.5985 5.87912C12.4538 5.80062 12.3306 5.68756 12.24 5.55L11.43 4.34C11.1562 3.92776 10.7846 3.58968 10.3484 3.35587C9.91217 3.12207 9.42491 2.99982 8.93 3H4C3.20435 3 2.44129 3.31607 1.87868 3.87868C1.31607 4.44129 1 5.20435 1 6V19C1 19.7956 1.31607 20.5587 1.87868 21.1213C2.44129 21.6839 3.20435 22 4 22H20C20.7956 22 21.5587 21.6839 22.1213 21.1213C22.6839 20.5587 23 19.7956 23 19V9C23 8.20435 22.6839 7.44129 22.1213 6.87868C21.5587 6.31607 20.7956 6 20 6ZM15.67 13.81L14.35 14.76L14.85 16.31C14.9161 16.5108 14.9168 16.7273 14.8521 16.9285C14.7874 17.1298 14.6607 17.3053 14.49 17.43C14.3167 17.5507 14.1112 17.6169 13.9 17.62C13.6891 17.6151 13.4841 17.5491 13.31 17.43L12 16.43L10.69 17.43C10.5187 17.5551 10.3121 17.6226 10.1 17.6226C9.88788 17.6226 9.68126 17.5551 9.51 17.43C9.33933 17.3053 9.21256 17.1298 9.14788 16.9285C9.0832 16.7273 9.08394 16.5108 9.15 16.31L9.65 14.76L8.33 13.81C8.16461 13.6814 8.04378 13.5041 7.98457 13.3032C7.92535 13.1022 7.93075 12.8877 8 12.69C8.06781 12.4812 8.20247 12.3004 8.3832 12.1757C8.56393 12.051 8.78068 11.9893 9 12H10.63L11.13 10.46C11.1958 10.2599 11.323 10.0857 11.4936 9.96223C11.6642 9.83874 11.8694 9.77225 12.08 9.77225C12.2906 9.77225 12.4958 9.83874 12.6664 9.96223C12.837 10.0857 12.9642 10.2599 13.03 10.46L13.53 12H15.16C15.3793 11.9893 15.5961 12.051 15.7768 12.1757C15.9575 12.3004 16.0922 12.4812 16.16 12.69C16.2137 12.9046 16.1947 13.1309 16.1061 13.3336C16.0174 13.5363 15.864 13.7038 15.67 13.81Z" fill="black"/>
</svg>
