<svg width="24" height="24" viewBox="0 0 24 24" fill="none" xmlns="http://www.w3.org/2000/svg">
<path d="M16 8C15.2044 8 14.4413 7.68393 13.8787 7.12132C13.3161 6.55871 13 5.79565 13 5V1H7C6.20435 1 5.44129 1.31607 4.87868 1.87868C4.31607 2.44129 4 3.20435 4 4V20C4 20.7956 4.31607 21.5587 4.87868 22.1213C5.44129 22.6839 6.20435 23 7 23H17C17.7956 23 18.5587 22.6839 19.1213 22.1213C19.6839 21.5587 20 20.7956 20 20V8H16ZM15.67 13.81L14.35 14.76L14.85 16.31C14.9161 16.5108 14.9168 16.7273 14.8521 16.9285C14.7874 17.1298 14.6607 17.3053 14.49 17.43C14.3167 17.5507 14.1112 17.6169 13.9 17.62C13.6891 17.6151 13.4841 17.5491 13.31 17.43L12 16.43L10.69 17.43C10.5187 17.5551 10.3121 17.6226 10.1 17.6226C9.88788 17.6226 9.68126 17.5551 9.51 17.43C9.33933 17.3053 9.21256 17.1298 9.14788 16.9285C9.0832 16.7273 9.08394 16.5108 9.15 16.31L9.65 14.76L8.33 13.81C8.16461 13.6814 8.04378 13.5041 7.98457 13.3032C7.92535 13.1022 7.93075 12.8877 8 12.69C8.06781 12.4812 8.20247 12.3004 8.3832 12.1757C8.56393 12.051 8.78068 11.9893 9 12H10.63L11.13 10.46C11.1958 10.2599 11.323 10.0857 11.4936 9.96223C11.6642 9.83874 11.8694 9.77225 12.08 9.77225C12.2906 9.77225 12.4958 9.83874 12.6664 9.96223C12.837 10.0857 12.9642 10.2599 13.03 10.46L13.53 12H15.16C15.3793 11.9893 15.5961 12.051 15.7768 12.1757C15.9575 12.3004 16.0922 12.4812 16.16 12.69C16.2137 12.9046 16.1947 13.1309 16.1061 13.3336C16.0174 13.5363 15.864 13.7038 15.67 13.81ZM15 5V1.11C15.5037 1.24969 15.9622 1.51857 16.33 1.89L19.13 4.71C19.4847 5.06997 19.7426 5.5137 19.88 6H16C15.7348 6 15.4804 5.89464 15.2929 5.70711C15.1054 5.51957 15 5.26522 15 5Z" fill="black"/>
</svg>
