<svg width="24" height="24" viewBox="0 0 24 24" fill="none" xmlns="http://www.w3.org/2000/svg">
<path d="M20 8V20C20 20.7956 19.6839 21.5587 19.1213 22.1213C18.5587 22.6839 17.7956 23 17 23H7C6.20435 23 5.44129 22.6839 4.87868 22.1213C4.31607 21.5587 4 20.7956 4 20V4C4 3.20435 4.31607 2.44129 4.87868 1.87868C5.44129 1.31607 6.20435 1 7 1H13V5C13 5.79565 13.3161 6.55871 13.8787 7.12132C14.4413 7.68393 15.2044 8 16 8H20ZM16 6H19.88C19.7426 5.5137 19.4847 5.06997 19.13 4.71L16.33 1.89C15.9622 1.51857 15.5037 1.24969 15 1.11V5C15 5.26522 15.1054 5.51957 15.2929 5.70711C15.4804 5.89464 15.7348 6 16 6Z" fill="black"/>
</svg>
