<svg width="24" height="24" viewBox="0 0 24 24" fill="none" xmlns="http://www.w3.org/2000/svg">
<path d="M17 1H7.00002C6.17772 1.03129 5.40107 1.38618 4.83918 1.98739C4.2773 2.58861 3.97569 3.38746 4.00002 4.21V19.79C3.98952 20.3929 4.14904 20.9865 4.46031 21.503C4.77158 22.0194 5.22202 22.4377 5.76002 22.71C6.24029 22.9459 6.7781 23.0392 7.30978 22.979C7.84145 22.9187 8.34473 22.7074 8.76002 22.37L11.44 20.26C11.5922 20.1349 11.783 20.0664 11.98 20.0664C12.177 20.0664 12.3679 20.1349 12.52 20.26L15.2 22.37C15.6164 22.7052 16.1195 22.9151 16.6507 22.9753C17.1818 23.0355 17.7192 22.9435 18.2 22.71C18.7455 22.4433 19.2042 22.0274 19.5228 21.5106C19.8414 20.9937 20.0069 20.3971 20 19.79V4.21C20.0244 3.38746 19.7227 2.58861 19.1609 1.98739C18.599 1.38618 17.8223 1.03129 17 1V1ZM14 9H10C9.73481 9 9.48045 8.89464 9.29292 8.70711C9.10538 8.51957 9.00002 8.26522 9.00002 8C9.00002 7.73478 9.10538 7.48043 9.29292 7.29289C9.48045 7.10536 9.73481 7 10 7H14C14.2652 7 14.5196 7.10536 14.7071 7.29289C14.8947 7.48043 15 7.73478 15 8C15 8.26522 14.8947 8.51957 14.7071 8.70711C14.5196 8.89464 14.2652 9 14 9Z" fill="black"/>
</svg>
