<svg width="24" height="24" viewBox="0 0 24 24" fill="none" xmlns="http://www.w3.org/2000/svg">
<path d="M7.99994 3.99994C7.99938 3.86069 8.0279 3.72286 8.08369 3.59527C8.13947 3.46768 8.22129 3.35315 8.3239 3.25901C8.42651 3.16487 8.54765 3.0932 8.67957 3.04859C8.81148 3.00398 8.95125 2.98741 9.08994 2.99994C9.55635 3.01925 10.0113 3.15009 10.4167 3.3815C10.8221 3.61292 11.1662 3.93815 11.4199 4.32994L12.2399 5.53994C12.3305 5.6775 12.4537 5.79056 12.5985 5.86906C12.7433 5.94757 12.9052 5.98909 13.0699 5.98994H19.9999C20.7956 5.98994 21.5587 6.30601 22.1213 6.86862C22.6839 7.43123 22.9999 8.19429 22.9999 8.98994V16.8699C22.9999 17.1352 22.8946 17.3895 22.707 17.577C22.5195 17.7646 22.2652 17.8699 21.9999 17.8699C21.7347 17.8699 21.4804 17.7646 21.2928 17.577C21.1053 17.3895 20.9999 17.1352 20.9999 16.8699V8.99994C20.9999 8.73472 20.8946 8.48037 20.707 8.29283C20.5195 8.1053 20.2652 7.99994 19.9999 7.99994H13.0699C12.5767 7.99848 12.0915 7.87544 11.6572 7.64171C11.2228 7.40798 10.8529 7.07077 10.5799 6.65994L9.75994 5.44994C9.67982 5.31841 9.56861 5.20859 9.43608 5.13012C9.30356 5.05165 9.15379 5.00695 8.99994 4.99994C8.73472 4.99994 8.48037 4.89458 8.29283 4.70705C8.1053 4.51951 7.99994 4.26516 7.99994 3.99994ZM22.7099 21.1499L2.70994 1.28994C2.52164 1.10164 2.26624 0.99585 1.99994 0.99585C1.73364 0.99585 1.47824 1.10164 1.28994 1.28994C1.10164 1.47824 0.99585 1.73364 0.99585 1.99994C0.99585 2.26624 1.10164 2.52164 1.28994 2.70994L2.18994 3.60994C1.82054 3.88941 1.52087 4.25062 1.31442 4.66527C1.10796 5.07991 1.00032 5.53674 0.999941 5.99994V17.9999C0.999941 18.7956 1.31601 19.5587 1.87862 20.1213C2.44123 20.6839 3.20429 20.9999 3.99994 20.9999H19.7099L21.2899 22.5699C21.3834 22.6626 21.4942 22.7359 21.616 22.7857C21.7379 22.8355 21.8683 22.8607 21.9999 22.8599C22.1315 22.8607 22.262 22.8355 22.3838 22.7857C22.5057 22.7359 22.6165 22.6626 22.7099 22.5699C22.8037 22.477 22.8781 22.3664 22.9288 22.2445C22.9796 22.1227 23.0057 21.992 23.0057 21.8599C23.0057 21.7279 22.9796 21.5972 22.9288 21.4754C22.8781 21.3535 22.8037 21.2429 22.7099 21.1499V21.1499Z" fill="black"/>
</svg>
