<svg width="24" height="24" viewBox="0 0 24 24" fill="none" xmlns="http://www.w3.org/2000/svg">
<path d="M12 1C9.82441 1 7.69767 1.64514 5.88873 2.85383C4.07979 4.06253 2.66989 5.78049 1.83733 7.79048C1.00477 9.80047 0.786929 12.0122 1.21137 14.146C1.6358 16.2798 2.68345 18.2398 4.22183 19.7782C5.76021 21.3166 7.72022 22.3642 9.85401 22.7886C11.9878 23.2131 14.1995 22.9952 16.2095 22.1627C18.2195 21.3301 19.9375 19.9202 21.1462 18.1113C22.3549 16.3023 23 14.1756 23 12C23 9.08262 21.8411 6.28473 19.7782 4.22183C17.7153 2.15893 14.9174 1 12 1V1ZM15.15 12.71L10.27 17.59C10.177 17.6837 10.0664 17.7581 9.94458 17.8089C9.82272 17.8597 9.69202 17.8858 9.56001 17.8858C9.42799 17.8858 9.29729 17.8597 9.17543 17.8089C9.05357 17.7581 8.94297 17.6837 8.85001 17.59C8.75628 17.497 8.68188 17.3864 8.63111 17.2646C8.58034 17.1427 8.55421 17.012 8.55421 16.88C8.55421 16.748 8.58034 16.6173 8.63111 16.4954C8.68188 16.3736 8.75628 16.263 8.85001 16.17L13 12L8.85001 7.83C8.75677 7.73676 8.68281 7.62607 8.63235 7.50425C8.58188 7.38243 8.55591 7.25186 8.55591 7.12C8.55591 6.98814 8.58188 6.85757 8.63235 6.73575C8.68281 6.61393 8.75677 6.50324 8.85001 6.41C8.94324 6.31676 9.05393 6.2428 9.17576 6.19234C9.29758 6.14188 9.42815 6.11591 9.56001 6.11591C9.69186 6.11591 9.82243 6.14188 9.94425 6.19234C10.0661 6.2428 10.1768 6.31676 10.27 6.41L15.15 11.29C15.2437 11.383 15.3181 11.4936 15.3689 11.6154C15.4197 11.7373 15.4458 11.868 15.4458 12C15.4458 12.132 15.4197 12.2627 15.3689 12.3846C15.3181 12.5064 15.2437 12.617 15.15 12.71V12.71Z" fill="black"/>
</svg>
