<svg width="24" height="24" viewBox="0 0 24 24" fill="none" xmlns="http://www.w3.org/2000/svg">
<path d="M17 9C17 10.5823 16.5308 12.129 15.6518 13.4446C14.7727 14.7602 13.5233 15.7855 12.0615 16.391C10.5997 16.9965 8.99113 17.155 7.43928 16.8463C5.88743 16.5376 4.46197 15.7757 3.34315 14.6569C2.22433 13.538 1.4624 12.1126 1.15372 10.5607C0.84504 9.00887 1.00347 7.40034 1.60897 5.93853C2.21447 4.47672 3.23985 3.22729 4.55544 2.34824C5.87103 1.46919 7.41775 1 9 1C11.1217 1 13.1566 1.84285 14.6569 3.34315C16.1571 4.84344 17 6.87827 17 9ZM22.71 21.29L17.71 16.29C17.6168 16.1968 17.5061 16.1228 17.3843 16.0723C17.2624 16.0219 17.1319 15.9959 17 15.9959C16.8681 15.9959 16.7376 16.0219 16.6158 16.0723C16.4939 16.1228 16.3832 16.1968 16.29 16.29C16.1968 16.3832 16.1228 16.4939 16.0723 16.6158C16.0219 16.7376 15.9959 16.8681 15.9959 17C15.9959 17.1319 16.0219 17.2624 16.0723 17.3842C16.1228 17.5061 16.1968 17.6168 16.29 17.71L21.29 22.71C21.383 22.8037 21.4936 22.8781 21.6154 22.9289C21.7373 22.9797 21.868 23.0058 22 23.0058C22.132 23.0058 22.2627 22.9797 22.3846 22.9289C22.5064 22.8781 22.617 22.8037 22.71 22.71C22.8037 22.617 22.8781 22.5064 22.9289 22.3846C22.9797 22.2627 23.0058 22.132 23.0058 22C23.0058 21.868 22.9797 21.7373 22.9289 21.6154C22.8781 21.4936 22.8037 21.383 22.71 21.29V21.29Z" fill="black"/>
</svg>
