<svg width="24" height="24" viewBox="0 0 24 24" fill="none" xmlns="http://www.w3.org/2000/svg">
<path d="M20.9999 18.6001C20.9428 18.4251 20.8317 18.2728 20.6826 18.165C20.5335 18.0572 20.354 17.9994 20.1699 18.0001H18.7999L18.3599 16.6601C18.3047 16.4859 18.1955 16.3339 18.048 16.226C17.9006 16.1181 17.7226 16.06 17.5399 16.0601C17.3563 16.0609 17.1775 16.1193 17.0287 16.2269C16.8798 16.3345 16.7684 16.4859 16.7099 16.6601L16.2799 18.0001H14.8699C14.6856 17.9979 14.5053 18.055 14.3559 18.163C14.2064 18.2711 14.0957 18.4243 14.0399 18.6001C13.9777 18.778 13.9743 18.9712 14.0301 19.1512C14.0859 19.3312 14.198 19.4885 14.3499 19.6001L15.4999 20.4301L15.0699 21.7701C15.0008 21.9472 14.9938 22.1426 15.0501 22.3243C15.1064 22.5059 15.2227 22.6631 15.3799 22.7701C15.5264 22.8729 15.701 22.9281 15.8799 22.9281C16.0589 22.9281 16.2335 22.8729 16.3799 22.7701L17.5199 21.9401L18.6599 22.7701C18.8077 22.8791 18.9863 22.9387 19.1699 22.9401C19.3534 22.9373 19.5315 22.8779 19.6799 22.7701C19.8345 22.6607 19.9486 22.5035 20.0047 22.3227C20.0607 22.1419 20.0555 21.9476 19.9899 21.7701L19.5599 20.4301L20.6999 19.6001C20.8514 19.4883 20.9625 19.3304 21.0166 19.1501C21.0707 18.9698 21.0649 18.7768 20.9999 18.6001V18.6001Z" fill="black"/>
<path d="M18.88 5.99999H15C14.7348 5.99999 14.4804 5.89463 14.2929 5.70709C14.1054 5.51956 14 5.2652 14 4.99999V1.10999C14.5045 1.24237 14.964 1.50838 15.33 1.87999L18.13 4.71999C18.4832 5.07713 18.7411 5.51726 18.88 5.99999Z" fill="black"/>
<path d="M19 8V13C19 13.2652 18.8946 13.5196 18.7071 13.7071C18.5196 13.8946 18.2652 14 18 14C16.4087 14 14.8826 14.6321 13.7574 15.7574C12.6321 16.8826 12 18.4087 12 20V22C12 22.2652 11.8946 22.5196 11.7071 22.7071C11.5196 22.8946 11.2652 23 11 23H6C5.20435 23 4.44129 22.6839 3.87868 22.1213C3.31607 21.5587 3 20.7956 3 20V4C3 3.20435 3.31607 2.44129 3.87868 1.87868C4.44129 1.31607 5.20435 1 6 1H12V5C12 5.79565 12.3161 6.55871 12.8787 7.12132C13.4413 7.68393 14.2044 8 15 8H19Z" fill="black"/>
</svg>
