<svg width="24" height="24" viewBox="0 0 24 24" fill="none" xmlns="http://www.w3.org/2000/svg">
<path d="M12 22C12.2652 22 12.5196 21.8946 12.7071 21.7071C12.8946 21.5196 13 21.2652 13 21H11C11 21.2652 11.1054 21.5196 11.2929 21.7071C11.4804 21.8946 11.7348 22 12 22Z" fill="black"/>
<path d="M10.4599 5.18C10.9643 5.05924 11.4813 4.99882 11.9999 5C15.3099 5 17.9999 7.32 17.9999 10.18V11.94C17.9999 12.2052 18.1053 12.4596 18.2928 12.6471C18.4803 12.8346 18.7347 12.94 18.9999 12.94C19.2651 12.94 19.5195 12.8346 19.707 12.6471C19.8946 12.4596 19.9999 12.2052 19.9999 11.94V10.18C19.9999 6.52 16.9399 3.51 12.9999 3.06V2C12.9999 1.73478 12.8946 1.48043 12.707 1.29289C12.5195 1.10536 12.2651 1 11.9999 1C11.7347 1 11.4803 1.10536 11.2928 1.29289C11.1053 1.48043 10.9999 1.73478 10.9999 2V3.06C10.6634 3.09635 10.3295 3.15312 9.99991 3.23C9.74133 3.291 9.51756 3.45222 9.37785 3.67821C9.23814 3.90419 9.19391 4.17641 9.25491 4.435C9.31591 4.69359 9.47714 4.91735 9.70312 5.05706C9.9291 5.19678 10.2013 5.241 10.4599 5.18V5.18Z" fill="black"/>
<path d="M22.7099 21.29L2.70994 1.29C2.52164 1.1017 2.26624 0.995911 1.99994 0.995911C1.73364 0.995911 1.47824 1.1017 1.28994 1.29C1.10164 1.47831 0.99585 1.7337 0.99585 2C0.99585 2.2663 1.10164 2.5217 1.28994 2.71L5.12994 6.54C4.39746 7.6129 4.00381 8.88092 3.99994 10.18V14.63C3.43392 14.7985 2.93568 15.1417 2.57647 15.6105C2.21725 16.0793 2.01546 16.6496 1.99994 17.24C2.00041 17.619 2.08184 17.9934 2.23878 18.3384C2.39572 18.6833 2.62455 18.9907 2.90994 19.24C3.48961 19.7415 4.23357 20.012 4.99994 20H18.5899L21.2899 22.71C21.3829 22.8037 21.4935 22.8781 21.6154 22.9289C21.7372 22.9797 21.8679 23.0058 21.9999 23.0058C22.132 23.0058 22.2627 22.9797 22.3845 22.9289C22.5064 22.8781 22.617 22.8037 22.7099 22.71C22.8037 22.617 22.8781 22.5064 22.9288 22.3846C22.9796 22.2627 23.0057 22.132 23.0057 22C23.0057 21.868 22.9796 21.7373 22.9288 21.6154C22.8781 21.4936 22.8037 21.383 22.7099 21.29V21.29Z" fill="black"/>
</svg>
