<svg width="24" height="24" viewBox="0 0 24 24" fill="none" xmlns="http://www.w3.org/2000/svg">
<path d="M10 6H2C1.73478 6 1.48043 6.10536 1.29289 6.29289C1.10536 6.48043 1 6.73478 1 7C1 7.26522 1.10536 7.51957 1.29289 7.70711C1.48043 7.89464 1.73478 8 2 8H10C10.2652 8 10.5196 7.89464 10.7071 7.70711C10.8946 7.51957 11 7.26522 11 7C11 6.73478 10.8946 6.48043 10.7071 6.29289C10.5196 6.10536 10.2652 6 10 6Z" fill="black"/>
<path d="M22 16H14C13.7348 16 13.4804 16.1054 13.2929 16.2929C13.1054 16.4804 13 16.7348 13 17C13 17.2652 13.1054 17.5196 13.2929 17.7071C13.4804 17.8946 13.7348 18 14 18H22C22.2652 18 22.5196 17.8946 22.7071 17.7071C22.8946 17.5196 23 17.2652 23 17C23 16.7348 22.8946 16.4804 22.7071 16.2929C22.5196 16.1054 22.2652 16 22 16Z" fill="black"/>
<path d="M8 14C7.38106 14.0018 6.7778 14.1949 6.27293 14.553C5.76807 14.911 5.38631 15.4165 5.18 16H2C1.73478 16 1.48043 16.1054 1.29289 16.2929C1.10536 16.4804 1 16.7348 1 17C1 17.2652 1.10536 17.5196 1.29289 17.7071C1.48043 17.8947 1.73478 18 2 18H5.18C5.36345 18.5189 5.68611 18.9773 6.11264 19.3251C6.53918 19.6729 7.05317 19.8966 7.59836 19.9718C8.14355 20.0471 8.69893 19.9709 9.20371 19.7516C9.70849 19.5323 10.1432 19.1784 10.4603 18.7286C10.7775 18.2788 10.9647 17.7504 11.0017 17.2013C11.0386 16.6522 10.9238 16.1035 10.6697 15.6153C10.4157 15.1271 10.0323 14.7181 9.5614 14.4332C9.09052 14.1483 8.55035 13.9985 8 14Z" fill="black"/>
<path d="M16 9.99999C16.6189 9.99825 17.2222 9.80511 17.7271 9.44705C18.2319 9.08899 18.6137 8.58354 18.82 7.99999H22C22.2652 7.99999 22.5196 7.89463 22.7071 7.7071C22.8946 7.51956 23 7.26521 23 6.99999C23 6.73477 22.8946 6.48042 22.7071 6.29288C22.5196 6.10535 22.2652 5.99999 22 5.99999H18.82C18.6365 5.48111 18.3139 5.0227 17.8874 4.67492C17.4608 4.32713 16.9468 4.10338 16.4016 4.02816C15.8565 3.95293 15.3011 4.02913 14.7963 4.2484C14.2915 4.46768 13.8568 4.82159 13.5397 5.2714C13.2225 5.7212 13.0353 6.24958 12.9983 6.79869C12.9614 7.3478 13.0762 7.89649 13.3303 8.38471C13.5843 8.87293 13.9677 9.28187 14.4386 9.56676C14.9095 9.85166 15.4497 10.0015 16 9.99999V9.99999Z" fill="black"/>
</svg>
