<svg width="24" height="24" viewBox="0 0 24 24" fill="none" xmlns="http://www.w3.org/2000/svg">
<path d="M9.47994 4.11994L9.84994 2.99994C9.99713 2.54558 10.2845 2.14954 10.6707 1.86864C11.057 1.58774 11.5223 1.43643 11.9999 1.43643C12.4775 1.43643 12.9429 1.58774 13.3291 1.86864C13.7154 2.14954 14.0028 2.54558 14.1499 2.99994L15.6499 7.59994C15.6683 7.65186 15.7021 7.69692 15.7468 7.72909C15.7914 7.76127 15.8449 7.77901 15.8999 7.77994H20.7399C21.2173 7.78269 21.6816 7.93584 22.0669 8.21761C22.4521 8.49938 22.7388 8.89543 22.8861 9.34947C23.0334 9.80351 23.0338 10.2924 22.8873 10.7467C22.7408 11.201 22.4548 11.5975 22.0699 11.8799L19.5099 13.7399C19.3384 13.8642 19.1318 13.9307 18.9199 13.9299C18.7622 13.9304 18.6065 13.8934 18.4657 13.8222C18.325 13.7509 18.203 13.6473 18.1099 13.5199C18.0322 13.4137 17.9762 13.2931 17.9452 13.1651C17.9141 13.0372 17.9087 12.9043 17.9291 12.7742C17.9496 12.6442 17.9955 12.5194 18.0643 12.4071C18.1331 12.2948 18.2233 12.1972 18.3299 12.1199L20.8899 10.2599C20.9334 10.2338 20.9675 10.1945 20.9872 10.1478C21.007 10.1011 21.0114 10.0493 20.9999 9.99994C20.9844 9.94633 20.9513 9.89948 20.906 9.86686C20.8607 9.83424 20.8057 9.81772 20.7499 9.81994H15.8999C15.4178 9.82412 14.9472 9.67262 14.5581 9.38797C14.1689 9.10331 13.882 8.70069 13.7399 8.23994L12.2499 3.60994C12.2344 3.55561 12.2016 3.50782 12.1565 3.47379C12.1114 3.43976 12.0564 3.42136 11.9999 3.42136C11.9434 3.42136 11.8885 3.43976 11.8434 3.47379C11.7983 3.50782 11.7655 3.55561 11.7499 3.60994L11.3799 4.73994C11.2905 4.98274 11.1105 5.18143 10.8777 5.29427C10.6448 5.4071 10.3773 5.4253 10.1313 5.34504C9.88536 5.26477 9.68007 5.09229 9.5586 4.86384C9.43713 4.63539 9.40894 4.36875 9.47994 4.11994ZM2.70994 1.28994C2.52164 1.10164 2.26624 0.99585 1.99994 0.99585C1.73364 0.99585 1.47824 1.10164 1.28994 1.28994C1.10164 1.47824 0.99585 1.73364 0.99585 1.99994C0.99585 2.26624 1.10164 2.52164 1.28994 2.70994L6.34994 7.76994H3.25994C2.78262 7.77269 2.31831 7.92584 1.93302 8.20761C1.54773 8.48938 1.26107 8.88543 1.11379 9.33947C0.966501 9.79351 0.96609 10.2824 1.11261 10.7367C1.25913 11.191 1.54513 11.5875 1.92994 11.8699L5.84994 14.7099C5.90213 14.7365 5.94468 14.7788 5.97158 14.8308C5.99849 14.8828 6.00841 14.942 5.99994 14.9999L4.49994 19.6099C4.35079 20.0644 4.34966 20.5544 4.49672 21.0096C4.64377 21.4647 4.93143 21.8614 5.31829 22.1427C5.70515 22.4239 6.17127 22.5752 6.64956 22.5747C7.12785 22.5742 7.59366 22.422 7.97994 22.1399L11.8999 19.2899C11.9425 19.2559 11.9954 19.2373 12.0499 19.2373C12.1045 19.2373 12.1574 19.2559 12.1999 19.2899L16.1299 22.1399C16.5132 22.4287 16.98 22.5849 17.4599 22.5849C17.9398 22.5849 18.4067 22.4287 18.7899 22.1399C19.1635 21.8535 19.4337 21.4534 19.5599 20.9999L21.2899 22.7299C21.3829 22.8237 21.4935 22.8981 21.6154 22.9488C21.7372 22.9996 21.8679 23.0257 21.9999 23.0257C22.132 23.0257 22.2627 22.9996 22.3845 22.9488C22.5064 22.8981 22.617 22.8237 22.7099 22.7299C22.8037 22.637 22.8781 22.5264 22.9288 22.4045C22.9796 22.2827 23.0057 22.152 23.0057 22.0199C23.0057 21.8879 22.9796 21.7572 22.9288 21.6354C22.8781 21.5135 22.8037 21.4029 22.7099 21.3099L2.70994 1.28994Z" fill="black"/>
</svg>
