<svg width="24" height="24" viewBox="0 0 24 24" fill="none" xmlns="http://www.w3.org/2000/svg">
<path d="M20 6H13.07C12.9053 5.99915 12.7433 5.95763 12.5985 5.87912C12.4538 5.80062 12.3306 5.68756 12.24 5.55L11.43 4.34C11.1562 3.92776 10.7846 3.58968 10.3484 3.35587C9.91217 3.12207 9.42491 2.99982 8.93 3H4C3.20435 3 2.44129 3.31607 1.87868 3.87868C1.31607 4.44129 1 5.20435 1 6V19C1 19.7956 1.31607 20.5587 1.87868 21.1213C2.44129 21.6839 3.20435 22 4 22H20C20.7956 22 21.5587 21.6839 22.1213 21.1213C22.6839 20.5587 23 19.7956 23 19V9C23 8.20435 22.6839 7.44129 22.1213 6.87868C21.5587 6.31607 20.7956 6 20 6ZM15.7 14.78L13.7 16.72C13.5121 16.9011 13.2609 17.0016 13 17C12.8662 16.9975 12.734 16.9704 12.61 16.92C12.4293 16.8434 12.275 16.7154 12.1666 16.5518C12.0581 16.3882 12.0002 16.1963 12 16V15H9C8.73478 15 8.48043 14.8946 8.29289 14.7071C8.10536 14.5196 8 14.2652 8 14C8 13.7348 8.10536 13.4804 8.29289 13.2929C8.48043 13.1054 8.73478 13 9 13H12V12C11.9988 11.8001 12.0575 11.6045 12.1686 11.4383C12.2796 11.2721 12.4379 11.1431 12.623 11.0677C12.8081 10.9924 13.0116 10.9742 13.2071 11.0156C13.4027 11.057 13.5813 11.1561 13.72 11.3L15.72 13.37C15.9035 13.5603 16.0042 13.8156 16 14.08C15.9962 14.3438 15.8884 14.5954 15.7 14.78V14.78Z" fill="black"/>
</svg>
