<svg width="24" height="24" viewBox="0 0 24 24" fill="none" xmlns="http://www.w3.org/2000/svg">
<path d="M20 6H13.07C12.9053 5.99915 12.7433 5.95763 12.5985 5.87912C12.4538 5.80062 12.3306 5.68756 12.24 5.55L11.43 4.34C11.1562 3.92776 10.7846 3.58968 10.3484 3.35587C9.91217 3.12207 9.42491 2.99982 8.93 3H4C3.20435 3 2.44129 3.31607 1.87868 3.87868C1.31607 4.44129 1 5.20435 1 6V19C1 19.7956 1.31607 20.5587 1.87868 21.1213C2.44129 21.6839 3.20435 22 4 22H20C20.7956 22 21.5587 21.6839 22.1213 21.1213C22.6839 20.5587 23 19.7956 23 19V9C23 8.20435 22.6839 7.44129 22.1213 6.87868C21.5587 6.31607 20.7956 6 20 6ZM14.82 13.32L12 16.11C11.8137 16.2947 11.5623 16.3989 11.3 16.4C11.1677 16.3995 11.0368 16.3727 10.9149 16.3212C10.7931 16.2697 10.6826 16.1945 10.59 16.1L9.17 14.72C8.98375 14.5326 8.87921 14.2792 8.87921 14.015C8.87921 13.7508 8.98375 13.4974 9.17 13.31C9.26296 13.2163 9.37356 13.1419 9.49542 13.0911C9.61728 13.0403 9.74799 13.0142 9.88 13.0142C10.012 13.0142 10.1427 13.0403 10.2646 13.0911C10.3864 13.1419 10.497 13.2163 10.59 13.31L11.27 13.99L13.42 11.89C13.6096 11.7043 13.8652 11.6016 14.1306 11.6044C14.396 11.6073 14.6493 11.7154 14.835 11.905C15.0207 12.0946 15.1234 12.3502 15.1206 12.6156C15.1177 12.881 15.0096 13.1343 14.82 13.32V13.32Z" fill="black"/>
</svg>
