<svg width="24" height="24" viewBox="0 0 24 24" fill="none" xmlns="http://www.w3.org/2000/svg">
<path d="M23 13V18.2C22.9713 18.9684 22.6397 19.6942 22.0776 20.2188C21.5155 20.7435 20.7685 21.0243 20 21H4C3.23147 21.0243 2.48455 20.7435 1.92243 20.2188C1.36031 19.6942 1.02868 18.9684 1 18.2V13C1 12.2044 1.31607 11.4413 1.87868 10.8787C2.44129 10.3161 3.20435 10 4 10H11V15C11 15.2652 11.1054 15.5196 11.2929 15.7071C11.4804 15.8946 11.7348 16 12 16C12.2652 16 12.5196 15.8946 12.7071 15.7071C12.8946 15.5196 13 15.2652 13 15V10H20C20.7956 10 21.5587 10.3161 22.1213 10.8787C22.6839 11.4413 23 12.2044 23 13ZM13 6.41L14.41 7.83C14.503 7.92373 14.6136 7.99812 14.7354 8.04889C14.8573 8.09966 14.988 8.1258 15.12 8.1258C15.252 8.1258 15.3827 8.09966 15.5046 8.04889C15.6264 7.99812 15.737 7.92373 15.83 7.83C15.9227 7.73656 15.996 7.62574 16.0458 7.50391C16.0955 7.38207 16.1208 7.25161 16.12 7.12C16.1208 6.98839 16.0955 6.85793 16.0458 6.73609C15.996 6.61426 15.9227 6.50344 15.83 6.41L12.71 3.29C12.5388 3.1191 12.3114 3.01607 12.07 3H11.88C11.6799 3.02378 11.4917 3.10743 11.34 3.24H11.29L8.17 6.41C7.9817 6.5983 7.87591 6.8537 7.87591 7.12C7.87591 7.3863 7.9817 7.6417 8.17 7.83C8.3583 8.0183 8.6137 8.12409 8.88 8.12409C9.1463 8.12409 9.4017 8.0183 9.59 7.83L11 6.41V10H13V6.41Z" fill="black"/>
</svg>
