<svg width="24" height="24" viewBox="0 0 24 24" fill="none" xmlns="http://www.w3.org/2000/svg">
<path d="M16 8C15.2044 8 14.4413 7.68393 13.8787 7.12132C13.3161 6.55871 13 5.79565 13 5V1H7C6.20435 1 5.44129 1.31607 4.87868 1.87868C4.31607 2.44129 4 3.20435 4 4V20C4 20.7956 4.31607 21.5587 4.87868 22.1213C5.44129 22.6839 6.20435 23 7 23H17C17.7956 23 18.5587 22.6839 19.1213 22.1213C19.6839 21.5587 20 20.7956 20 20V8H16ZM16.24 13.59L12 17.83C11.8903 17.9391 11.7568 18.0212 11.61 18.07L9.49 18.78C9.38382 18.7944 9.27618 18.7944 9.17 18.78C9.01099 18.7804 8.85418 18.7429 8.71257 18.6706C8.57097 18.5983 8.44865 18.4932 8.35577 18.3641C8.26288 18.2351 8.20211 18.0857 8.1785 17.9285C8.15489 17.7713 8.16912 17.6106 8.22 17.46L8.93 15.34C8.98527 15.2111 9.06704 15.0952 9.17 15L13.41 10.76C13.503 10.6663 13.6136 10.5919 13.7354 10.5411C13.8573 10.4903 13.988 10.4642 14.12 10.4642C14.252 10.4642 14.3827 10.4903 14.5046 10.5411C14.6264 10.5919 14.737 10.6663 14.83 10.76L16.24 12.17C16.3337 12.263 16.4081 12.3736 16.4589 12.4954C16.5097 12.6173 16.5358 12.748 16.5358 12.88C16.5358 13.012 16.5097 13.1427 16.4589 13.2646C16.4081 13.3864 16.3337 13.497 16.24 13.59ZM15 5V1.11C15.5037 1.24969 15.9622 1.51857 16.33 1.89L19.13 4.71C19.4847 5.06997 19.7426 5.5137 19.88 6H16C15.7348 6 15.4804 5.89464 15.2929 5.70711C15.1054 5.51957 15 5.26522 15 5Z" fill="black"/>
</svg>
