<svg width="24" height="24" viewBox="0 0 24 24" fill="none" xmlns="http://www.w3.org/2000/svg">
<path d="M21.72 18L17.72 22.05C17.6122 22.1542 17.4823 22.2328 17.34 22.28L15.34 22.96C15.2313 22.9997 15.1149 23.0134 15 23C14.746 22.9964 14.5029 22.8963 14.32 22.72C14.1949 22.5896 14.1074 22.4278 14.0669 22.2518C14.0265 22.0757 14.0344 21.8919 14.09 21.72L14.77 19.72C14.8185 19.5813 14.8971 19.4549 15 19.35L19 15.28C19.1843 15.1114 19.4251 15.0178 19.675 15.0178C19.9248 15.0178 20.1656 15.1114 20.35 15.28L21.71 16.64C21.8828 16.8237 21.9799 17.0658 21.9818 17.318C21.9836 17.5702 21.8901 17.8138 21.72 18V18Z" fill="black"/>
<path d="M18.88 5.99999H15C14.7348 5.99999 14.4804 5.89463 14.2929 5.70709C14.1054 5.51956 14 5.2652 14 4.99999V1.10999C14.5045 1.24237 14.964 1.50838 15.33 1.87999L18.13 4.71999C18.4832 5.07713 18.7411 5.51726 18.88 5.99999Z" fill="black"/>
<path d="M19 8V13C19 13.2652 18.8946 13.5196 18.7071 13.7071C18.5196 13.8946 18.2652 14 18 14C16.4087 14 14.8826 14.6321 13.7574 15.7574C12.6321 16.8826 12 18.4087 12 20V22C12 22.2652 11.8946 22.5196 11.7071 22.7071C11.5196 22.8946 11.2652 23 11 23H6C5.20435 23 4.44129 22.6839 3.87868 22.1213C3.31607 21.5587 3 20.7956 3 20V4C3 3.20435 3.31607 2.44129 3.87868 1.87868C4.44129 1.31607 5.20435 1 6 1H12V5C12 5.79565 12.3161 6.55871 12.8787 7.12132C13.4413 7.68393 14.2044 8 15 8H19Z" fill="black"/>
</svg>
