<svg width="24" height="24" viewBox="0 0 24 24" fill="none" xmlns="http://www.w3.org/2000/svg">
<path d="M22.6 18.78L21.31 19.71L21.8 21.23C21.8614 21.428 21.8598 21.6403 21.7953 21.8374C21.7308 22.0344 21.6066 22.2066 21.44 22.33C21.2681 22.4447 21.0667 22.5073 20.86 22.51C20.6541 22.5026 20.4539 22.4404 20.28 22.33L19 21.38L17.72 22.33C17.5506 22.4506 17.3479 22.5154 17.14 22.5154C16.9321 22.5154 16.7294 22.4506 16.56 22.33C16.3933 22.2066 16.2692 22.0344 16.2047 21.8374C16.1402 21.6403 16.1385 21.428 16.2 21.23L16.69 19.71L15.4 18.78C15.2351 18.6553 15.1129 18.4826 15.0502 18.2856C14.9876 18.0886 14.9875 17.877 15.05 17.68C15.1171 17.4814 15.2449 17.3088 15.4154 17.1868C15.5858 17.0648 15.7903 16.9994 16 17H17.6L18.09 15.49C18.1637 15.3035 18.2918 15.1434 18.4577 15.0306C18.6235 14.9179 18.8194 14.8575 19.02 14.8575C19.2206 14.8575 19.4165 14.9179 19.5823 15.0306C19.7482 15.1434 19.8763 15.3035 19.95 15.49L20.42 17H22C22.2062 17.0036 22.4063 17.0709 22.5728 17.1926C22.7392 17.3143 22.864 17.4846 22.93 17.68C22.9947 17.875 22.9977 18.0853 22.9386 18.2821C22.8796 18.4789 22.7614 18.6528 22.6 18.78V18.78Z" fill="black"/>
<path d="M23 7V12C23 12.2652 22.8946 12.5196 22.7071 12.7071C22.5196 12.8946 22.2652 13 22 13H19C17.4087 13 15.8826 13.6321 14.7574 14.7574C13.6321 15.8826 13 17.4087 13 19C13 19.2652 12.8946 19.5196 12.7071 19.7071C12.5196 19.8946 12.2652 20 12 20H3.94C3.16026 20 2.41246 19.6903 1.86111 19.1389C1.30975 18.5875 1 17.8397 1 17.06V4C1 3.20435 1.31607 2.44129 1.87868 1.87868C2.44129 1.31607 3.20435 1 4 1H8.93C9.41972 1.00089 9.90177 1.12166 10.3341 1.35175C10.7664 1.58185 11.1358 1.91427 11.41 2.32L12.24 3.56C12.3327 3.69712 12.4579 3.8091 12.6045 3.8859C12.7511 3.96269 12.9145 4.0019 13.08 4H20C20.7956 4 21.5587 4.31607 22.1213 4.87868C22.6839 5.44129 23 6.20435 23 7V7Z" fill="black"/>
</svg>
