<svg width="24" height="24" viewBox="0 0 24 24" fill="none" xmlns="http://www.w3.org/2000/svg">
<path d="M20 1H4C3.20435 1 2.44129 1.31607 1.87868 1.87868C1.31607 2.44129 1 3.20435 1 4V20C1 20.7956 1.31607 21.5587 1.87868 22.1213C2.44129 22.6839 3.20435 23 4 23H20C20.7956 23 21.5587 22.6839 22.1213 22.1213C22.6839 21.5587 23 20.7956 23 20V4C23 3.20435 22.6839 2.44129 22.1213 1.87868C21.5587 1.31607 20.7956 1 20 1V1ZM17.59 10.27L12.71 15.15C12.617 15.2437 12.5064 15.3181 12.3846 15.3689C12.2627 15.4197 12.132 15.4458 12 15.4458C11.868 15.4458 11.7373 15.4197 11.6154 15.3689C11.4936 15.3181 11.383 15.2437 11.29 15.15L6.41 10.27C6.31676 10.1768 6.2428 10.0661 6.19234 9.94425C6.14188 9.82243 6.11591 9.69186 6.11591 9.56C6.11591 9.42814 6.14188 9.29757 6.19234 9.17575C6.2428 9.05393 6.31676 8.94324 6.41 8.85C6.50324 8.75676 6.61393 8.6828 6.73575 8.63234C6.85757 8.58188 6.98814 8.55591 7.12 8.55591C7.25186 8.55591 7.38243 8.58188 7.50425 8.63234C7.62607 8.6828 7.73676 8.75676 7.83 8.85L12 13L16.17 8.82C16.2632 8.72676 16.3739 8.6528 16.4958 8.60234C16.6176 8.55188 16.7481 8.52591 16.88 8.52591C17.0119 8.52591 17.1424 8.55188 17.2642 8.60234C17.3861 8.6528 17.4968 8.72676 17.59 8.82C17.6832 8.91324 17.7572 9.02393 17.8077 9.14575C17.8581 9.26757 17.8841 9.39814 17.8841 9.53C17.8841 9.66186 17.8581 9.79243 17.8077 9.91425C17.7572 10.0361 17.6832 10.1468 17.59 10.24V10.27Z" fill="black"/>
</svg>
