<svg width="24" height="24" viewBox="0 0 24 24" fill="none" xmlns="http://www.w3.org/2000/svg">
<path d="M11 4V20C11 20.7956 10.6839 21.5587 10.1213 22.1213C9.55871 22.6839 8.79565 23 8 23H4C3.20435 23 2.44129 22.6839 1.87868 22.1213C1.31607 21.5587 1 20.7956 1 20V4C1 3.20435 1.31607 2.44129 1.87868 1.87868C2.44129 1.31607 3.20435 1 4 1H8C8.79565 1 9.55871 1.31607 10.1213 1.87868C10.6839 2.44129 11 3.20435 11 4ZM20 1H16C15.2044 1 14.4413 1.31607 13.8787 1.87868C13.3161 2.44129 13 3.20435 13 4V20C13 20.7956 13.3161 21.5587 13.8787 22.1213C14.4413 22.6839 15.2044 23 16 23H20C20.7956 23 21.5587 22.6839 22.1213 22.1213C22.6839 21.5587 23 20.7956 23 20V4C23 3.20435 22.6839 2.44129 22.1213 1.87868C21.5587 1.31607 20.7956 1 20 1V1Z" fill="black"/>
</svg>
