<svg width="24" height="24" viewBox="0 0 24 24" fill="none" xmlns="http://www.w3.org/2000/svg">
<path d="M20 1H4C3.20435 1 2.44129 1.31607 1.87868 1.87868C1.31607 2.44129 1 3.20435 1 4V20C1 20.7956 1.31607 21.5587 1.87868 22.1213C2.44129 22.6839 3.20435 23 4 23H20C20.7956 23 21.5587 22.6839 22.1213 22.1213C22.6839 21.5587 23 20.7956 23 20V4C23 3.20435 22.6839 2.44129 22.1213 1.87868C21.5587 1.31607 20.7956 1 20 1V1ZM12 19C11.7348 19 11.4804 18.8946 11.2929 18.7071C11.1054 18.5196 11 18.2652 11 18C11 17.7348 11.1054 17.4804 11.2929 17.2929C11.4804 17.1054 11.7348 17 12 17C12.2652 17 12.5196 17.1054 12.7071 17.2929C12.8946 17.4804 13 17.7348 13 18C13 18.2652 12.8946 18.5196 12.7071 18.7071C12.5196 18.8946 12.2652 19 12 19ZM13.53 12.71C13.365 12.7884 13.2267 12.9137 13.1325 13.0702C13.0382 13.2267 12.9921 13.4075 13 13.59V14C13 14.2652 12.8946 14.5196 12.7071 14.7071C12.5196 14.8946 12.2652 15 12 15C11.7348 15 11.4804 14.8946 11.2929 14.7071C11.1054 14.5196 11 14.2652 11 14V13.58C10.9887 13.0015 11.1502 12.4329 11.4637 11.9466C11.7772 11.4603 12.2285 11.0785 12.76 10.85C13.0952 10.7123 13.3867 10.4861 13.6034 10.1955C13.82 9.90495 13.9536 9.561 13.9899 9.2004C14.0262 8.8398 13.9639 8.47611 13.8095 8.14821C13.6552 7.8203 13.4146 7.5405 13.1136 7.33871C12.8125 7.13692 12.4623 7.02073 12.1003 7.00254C11.7384 6.98436 11.3783 7.06488 11.0585 7.23549C10.7388 7.4061 10.4714 7.66039 10.2849 7.97118C10.0985 8.28197 10 8.63758 10 9C10 9.26522 9.89464 9.51957 9.70711 9.70711C9.51957 9.89464 9.26522 10 9 10C8.73478 10 8.48043 9.89464 8.29289 9.70711C8.10536 9.51957 8 9.26522 8 9C8.00075 8.41652 8.12914 7.84027 8.37617 7.31166C8.6232 6.78305 8.98289 6.31489 9.43 5.94C9.87182 5.56899 10.3887 5.29795 10.9451 5.14547C11.5015 4.99299 12.0843 4.96268 12.6536 5.05662C13.2228 5.15056 13.765 5.36653 14.2429 5.6897C14.7208 6.01288 15.1232 6.43562 15.4224 6.92891C15.7216 7.42221 15.9105 7.97439 15.9762 8.54757C16.042 9.12074 15.9829 9.70136 15.8031 10.2496C15.6234 10.7978 15.3272 11.3006 14.9348 11.7236C14.5424 12.1466 14.0632 12.4796 13.53 12.7V12.71Z" fill="black"/>
</svg>
