<svg width="24" height="24" viewBox="0 0 24 24" fill="none" xmlns="http://www.w3.org/2000/svg">
<path d="M20 6H13.07C12.9053 5.99915 12.7433 5.95763 12.5985 5.87912C12.4538 5.80062 12.3306 5.68756 12.24 5.55L11.43 4.34C11.1562 3.92776 10.7846 3.58968 10.3484 3.35587C9.91217 3.12207 9.42491 2.99982 8.93 3H4C3.20435 3 2.44129 3.31607 1.87868 3.87868C1.31607 4.44129 1 5.20435 1 6V19C1 19.7956 1.31607 20.5587 1.87868 21.1213C2.44129 21.6839 3.20435 22 4 22H20C20.7956 22 21.5587 21.6839 22.1213 21.1213C22.6839 20.5587 23 19.7956 23 19V9C23 8.20435 22.6839 7.44129 22.1213 6.87868C21.5587 6.31607 20.7956 6 20 6ZM15.83 14.56C15.66 14.81 14.13 17 12 17C9.87 17 8.34 14.81 8.17 14.56C8.05822 14.3946 7.99849 14.1996 7.99849 14C7.99849 13.8004 8.05822 13.6054 8.17 13.44C8.34 13.19 9.87 11 12 11C14.13 11 15.66 13.19 15.83 13.44C15.9418 13.6054 16.0015 13.8004 16.0015 14C16.0015 14.1996 15.9418 14.3946 15.83 14.56V14.56ZM12 13C12.6744 13.1093 13.284 13.4658 13.71 14C13.2828 14.5327 12.6738 14.8888 12 15C11.3246 14.8935 10.714 14.5364 10.29 14C10.7172 13.4673 11.3262 13.1112 12 13Z" fill="black"/>
</svg>
