<svg width="24" height="24" viewBox="0 0 24 24" fill="none" xmlns="http://www.w3.org/2000/svg">
<path d="M5.99994 2C5.99994 1.73479 6.1053 1.48043 6.29283 1.2929C6.48037 1.10536 6.73472 1 6.99994 1H16.9999C17.8222 1.03129 18.5989 1.38618 19.1608 1.9874C19.7227 2.58861 20.0243 3.38746 19.9999 4.21V14C19.9999 14.2652 19.8946 14.5196 19.707 14.7071C19.5195 14.8946 19.2652 15 18.9999 15C18.7347 15 18.4804 14.8946 18.2928 14.7071C18.1053 14.5196 17.9999 14.2652 17.9999 14V4.21C18.0225 3.91805 17.9309 3.62874 17.7443 3.40302C17.5578 3.17731 17.2909 3.03282 16.9999 3H6.99994C6.73472 3 6.48037 2.89465 6.29283 2.70711C6.1053 2.51957 5.99994 2.26522 5.99994 2ZM22.7099 21.29L2.70994 1.29C2.52164 1.1017 2.26624 0.995911 1.99994 0.995911C1.73364 0.995911 1.47824 1.1017 1.28994 1.29C1.10164 1.47831 0.99585 1.7337 0.99585 2C0.99585 2.2663 1.10164 2.5217 1.28994 2.71L3.99994 5.42V19.79C3.98676 20.3947 4.14628 20.9905 4.45978 21.5077C4.77329 22.0249 5.22778 22.442 5.76994 22.71C6.15187 22.9008 6.57299 23.0001 6.99994 23C7.64433 22.9969 8.2685 22.7747 8.76994 22.37L11.4499 20.26C11.6004 20.1311 11.7919 20.0603 11.9899 20.0603C12.188 20.0603 12.3795 20.1311 12.5299 20.26L15.2099 22.35C15.6219 22.6936 16.125 22.9096 16.6578 22.9718C17.1906 23.0339 17.73 22.9395 18.2099 22.7C18.8822 22.3786 19.4151 21.8243 19.7099 21.14L21.2699 22.7C21.3629 22.7937 21.4735 22.8681 21.5954 22.9189C21.7172 22.9697 21.8479 22.9958 21.9799 22.9958C22.112 22.9958 22.2427 22.9697 22.3645 22.9189C22.4864 22.8681 22.597 22.7937 22.6899 22.7C22.8789 22.5153 22.987 22.2633 22.9908 21.9991C22.9945 21.7349 22.8936 21.48 22.7099 21.29V21.29Z" fill="black"/>
</svg>
