<svg width="24" height="24" viewBox="0 0 24 24" fill="none" xmlns="http://www.w3.org/2000/svg">
<path d="M20.7 9C20.6371 9.00004 20.5756 8.98092 20.5238 8.9452C20.472 8.90947 20.4323 8.85883 20.41 8.8C20.35 8.64 20.29 8.48 20.22 8.32C20.1968 8.26747 20.1892 8.20939 20.1981 8.15267C20.207 8.09595 20.2319 8.04296 20.27 8C20.4859 7.78697 20.6573 7.53318 20.7743 7.25337C20.8913 6.97356 20.9515 6.67329 20.9515 6.37C20.9515 6.06671 20.8913 5.76644 20.7743 5.48663C20.6573 5.20681 20.4859 4.95303 20.27 4.74L19.27 3.74C18.8321 3.31836 18.2479 3.08281 17.64 3.08281C17.0321 3.08281 16.4479 3.31836 16.01 3.74C16.01 3.74 16.01 3.74 16.01 3.74C15.96 3.7744 15.9007 3.79282 15.84 3.79282C15.7793 3.79282 15.72 3.7744 15.67 3.74L15.19 3.55C15.1389 3.52902 15.0944 3.49479 15.061 3.45084C15.0276 3.40689 15.0065 3.35481 15 3.3C15 2.69 14.7577 2.10499 14.3263 1.67365C13.895 1.24232 13.31 1 12.7 1H11.3C10.69 1 10.105 1.24232 9.67365 1.67365C9.24232 2.10499 9 2.69 9 3.3C9.00004 3.36292 8.98092 3.42437 8.9452 3.47617C8.90947 3.52797 8.85883 3.56767 8.8 3.59L8.32 3.78C8.26998 3.8144 8.2107 3.83282 8.15 3.83282C8.08929 3.83282 8.03002 3.8144 7.98 3.78C7.98 3.78 7.98 3.78 7.98 3.78C7.54212 3.35836 6.95788 3.12281 6.35 3.12281C5.74212 3.12281 5.15788 3.35836 4.72 3.78L3.72 4.78C3.29752 5.21 3.06162 5.78924 3.06349 6.39205C3.06536 6.99487 3.30485 7.57264 3.73 8C3.76663 8.051 3.78633 8.11221 3.78633 8.175C3.78633 8.23779 3.76663 8.299 3.73 8.35C3.66 8.51 3.6 8.67 3.54 8.82C3.5185 8.86786 3.4852 8.90948 3.44322 8.94097C3.40125 8.97245 3.35197 8.99276 3.3 9C2.69 9 2.10499 9.24232 1.67365 9.67365C1.24232 10.105 1 10.69 1 11.3V12.7C1 13.31 1.24232 13.895 1.67365 14.3263C2.10499 14.7577 2.69 15 3.3 15C3.36292 15 3.42437 15.0191 3.47617 15.0548C3.52797 15.0905 3.56767 15.1412 3.59 15.2C3.65 15.36 3.71 15.52 3.78 15.68C3.81663 15.731 3.83633 15.7922 3.83633 15.855C3.83633 15.9178 3.81663 15.979 3.78 16.03C3.56412 16.243 3.39271 16.4968 3.27572 16.7766C3.15872 17.0564 3.09848 17.3567 3.09848 17.66C3.09848 17.9633 3.15872 18.2636 3.27572 18.5434C3.39271 18.8232 3.56412 19.077 3.78 19.29L4.78 20.29C5.21788 20.7116 5.80212 20.9472 6.41 20.9472C7.01788 20.9472 7.60212 20.7116 8.04 20.29C8.04 20.29 8.04 20.29 8.04 20.29C8.09002 20.2556 8.14929 20.2372 8.21 20.2372C8.27071 20.2372 8.32998 20.2556 8.38 20.29L8.86 20.48C8.91883 20.5023 8.96947 20.542 9.0052 20.5938C9.04092 20.6456 9.06004 20.7071 9.06 20.77C9.0777 21.3575 9.31968 21.916 9.73625 22.3307C10.1528 22.7455 10.7124 22.9849 11.3 23H12.7C13.31 23 13.895 22.7577 14.3263 22.3263C14.7577 21.895 15 21.31 15 20.7C15 20.6371 15.0191 20.5756 15.0548 20.5238C15.0905 20.472 15.1412 20.4323 15.2 20.41L15.68 20.22C15.73 20.1856 15.7893 20.1672 15.85 20.1672C15.9107 20.1672 15.97 20.1856 16.02 20.22C16.02 20.22 16.02 20.22 16.02 20.22C16.4579 20.6416 17.0421 20.8772 17.65 20.8772C18.2579 20.8772 18.8421 20.6416 19.28 20.22L20.28 19.22C20.4959 19.007 20.6673 18.7532 20.7843 18.4734C20.9013 18.1936 20.9615 17.8933 20.9615 17.59C20.9615 17.2867 20.9013 16.9864 20.7843 16.7066C20.6673 16.4268 20.4959 16.173 20.28 15.96C20.2357 15.9145 20.2069 15.856 20.198 15.7931C20.189 15.7302 20.2002 15.6661 20.23 15.61C20.3 15.45 20.36 15.29 20.42 15.14C20.4501 15.0939 20.4918 15.0567 20.541 15.0321C20.5902 15.0075 20.6451 14.9964 20.7 15C21.31 15 21.895 14.7577 22.3263 14.3263C22.7577 13.895 23 13.31 23 12.7V11.3C23 10.69 22.7577 10.105 22.3263 9.67365C21.895 9.24232 21.31 9 20.7 9V9ZM12 16C11.2089 16 10.4355 15.7654 9.77772 15.3259C9.11992 14.8864 8.60723 14.2616 8.30448 13.5307C8.00173 12.7998 7.92252 11.9956 8.07686 11.2196C8.2312 10.4437 8.61216 9.73098 9.17157 9.17157C9.73098 8.61216 10.4437 8.2312 11.2196 8.07686C11.9956 7.92252 12.7998 8.00173 13.5307 8.30448C14.2616 8.60723 14.8864 9.11992 15.3259 9.77772C15.7654 10.4355 16 11.2089 16 12C16 13.0609 15.5786 14.0783 14.8284 14.8284C14.0783 15.5786 13.0609 16 12 16ZM14 12C14 12.3956 13.8827 12.7822 13.6629 13.1111C13.4432 13.44 13.1308 13.6964 12.7654 13.8478C12.3999 13.9991 11.9978 14.0387 11.6098 13.9616C11.2219 13.8844 10.8655 13.6939 10.5858 13.4142C10.3061 13.1345 10.1156 12.7781 10.0384 12.3902C9.96126 12.0022 10.0009 11.6001 10.1522 11.2346C10.3036 10.8692 10.56 10.5568 10.8889 10.3371C11.2178 10.1173 11.6044 10 12 10C12.5304 10 13.0391 10.2107 13.4142 10.5858C13.7893 10.9609 14 11.4696 14 12Z" fill="black"/>
</svg>
