<svg width="24" height="24" viewBox="0 0 24 24" fill="none" xmlns="http://www.w3.org/2000/svg">
<path d="M20.8299 16.59C20.737 16.4963 20.6264 16.4219 20.5045 16.3711C20.3827 16.3203 20.252 16.2942 20.1199 16.2942C19.9879 16.2942 19.8572 16.3203 19.7354 16.3711C19.6135 16.4219 19.5029 16.4963 19.4099 16.59L17.2899 18.71L16.5899 18C16.497 17.9063 16.3864 17.8319 16.2645 17.7811C16.1427 17.7303 16.012 17.7042 15.8799 17.7042C15.7479 17.7042 15.6172 17.7303 15.4954 17.7811C15.3735 17.8319 15.2629 17.9063 15.1699 18C14.9837 18.1874 14.8792 18.4408 14.8792 18.705C14.8792 18.9692 14.9837 19.2226 15.1699 19.41L16.5899 20.83C16.7762 21.0147 17.0276 21.1189 17.2899 21.12C17.4216 21.1208 17.552 21.0955 17.6738 21.0458C17.7957 20.996 17.9065 20.9227 17.9999 20.83L20.8299 18C21.0162 17.8126 21.1207 17.5592 21.1207 17.295C21.1207 17.0308 21.0162 16.7774 20.8299 16.59Z" fill="black"/>
<path d="M18.88 5.99999H15C14.7348 5.99999 14.4804 5.89463 14.2929 5.70709C14.1054 5.51956 14 5.2652 14 4.99999V1.10999C14.5045 1.24237 14.964 1.50838 15.33 1.87999L18.13 4.71999C18.4832 5.07713 18.7411 5.51726 18.88 5.99999Z" fill="black"/>
<path d="M19 8V13C19 13.2652 18.8946 13.5196 18.7071 13.7071C18.5196 13.8946 18.2652 14 18 14C16.4087 14 14.8826 14.6321 13.7574 15.7574C12.6321 16.8826 12 18.4087 12 20V22C12 22.2652 11.8946 22.5196 11.7071 22.7071C11.5196 22.8946 11.2652 23 11 23H6C5.20435 23 4.44129 22.6839 3.87868 22.1213C3.31607 21.5587 3 20.7956 3 20V4C3 3.20435 3.31607 2.44129 3.87868 1.87868C4.44129 1.31607 5.20435 1 6 1H12V5C12 5.79565 12.3161 6.55871 12.8787 7.12132C13.4413 7.68393 14.2044 8 15 8H19Z" fill="black"/>
</svg>
