<svg width="24" height="24" viewBox="0 0 24 24" fill="none" xmlns="http://www.w3.org/2000/svg">
<path d="M12 1C9.82441 1 7.69767 1.64514 5.88873 2.85383C4.07979 4.06253 2.66989 5.78049 1.83733 7.79048C1.00477 9.80047 0.786929 12.0122 1.21137 14.146C1.6358 16.2798 2.68345 18.2398 4.22183 19.7782C5.76021 21.3166 7.72022 22.3642 9.85401 22.7886C11.9878 23.2131 14.1995 22.9952 16.2095 22.1627C18.2195 21.3301 19.9375 19.9202 21.1462 18.1113C22.3549 16.3023 23 14.1756 23 12C23 9.08262 21.8411 6.28473 19.7782 4.22183C17.7153 2.15893 14.9174 1 12 1V1ZM15.15 16.17C15.2437 16.263 15.3181 16.3736 15.3689 16.4954C15.4197 16.6173 15.4458 16.748 15.4458 16.88C15.4458 17.012 15.4197 17.1427 15.3689 17.2646C15.3181 17.3864 15.2437 17.497 15.15 17.59C15.057 17.6837 14.9464 17.7581 14.8246 17.8089C14.7027 17.8597 14.572 17.8858 14.44 17.8858C14.308 17.8858 14.1773 17.8597 14.0554 17.8089C13.9336 17.7581 13.823 17.6837 13.73 17.59L8.85001 12.71C8.75628 12.617 8.68188 12.5064 8.63111 12.3846C8.58034 12.2627 8.55421 12.132 8.55421 12C8.55421 11.868 8.58034 11.7373 8.63111 11.6154C8.68188 11.4936 8.75628 11.383 8.85001 11.29L13.73 6.41C13.8232 6.31676 13.9339 6.2428 14.0558 6.19234C14.1776 6.14188 14.3081 6.11591 14.44 6.11591C14.5719 6.11591 14.7024 6.14188 14.8243 6.19234C14.9461 6.2428 15.0568 6.31676 15.15 6.41C15.2432 6.50324 15.3172 6.61393 15.3677 6.73575C15.4181 6.85757 15.4441 6.98814 15.4441 7.12C15.4441 7.25186 15.4181 7.38243 15.3677 7.50425C15.3172 7.62607 15.2432 7.73676 15.15 7.83L11 12L15.15 16.17Z" fill="black"/>
</svg>
