<svg width="24" height="24" viewBox="0 0 24 24" fill="none" xmlns="http://www.w3.org/2000/svg">
<path d="M12 1C9.82441 1 7.69767 1.64514 5.88873 2.85383C4.07979 4.06253 2.66989 5.78049 1.83733 7.79048C1.00477 9.80047 0.786929 12.0122 1.21137 14.146C1.6358 16.2798 2.68345 18.2398 4.22183 19.7782C5.76021 21.3166 7.72022 22.3642 9.85401 22.7886C11.9878 23.2131 14.1995 22.9952 16.2095 22.1627C18.2195 21.3301 19.9375 19.9202 21.1462 18.1113C22.3549 16.3023 23 14.1756 23 12C23 9.08262 21.8411 6.28473 19.7782 4.22183C17.7153 2.15893 14.9174 1 12 1V1ZM17.59 10.27L12.71 15.15C12.617 15.2437 12.5064 15.3181 12.3846 15.3689C12.2627 15.4197 12.132 15.4458 12 15.4458C11.868 15.4458 11.7373 15.4197 11.6154 15.3689C11.4936 15.3181 11.383 15.2437 11.29 15.15L6.41 10.27C6.31677 10.1768 6.24281 10.0661 6.19235 9.94425C6.14188 9.82243 6.11591 9.69186 6.11591 9.56C6.11591 9.42814 6.14188 9.29757 6.19235 9.17575C6.24281 9.05393 6.31677 8.94324 6.41 8.85C6.50324 8.75676 6.61393 8.6828 6.73576 8.63234C6.85758 8.58188 6.98815 8.55591 7.12 8.55591C7.25186 8.55591 7.38243 8.58188 7.50425 8.63234C7.62608 8.6828 7.73677 8.75676 7.83 8.85L12 13L16.17 8.82C16.2632 8.72676 16.3739 8.6528 16.4958 8.60234C16.6176 8.55188 16.7481 8.52591 16.88 8.52591C17.0119 8.52591 17.1424 8.55188 17.2643 8.60234C17.3861 8.6528 17.4968 8.72676 17.59 8.82C17.6832 8.91324 17.7572 9.02393 17.8077 9.14575C17.8581 9.26757 17.8841 9.39814 17.8841 9.53C17.8841 9.66186 17.8581 9.79243 17.8077 9.91425C17.7572 10.0361 17.6832 10.1468 17.59 10.24V10.27Z" fill="black"/>
</svg>
