<svg width="24" height="24" viewBox="0 0 24 24" fill="none" xmlns="http://www.w3.org/2000/svg">
<path d="M20 5.5H13.07C12.9053 5.49915 12.7433 5.45763 12.5985 5.37912C12.4538 5.30062 12.3306 5.18756 12.24 5.05L11.43 3.84C11.1562 3.42776 10.7846 3.08968 10.3484 2.85587C9.91217 2.62207 9.42491 2.49982 8.93 2.5H4C3.20435 2.5 2.44129 2.81607 1.87868 3.37868C1.31607 3.94129 1 4.70435 1 5.5V18.5C1 19.2956 1.31607 20.0587 1.87868 20.6213C2.44129 21.1839 3.20435 21.5 4 21.5H20C20.7956 21.5 21.5587 21.1839 22.1213 20.6213C22.6839 20.0587 23 19.2956 23 18.5V8.5C23 7.70435 22.6839 6.94129 22.1213 6.37868C21.5587 5.81607 20.7956 5.5 20 5.5ZM14.83 14.91C14.9237 15.003 14.9981 15.1136 15.0489 15.2354C15.0997 15.3573 15.1258 15.488 15.1258 15.62C15.1258 15.752 15.0997 15.8827 15.0489 16.0046C14.9981 16.1264 14.9237 16.237 14.83 16.33C14.7366 16.4227 14.6257 16.496 14.5039 16.5458C14.3821 16.5955 14.2516 16.6208 14.12 16.62C13.9884 16.6208 13.8579 16.5955 13.7361 16.5458C13.6143 16.496 13.5034 16.4227 13.41 16.33L12 14.92L10.59 16.33C10.4966 16.4227 10.3857 16.496 10.2639 16.5458C10.1421 16.5955 10.0116 16.6208 9.88 16.62C9.74839 16.6208 9.61793 16.5955 9.49609 16.5458C9.37426 16.496 9.26344 16.4227 9.17 16.33C9.07627 16.237 9.00188 16.1264 8.95111 16.0046C8.90034 15.8827 8.8742 15.752 8.8742 15.62C8.8742 15.488 8.90034 15.3573 8.95111 15.2354C9.00188 15.1136 9.07627 15.003 9.17 14.91L10.58 13.5L9.17 12.09C9.07676 11.9968 9.0028 11.8861 8.95234 11.7642C8.90188 11.6424 8.87591 11.5119 8.87591 11.38C8.87591 11.2481 8.90188 11.1176 8.95234 10.9958C9.0028 10.8739 9.07676 10.7632 9.17 10.67C9.26324 10.5768 9.37393 10.5028 9.49575 10.4523C9.61757 10.4019 9.74814 10.3759 9.88 10.3759C10.0119 10.3759 10.1424 10.4019 10.2642 10.4523C10.3861 10.5028 10.4968 10.5768 10.59 10.67L12 12.08L13.41 10.67C13.5032 10.5768 13.6139 10.5028 13.7358 10.4523C13.8576 10.4019 13.9881 10.3759 14.12 10.3759C14.2519 10.3759 14.3824 10.4019 14.5042 10.4523C14.6261 10.5028 14.7368 10.5768 14.83 10.67C14.9232 10.7632 14.9972 10.8739 15.0477 10.9958C15.0981 11.1176 15.1241 11.2481 15.1241 11.38C15.1241 11.5119 15.0981 11.6424 15.0477 11.7642C14.9972 11.8861 14.9232 11.9968 14.83 12.09L13.42 13.5L14.83 14.91Z" fill="black"/>
</svg>
