<svg width="24" height="24" viewBox="0 0 24 24" fill="none" xmlns="http://www.w3.org/2000/svg">
<path d="M20 5.5H13.07C12.9053 5.49915 12.7433 5.45763 12.5985 5.37912C12.4538 5.30062 12.3306 5.18756 12.24 5.05L11.43 3.84C11.1562 3.42776 10.7846 3.08968 10.3484 2.85587C9.91217 2.62207 9.42491 2.49982 8.93 2.5H4C3.20435 2.5 2.44129 2.81607 1.87868 3.37868C1.31607 3.94129 1 4.70435 1 5.5V18.5C1 19.2956 1.31607 20.0587 1.87868 20.6213C2.44129 21.1839 3.20435 21.5 4 21.5H20C20.7956 21.5 21.5587 21.1839 22.1213 20.6213C22.6839 20.0587 23 19.2956 23 18.5V8.5C23 7.70435 22.6839 6.94129 22.1213 6.37868C21.5587 5.81607 20.7956 5.5 20 5.5ZM15 14.5H9C8.73478 14.5 8.48043 14.3946 8.29289 14.2071C8.10536 14.0196 8 13.7652 8 13.5C8 13.2348 8.10536 12.9804 8.29289 12.7929C8.48043 12.6054 8.73478 12.5 9 12.5H15C15.2652 12.5 15.5196 12.6054 15.7071 12.7929C15.8946 12.9804 16 13.2348 16 13.5C16 13.7652 15.8946 14.0196 15.7071 14.2071C15.5196 14.3946 15.2652 14.5 15 14.5Z" fill="black"/>
</svg>
