<svg width="24" height="24" viewBox="0 0 24 24" fill="none" xmlns="http://www.w3.org/2000/svg">
<path d="M7 6C7 5.0111 7.29324 4.0444 7.84265 3.22215C8.39206 2.39991 9.17295 1.75904 10.0866 1.3806C11.0002 1.00217 12.0055 0.90315 12.9755 1.09608C13.9454 1.289 14.8363 1.76521 15.5355 2.46447C16.2348 3.16373 16.711 4.05465 16.9039 5.02455C17.0969 5.99446 16.9978 6.99979 16.6194 7.91342C16.241 8.82705 15.6001 9.60794 14.7779 10.1573C13.9556 10.7068 12.9889 11 12 11C10.6739 11 9.40215 10.4732 8.46447 9.53554C7.52678 8.59785 7 7.32608 7 6V6ZM17 13H7C5.67392 13 4.40215 13.5268 3.46447 14.4645C2.52678 15.4021 2 16.6739 2 18V20C2 20.7957 2.31607 21.5587 2.87868 22.1213C3.44129 22.6839 4.20435 23 5 23H19C19.7956 23 20.5587 22.6839 21.1213 22.1213C21.6839 21.5587 22 20.7957 22 20V18C22 16.6739 21.4732 15.4021 20.5355 14.4645C19.5979 13.5268 18.3261 13 17 13Z" fill="black"/>
</svg>
