<svg width="24" height="24" viewBox="0 0 24 24" fill="none" xmlns="http://www.w3.org/2000/svg">
<path d="M20.72 18.3L18.78 16.3C18.5954 16.1116 18.3438 16.0038 18.08 16V16C17.8226 16.001 17.5754 16.1013 17.39 16.28L15.32 18.28C15.1773 18.4175 15.0787 18.5943 15.0367 18.788C14.9946 18.9817 15.0111 19.1835 15.084 19.3678C15.1568 19.5521 15.2828 19.7105 15.4459 19.8231C15.609 19.9357 15.8019 19.9973 16 20H17V22C17 22.2652 17.1054 22.5196 17.2929 22.7071C17.4805 22.8946 17.7348 23 18 23C18.2653 23 18.5196 22.8946 18.7071 22.7071C18.8947 22.5196 19 22.2652 19 22V20H20C20.1975 20.0012 20.3908 19.9439 20.5557 19.8353C20.7206 19.7267 20.8497 19.5718 20.9267 19.39C21.0037 19.2082 21.0252 19.0077 20.9884 18.8137C20.9516 18.6197 20.8582 18.441 20.72 18.3V18.3Z" fill="black"/>
<path d="M18.88 5.99999H15C14.7348 5.99999 14.4804 5.89463 14.2929 5.70709C14.1054 5.51956 14 5.2652 14 4.99999V1.10999C14.5045 1.24237 14.964 1.50838 15.33 1.87999L18.13 4.71999C18.4832 5.07713 18.7411 5.51726 18.88 5.99999Z" fill="black"/>
<path d="M19 8V13C19 13.2652 18.8946 13.5196 18.7071 13.7071C18.5196 13.8946 18.2652 14 18 14C16.4087 14 14.8826 14.6321 13.7574 15.7574C12.6321 16.8826 12 18.4087 12 20V22C12 22.2652 11.8946 22.5196 11.7071 22.7071C11.5196 22.8946 11.2652 23 11 23H6C5.20435 23 4.44129 22.6839 3.87868 22.1213C3.31607 21.5587 3 20.7956 3 20V4C3 3.20435 3.31607 2.44129 3.87868 1.87868C4.44129 1.31607 5.20435 1 6 1H12V5C12 5.79565 12.3161 6.55871 12.8787 7.12132C13.4413 7.68393 14.2044 8 15 8H19Z" fill="black"/>
</svg>
