<svg width="24" height="24" viewBox="0 0 24 24" fill="none" xmlns="http://www.w3.org/2000/svg">
<path d="M21 19H18V18C18.0012 17.8026 17.9439 17.6092 17.8353 17.4443C17.7268 17.2794 17.5718 17.1503 17.39 17.0733C17.2082 16.9963 17.0077 16.9749 16.8137 17.0116C16.6197 17.0484 16.441 17.1418 16.3 17.28L14.3 19.22C14.1116 19.4046 14.0038 19.6562 14 19.92C13.9958 20.1844 14.0965 20.4397 14.28 20.63L16.28 22.7C16.4187 22.8439 16.5973 22.943 16.7929 22.9844C16.9884 23.0258 17.1919 23.0076 17.377 22.9323C17.5621 22.857 17.7204 22.7279 17.8315 22.5617C17.9425 22.3955 18.0012 22.1999 18 22V21H21C21.2652 21 21.5196 20.8947 21.7071 20.7071C21.8946 20.5196 22 20.2652 22 20C22 19.7348 21.8946 19.4804 21.7071 19.2929C21.5196 19.1054 21.2652 19 21 19Z" fill="black"/>
<path d="M18.88 5.99999H15C14.7348 5.99999 14.4804 5.89463 14.2929 5.70709C14.1054 5.51956 14 5.2652 14 4.99999V1.10999C14.5045 1.24237 14.964 1.50838 15.33 1.87999L18.13 4.71999C18.4832 5.07713 18.7411 5.51726 18.88 5.99999Z" fill="black"/>
<path d="M19 8V13C19 13.2652 18.8946 13.5196 18.7071 13.7071C18.5196 13.8946 18.2652 14 18 14C16.4087 14 14.8826 14.6321 13.7574 15.7574C12.6321 16.8826 12 18.4087 12 20V22C12 22.2652 11.8946 22.5196 11.7071 22.7071C11.5196 22.8946 11.2652 23 11 23H6C5.20435 23 4.44129 22.6839 3.87868 22.1213C3.31607 21.5587 3 20.7956 3 20V4C3 3.20435 3.31607 2.44129 3.87868 1.87868C4.44129 1.31607 5.20435 1 6 1H12V5C12 5.79565 12.3161 6.55871 12.8787 7.12132C13.4413 7.68393 14.2044 8 15 8H19Z" fill="black"/>
</svg>
