<svg width="24" height="24" viewBox="0 0 24 24" fill="none" xmlns="http://www.w3.org/2000/svg">
<path d="M12 1C9.82441 1 7.69767 1.64514 5.88873 2.85383C4.07979 4.06253 2.66989 5.78049 1.83733 7.79048C1.00477 9.80047 0.786929 12.0122 1.21137 14.146C1.6358 16.2798 2.68345 18.2398 4.22183 19.7782C5.76021 21.3166 7.72022 22.3642 9.85401 22.7886C11.9878 23.2131 14.1995 22.9952 16.2095 22.1627C18.2195 21.3301 19.9375 19.9202 21.1462 18.1113C22.3549 16.3023 23 14.1756 23 12C23 9.08262 21.8411 6.28473 19.7782 4.22183C17.7153 2.15893 14.9174 1 12 1V1ZM7 13C6.80222 13 6.60888 12.9414 6.44443 12.8315C6.27999 12.7216 6.15181 12.5654 6.07613 12.3827C6.00044 12.2 5.98063 11.9989 6.01922 11.8049C6.0578 11.6109 6.15305 11.4327 6.2929 11.2929C6.43275 11.153 6.61093 11.0578 6.80491 11.0192C6.9989 10.9806 7.19996 11.0004 7.38269 11.0761C7.56541 11.1518 7.72159 11.28 7.83147 11.4444C7.94136 11.6089 8 11.8022 8 12C8 12.2652 7.89465 12.5196 7.70711 12.7071C7.51957 12.8946 7.26522 13 7 13ZM12 13C11.8022 13 11.6089 12.9414 11.4444 12.8315C11.28 12.7216 11.1518 12.5654 11.0761 12.3827C11.0004 12.2 10.9806 11.9989 11.0192 11.8049C11.0578 11.6109 11.153 11.4327 11.2929 11.2929C11.4328 11.153 11.6109 11.0578 11.8049 11.0192C11.9989 10.9806 12.2 11.0004 12.3827 11.0761C12.5654 11.1518 12.7216 11.28 12.8315 11.4444C12.9414 11.6089 13 11.8022 13 12C13 12.2652 12.8946 12.5196 12.7071 12.7071C12.5196 12.8946 12.2652 13 12 13ZM17 13C16.8022 13 16.6089 12.9414 16.4444 12.8315C16.28 12.7216 16.1518 12.5654 16.0761 12.3827C16.0004 12.2 15.9806 11.9989 16.0192 11.8049C16.0578 11.6109 16.153 11.4327 16.2929 11.2929C16.4327 11.153 16.6109 11.0578 16.8049 11.0192C16.9989 10.9806 17.2 11.0004 17.3827 11.0761C17.5654 11.1518 17.7216 11.28 17.8315 11.4444C17.9414 11.6089 18 11.8022 18 12C18 12.2652 17.8946 12.5196 17.7071 12.7071C17.5196 12.8946 17.2652 13 17 13Z" fill="black"/>
</svg>
