<svg width="24" height="24" viewBox="0 0 24 24" fill="none" xmlns="http://www.w3.org/2000/svg">
<path d="M19.7799 15.3C19.5953 15.1116 19.3437 15.0038 19.0799 15C18.8156 14.9958 18.5603 15.0965 18.3699 15.28L16.2999 17.28C16.156 17.4187 16.057 17.5973 16.0156 17.7929C15.9742 17.9884 15.9923 18.1919 16.0677 18.377C16.143 18.5621 16.2721 18.7204 16.4383 18.8315C16.6044 18.9425 16.8001 19.0012 16.9999 19H17.9999V22C17.9999 22.2652 18.1053 22.5196 18.2928 22.7071C18.4804 22.8946 18.7347 23 18.9999 23C19.2652 23 19.5195 22.8946 19.707 22.7071C19.8946 22.5196 19.9999 22.2652 19.9999 22V19H20.9999C21.1974 19.0012 21.3907 18.9439 21.5556 18.8353C21.7205 18.7268 21.8496 18.5718 21.9266 18.39C22.0036 18.2082 22.0251 18.0077 21.9883 17.8137C21.9515 17.6197 21.8581 17.441 21.7199 17.3L19.7799 15.3Z" fill="black"/>
<path d="M23 7V12C23 12.2652 22.8946 12.5196 22.7071 12.7071C22.5196 12.8946 22.2652 13 22 13H19C17.4087 13 15.8826 13.6321 14.7574 14.7574C13.6321 15.8826 13 17.4087 13 19C13 19.2652 12.8946 19.5196 12.7071 19.7071C12.5196 19.8946 12.2652 20 12 20H3.94C3.16026 20 2.41246 19.6903 1.86111 19.1389C1.30975 18.5875 1 17.8397 1 17.06V4C1 3.20435 1.31607 2.44129 1.87868 1.87868C2.44129 1.31607 3.20435 1 4 1H8.93C9.41972 1.00089 9.90177 1.12166 10.3341 1.35175C10.7664 1.58185 11.1358 1.91427 11.41 2.32L12.24 3.56C12.3327 3.69712 12.4579 3.8091 12.6045 3.8859C12.7511 3.96269 12.9145 4.0019 13.08 4H20C20.7956 4 21.5587 4.31607 22.1213 4.87868C22.6839 5.44129 23 6.20435 23 7V7Z" fill="black"/>
</svg>
