<svg width="24" height="24" viewBox="0 0 24 24" fill="none" xmlns="http://www.w3.org/2000/svg">
<path d="M16 10V2C16 1.73478 16.1054 1.48043 16.2929 1.29289C16.4804 1.10536 16.7348 1 17 1C17.2652 1 17.5196 1.10536 17.7071 1.29289C17.8947 1.48043 18 1.73478 18 2V10C18 10.2652 17.8947 10.5196 17.7071 10.7071C17.5196 10.8946 17.2652 11 17 11C16.7348 11 16.4804 10.8946 16.2929 10.7071C16.1054 10.5196 16 10.2652 16 10ZM7.00001 13C6.73479 13 6.48044 13.1054 6.2929 13.2929C6.10536 13.4804 6.00001 13.7348 6.00001 14V22C6.00001 22.2652 6.10536 22.5196 6.2929 22.7071C6.48044 22.8946 6.73479 23 7.00001 23C7.26522 23 7.51958 22.8946 7.70711 22.7071C7.89465 22.5196 8.00001 22.2652 8.00001 22V14C8.00001 13.7348 7.89465 13.4804 7.70711 13.2929C7.51958 13.1054 7.26522 13 7.00001 13ZM8.00001 5.18V2C8.00001 1.73478 7.89465 1.48043 7.70711 1.29289C7.51958 1.10536 7.26522 1 7.00001 1C6.73479 1 6.48044 1.10536 6.2929 1.29289C6.10536 1.48043 6.00001 1.73478 6.00001 2V5.18C5.33279 5.4159 4.77045 5.88007 4.41237 6.49048C4.0543 7.10089 3.92354 7.81824 4.04321 8.51573C4.16288 9.21323 4.52528 9.84596 5.06635 10.3021C5.60741 10.7582 6.29232 11.0084 7.00001 11.0084C7.70769 11.0084 8.3926 10.7582 8.93367 10.3021C9.47473 9.84596 9.83713 9.21323 9.9568 8.51573C10.0765 7.81824 9.94571 7.10089 9.58764 6.49048C9.22956 5.88007 8.66722 5.4159 8.00001 5.18V5.18ZM17 13C16.2965 13.0055 15.6172 13.258 15.081 13.7135C14.5448 14.169 14.1857 14.7985 14.0666 15.4919C13.9475 16.1853 14.0758 16.8985 14.4292 17.5069C14.7826 18.1152 15.3386 18.58 16 18.82V22C16 22.2652 16.1054 22.5196 16.2929 22.7071C16.4804 22.8946 16.7348 23 17 23C17.2652 23 17.5196 22.8946 17.7071 22.7071C17.8947 22.5196 18 22.2652 18 22V18.82C18.6614 18.58 19.2174 18.1152 19.5708 17.5069C19.9242 16.8985 20.0525 16.1853 19.9334 15.4919C19.8143 14.7985 19.4552 14.169 18.919 13.7135C18.3828 13.258 17.7035 13.0055 17 13V13Z" fill="black"/>
</svg>
