<svg width="24" height="24" viewBox="0 0 24 24" fill="none" xmlns="http://www.w3.org/2000/svg">
<path d="M7 2.99989H13V4.99989C13 5.79554 13.3161 6.5586 13.8787 7.12121C14.4413 7.68382 15.2044 7.99989 16 7.99989H18V13.9999C18 14.2651 18.1054 14.5195 18.2929 14.707C18.4804 14.8945 18.7348 14.9999 19 14.9999C19.2652 14.9999 19.5196 14.8945 19.7071 14.707C19.8946 14.5195 20 14.2651 20 13.9999V6.81989C19.9967 6.03287 19.6842 5.27867 19.13 4.71989L16.33 1.87989C16.0505 1.60004 15.7184 1.37822 15.3529 1.22719C14.9873 1.07617 14.5955 0.998918 14.2 0.999887H7C6.73478 0.999887 6.48043 1.10524 6.29289 1.29278C6.10536 1.48032 6 1.73467 6 1.99989C6 2.2651 6.10536 2.51946 6.29289 2.70699C6.48043 2.89453 6.73478 2.99989 7 2.99989Z" fill="black"/>
<path d="M22.7099 21.2899L2.70994 1.28994C2.52164 1.10164 2.26624 0.99585 1.99994 0.99585C1.73364 0.99585 1.47824 1.10164 1.28994 1.28994C1.10164 1.47824 0.99585 1.73364 0.99585 1.99994C0.99585 2.26624 1.10164 2.52164 1.28994 2.70994L3.99994 5.41994V19.9999C3.99994 20.7956 4.31601 21.5587 4.87862 22.1213C5.44123 22.6839 6.20429 22.9999 6.99994 22.9999H16.9999C17.5871 22.9975 18.1607 22.8228 18.6495 22.4975C19.1383 22.1722 19.5209 21.7106 19.7499 21.1699L21.2899 22.7099C21.3829 22.8037 21.4935 22.8781 21.6154 22.9288C21.7372 22.9796 21.8679 23.0057 21.9999 23.0057C22.132 23.0057 22.2627 22.9796 22.3845 22.9288C22.5064 22.8781 22.617 22.8037 22.7099 22.7099C22.8037 22.617 22.8781 22.5064 22.9288 22.3845C22.9796 22.2627 23.0057 22.132 23.0057 21.9999C23.0057 21.8679 22.9796 21.7372 22.9288 21.6154C22.8781 21.4935 22.8037 21.3829 22.7099 21.2899V21.2899Z" fill="black"/>
</svg>
