<svg width="24" height="24" viewBox="0 0 24 24" fill="none" xmlns="http://www.w3.org/2000/svg">
<path d="M20 6H13.07C12.9053 5.99915 12.7433 5.95763 12.5985 5.87912C12.4538 5.80062 12.3306 5.68756 12.24 5.55L11.43 4.34C11.1562 3.92776 10.7846 3.58968 10.3484 3.35587C9.91217 3.12207 9.42491 2.99982 8.93 3H4C3.20435 3 2.44129 3.31607 1.87868 3.87868C1.31607 4.44129 1 5.20435 1 6V19C1 19.7956 1.31607 20.5587 1.87868 21.1213C2.44129 21.6839 3.20435 22 4 22H20C20.7956 22 21.5587 21.6839 22.1213 21.1213C22.6839 20.5587 23 19.7956 23 19V9C23 8.20435 22.6839 7.44129 22.1213 6.87868C21.5587 6.31607 20.7956 6 20 6ZM15.71 17.71C15.617 17.8037 15.5064 17.8781 15.3846 17.9289C15.2627 17.9797 15.132 18.0058 15 18.0058C14.868 18.0058 14.7373 17.9797 14.6154 17.9289C14.4936 17.8781 14.383 17.8037 14.29 17.71L12.29 15.71C11.8869 15.9014 11.4462 16.0005 11 16C10.4067 16 9.82664 15.8241 9.33329 15.4944C8.83994 15.1648 8.45542 14.6962 8.22836 14.1481C8.0013 13.5999 7.94189 12.9967 8.05764 12.4147C8.1734 11.8328 8.45912 11.2982 8.87868 10.8787C9.29824 10.4591 9.83279 10.1734 10.4147 10.0576C10.9967 9.94189 11.5999 10.0013 12.1481 10.2284C12.6962 10.4554 13.1648 10.8399 13.4944 11.3333C13.8241 11.8266 14 12.4067 14 13C13.9974 13.447 13.8949 13.8877 13.7 14.29L15.7 16.29C15.7944 16.3823 15.8696 16.4924 15.9212 16.6139C15.9728 16.7354 15.9999 16.8659 16.0008 16.9979C16.0017 17.1299 15.9765 17.2608 15.9266 17.383C15.8767 17.5053 15.8031 17.6164 15.71 17.71ZM12 13C12 13.1978 11.9414 13.3911 11.8315 13.5556C11.7216 13.72 11.5654 13.8482 11.3827 13.9239C11.2 13.9996 10.9989 14.0194 10.8049 13.9808C10.6109 13.9422 10.4327 13.847 10.2929 13.7071C10.153 13.5673 10.0578 13.3891 10.0192 13.1951C9.98063 13.0011 10.0004 12.8 10.0761 12.6173C10.1518 12.4346 10.28 12.2784 10.4444 12.1685C10.6089 12.0586 10.8022 12 11 12C11.2652 12 11.5196 12.1054 11.7071 12.2929C11.8946 12.4804 12 12.7348 12 13Z" fill="black"/>
</svg>
