<svg width="24" height="24" viewBox="0 0 24 24" fill="none" xmlns="http://www.w3.org/2000/svg">
<path d="M20.4199 15.89L18.2699 18L17.5899 17.32C17.497 17.2263 17.3864 17.1519 17.2645 17.1011C17.1427 17.0503 17.012 17.0242 16.8799 17.0242C16.7479 17.0242 16.6172 17.0503 16.4954 17.1011C16.3735 17.1519 16.2629 17.2263 16.1699 17.32C15.9837 17.5074 15.8792 17.7608 15.8792 18.025C15.8792 18.2892 15.9837 18.5426 16.1699 18.73L17.5499 20.11C17.6426 20.2045 17.753 20.2797 17.8749 20.3311C17.9968 20.3826 18.1276 20.4094 18.2599 20.41C18.5223 20.4089 18.7737 20.3047 18.9599 20.12L21.8199 17.33C22.0096 17.1443 22.1177 16.891 22.1205 16.6256C22.1233 16.3602 22.0206 16.1046 21.8349 15.915C21.6493 15.7254 21.3959 15.6172 21.1305 15.6144C20.8652 15.6116 20.6096 15.7143 20.4199 15.9V15.89Z" fill="black"/>
<path d="M23 7V12C23 12.2652 22.8946 12.5196 22.7071 12.7071C22.5196 12.8946 22.2652 13 22 13H19C17.4087 13 15.8826 13.6321 14.7574 14.7574C13.6321 15.8826 13 17.4087 13 19C13 19.2652 12.8946 19.5196 12.7071 19.7071C12.5196 19.8946 12.2652 20 12 20H3.94C3.16026 20 2.41246 19.6903 1.86111 19.1389C1.30975 18.5875 1 17.8397 1 17.06V4C1 3.20435 1.31607 2.44129 1.87868 1.87868C2.44129 1.31607 3.20435 1 4 1H8.93C9.41972 1.00089 9.90177 1.12166 10.3341 1.35175C10.7664 1.58185 11.1358 1.91427 11.41 2.32L12.24 3.56C12.3327 3.69712 12.4579 3.8091 12.6045 3.8859C12.7511 3.96269 12.9145 4.0019 13.08 4H20C20.7956 4 21.5587 4.31607 22.1213 4.87868C22.6839 5.44129 23 6.20435 23 7V7Z" fill="black"/>
</svg>
