<svg width="24" height="24" viewBox="0 0 24 24" fill="none" xmlns="http://www.w3.org/2000/svg">
<path d="M23 8.71006C23 13.3501 17.2 18.2201 13.75 20.7101C13.24 21.0763 12.6279 21.2734 12 21.2734C11.3721 21.2734 10.76 21.0763 10.25 20.7101C6.8 18.2201 1 13.3501 1 8.71006C1.00142 7.42169 1.41751 6.16799 2.18672 5.13444C2.95593 4.1009 4.03739 3.3424 5.27112 2.97116C6.50484 2.59992 7.8253 2.63566 9.03714 3.07309C10.249 3.51052 11.2878 4.32641 12 5.40006C12.7122 4.32641 13.751 3.51052 14.9629 3.07309C16.1747 2.63566 17.4952 2.59992 18.7289 2.97116C19.9626 3.3424 21.0441 4.1009 21.8133 5.13444C22.5825 6.16799 22.9986 7.42169 23 8.71006V8.71006Z" fill="black"/>
</svg>
